SplineFontDB: 3.2
FontName: EvangelionCPA
FullName: Evangelion CPA
FamilyName: EvangelionCPA
Weight: Regular
Copyright: Copyright 2025 The Evangelion CPA Project Authors (https://github.com/typiconman/Evangelion-CPA)
Version: 1.1
ItalicAngle: 0
UnderlinePosition: -210
UnderlineWidth: 50
Ascent: 800
Descent: 200
InvalidEm: 0
sfntRevision: 0x00010000
LayerCount: 2
Layer: 0 1 "Back" 1
Layer: 1 1 "Fore" 0
XUID: [1021 156 -1182680201 1545178]
StyleMap: 0x0040
FSType: 1
OS2Version: 0
OS2_WeightWidthSlopeOnly: 0
OS2_UseTypoMetrics: 0
CreationTime: -1237338159
ModificationTime: 1751889238
PfmFamily: 81
TTFWeight: 400
TTFWidth: 5
LineGap: 0
VLineGap: 0
Panose: 0 0 0 0 0 0 0 0 0 0
OS2TypoAscent: 746
OS2TypoAOffset: 0
OS2TypoDescent: 336
OS2TypoDOffset: 0
OS2TypoLinegap: 0
OS2WinAscent: 844
OS2WinAOffset: 0
OS2WinDescent: 394
OS2WinDOffset: 0
HheadAscent: 746
HheadAOffset: 0
HheadDescent: -336
HheadDOffset: 0
OS2SubXSize: 700
OS2SubYSize: 650
OS2SubXOff: 0
OS2SubYOff: 143
OS2SupXSize: 700
OS2SupYSize: 650
OS2SupXOff: 0
OS2SupYOff: 453
OS2StrikeYSize: 50
OS2StrikeYPos: 259
OS2Vendor: 'Alts'
OS2UnicodeRanges: 00000000.00000000.00000000.00000000
Lookup: 1 1 0 "'init' Initial Forms lookup 0" { "'init' Initial Forms lookup 0-1" ("init") } []
Lookup: 1 1 0 "'medi' Medial Forms lookup 1" { "'medi' Medial Forms lookup 1-1" ("med") } []
Lookup: 1 1 0 "'fina' Terminal Forms lookup 2" { "'fina' Terminal Forms lookup 2-1" ("fin") } []
Lookup: 259 9 0 "'curs' Cursive Attachment lookup 0" { "'curs' Cursive Attachment lookup 0-1"  } ['curs' ('DFLT' <'dflt' > 'latn' <'dflt' > 'syrc' <'dflt' > ) ]
MarkAttachClasses: 1
DEI: 91125
TtTable: prep
NPUSHB
 14
 49
 49
 48
 48
 23
 23
 9
 9
 1
 1
 25
 25
 69
 1
SCANTYPE
PUSHW_1
 511
SCANCTRL
SROUND
RCVT
ROUND[Grey]
WCVTP
RTG
PUSHB_4
 0
 1
 70
 0
CALL
PUSHB_4
 2
 1
 70
 0
CALL
PUSHB_4
 3
 23
 70
 0
CALL
PUSHB_4
 4
 1
 70
 0
CALL
PUSHB_4
 5
 1
 70
 0
CALL
PUSHB_4
 6
 1
 70
 0
CALL
PUSHB_4
 7
 1
 70
 0
CALL
PUSHB_4
 8
 23
 70
 0
CALL
PUSHB_4
 10
 1
 70

StartChar: .notdef
Encoding: 1114112 -1 0
Width: 746
GlyphClass: 1
Flags: W
LayerCount: 2
Fore
SplineSet
111 75 m 1,0,-1
 111 671 l 1,1,-1
 635 671 l 1,2,-1
 635 75 l 1,3,-1
 111 75 l 1,0,-1
598 111 m 1,4,-1
 598 635 l 1,5,-1
 148 635 l 1,6,-1
 148 111 l 1,7,-1
 598 111 l 1,4,-1
EndSplineSet
EndChar

StartChar: exclam
Encoding: 33 33 2
Width: 228
GlyphClass: 1
Flags: W
LayerCount: 2
Fore
SplineSet
120 190 m 1,0,-1
 127 261 l 2,1,2
 127 283 127 283 126 305 c 0,3,4
 124 327 124 327 124 350 c 0,5,6
 124 370 124 370 122.5 387.5 c 128,-1,7
 121 405 121 405 116 421 c 1,8,-1
 174 464 l 1,9,10
 176 458 176 458 178.5 448 c 128,-1,11
 181 438 181 438 181 431 c 2,12,-1
 181 414 l 2,13,14
 181 371 181 371 180 349.5 c 128,-1,15
 179 328 179 328 173 298 c 2,16,-1
 159 213 l 1,17,-1
 120 190 l 1,0,-1
135 40 m 1,18,-1
 94 91 l 1,19,-1
 140 144 l 1,20,-1
 183 91 l 1,21,-1
 135 40 l 1,18,-1
EndSplineSet
EndChar

StartChar: quotedbl
Encoding: 34 34 3
Width: 326
GlyphClass: 1
Flags: W
LayerCount: 2
Fore
SplineSet
257 375 m 1,0,1
 267 396 267 396 277.5 418 c 128,-1,2
 288 440 288 440 293 462 c 2,3,-1
 297 484 l 2,4,5
 299 494 299 494 300.5 504 c 128,-1,6
 302 514 302 514 302 523 c 0,7,8
 302 548 302 548 291 562 c 1,9,-1
 344 622 l 1,10,11
 358 614 358 614 364.5 598.5 c 128,-1,12
 371 583 371 583 371 563 c 0,13,14
 371 551 371 551 368 539 c 0,15,16
 358 489 358 489 316 426 c 0,17,18
 298 397 298 397 272 361 c 1,19,-1
 257 375 l 1,0,1
134 361 m 1,20,21
 134 360 134 360 121 374 c 1,22,23
 139 408 139 408 148.5 429.5 c 0,24,25
 158 450 158 450 161 466 c 2,26,-1
 166 490 l 2,27,28
 168 501 168 501 168 507.5 c 128,-1,29
 168 514 168 514 168 522 c 0,30,31
 168 536 168 536 166 544 c 128,-1,32
 164 552 164 552 157 562 c 1,33,-1
 209 624 l 1,34,35
 220 616 220 616 226 603 c 128,-1,36
 232 590 232 590 234 580 c 128,-1,37
 236 570 236 570 236 559 c 0,38,39
 236 550 236 550 234 539 c 2,40,-1
 228 517 l 1,41,42
 214 479 214 479 188 437 c 0,43,44
 176 419 176 419 134 361 c 1,20,21
EndSplineSet
EndChar

StartChar: numbersign
Encoding: 35 35 4
Width: 403
GlyphClass: 1
Flags: W
LayerCount: 2
Fore
SplineSet
277 48 m 1,0,-1
 243 48 l 1,1,2
 244 48 244 48 268 172 c 1,3,-1
 188 172 l 1,4,-1
 165 48 l 1,5,-1
 131 48 l 1,6,-1
 154 172 l 1,7,-1
 92 172 l 1,8,-1
 93 204 l 1,9,-1
 160 204 l 1,10,-1
 176 280 l 1,11,-1
 112 280 l 1,12,-1
 114 313 l 1,13,-1
 183 313 l 1,14,-1
 204 428 l 1,15,-1
 238 428 l 1,16,-1
 216 313 l 1,17,-1
 292 313 l 1,18,-1
 315 428 l 1,19,20
 316 428 316 428 348 428 c 1,21,-1
 327 313 l 1,22,-1
 383 313 l 1,23,-1
 381 280 l 1,24,-1
 321 280 l 1,25,-1
 306 204 l 1,26,-1
 364 204 l 1,27,-1
 363 172 l 1,28,-1
 300 172 l 1,29,-1
 277 48 l 1,0,-1
195 204 m 1,30,-1
 273 204 l 1,31,32
 274 204 274 204 288 280 c 1,33,-1
 209 280 l 1,34,-1
 195 204 l 1,30,-1
EndSplineSet
EndChar

StartChar: dollar
Encoding: 36 36 5
Width: 415
GlyphClass: 1
Flags: W
LayerCount: 2
Fore
SplineSet
215 -1 m 1,0,1
 214 -1 214 -1 216 47 c 1,2,3
 173 52 173 52 152 56 c 0,4,5
 118 64 118 64 95 79 c 1,6,7
 94 79 94 79 136 131 c 1,8,9
 148 124 148 124 160 119 c 0,10,11
 185 109 185 109 208 108 c 2,12,-1
 219 109 l 1,13,14
 219 110 219 110 223 224 c 1,15,16
 208 231 208 231 200 235 c 0,17,18
 189 241 189 241 180.5 247.5 c 128,-1,19
 172 254 172 254 169 256 c 0,20,21
 161 262 161 262 159 264 c 0,22,23
 141 278 141 278 129.5 295.5 c 128,-1,24
 118 313 118 313 118 334 c 0,25,26
 118 338 118 338 120 348 c 2,27,-1
 119 353 l 1,28,29
 122 367 122 367 132 384 c 0,30,31
 146 408 146 408 175 424 c 0,32,33
 199 438 199 438 230 444 c 1,34,-1
 232 498 l 1,35,-1
 264 508 l 1,36,-1
 262 447 l 1,37,38
 324 447 324 447 374 428 c 1,39,-1
 340 374 l 1,40,41
 321 383 321 383 300.5 388.5 c 128,-1,42
 280 394 280 394 259 394 c 1,43,-1
 256 286 l 1,44,45
 263 283 263 283 276 276 c 0,46,47
 294 266 294 266 312 256 c 0,48,49
 324 248 324 248 336 240 c 0,50,51
 346 232 346 232 354.5 221 c 128,-1,52
 363 210 363 210 367.5 200.5 c 128,-1,53
 372 191 372 191 372 179 c 0,54,55
 372 174 372 174 372 172 c 0,56,57
 368 152 368 152 364 141.5 c 128,-1,58
 360 131 360 131 354 121 c 0,59,60
 338 95 338 95 309 76.5 c 128,-1,61
 280 58 280 58 248 50 c 1,62,-1
 246 12 l 1,63,-1
 215 -1 l 1,0,1
249 105 m 1,64,65
 263 105 263 105 281 109 c 0,66,67
 301 115 301 115 310 121.5 c 0,68,69
 318 128 318 128 320 136 c 0,70,71
 322 149 322 149 320 154 c 0,72,73
 314 174 314 174 284 191 c 0,74,75
 269 200 269 200 254 208 c 1,76,-1
 249 105 l 1,64,65
225 304 m 1,77,-1
 229 394 l 1,78,79
 228 394 228 394 216 394 c 1,80,81
 191 390 191 390 185 388 c 0,82,83
 167 382 167 382 165 368 c 0,84,85
 164 362 164 362 164 360 c 0,86,87
 164 356 164 356 166 352 c 0,88,89
 172 336 172 336 191 324 c 0,90,91
 193 322 193 322 225 304 c 1,77,-1
EndSplineSet
EndChar

StartChar: percent
Encoding: 37 37 6
Width: 602
GlyphClass: 1
Flags: W
LayerCount: 2
Fore
SplineSet
230 38 m 1,0,-1
 202 38 l 1,1,-1
 417 398 l 1,2,3
 382 382 382 382 346 382 c 0,4,5
 332 382 332 382 315 386 c 1,6,7
 317 376 317 376 318 363 c 0,8,9
 318 349 318 349 314 329 c 2,10,-1
 311 315 l 1,11,12
 297 276 297 276 264.5 244.5 c 128,-1,13
 232 213 232 213 195 213 c 1,14,15
 195 212 195 212 179 214 c 2,16,17
 157 219 157 219 142 236 c 0,18,19
 127 252 127 252 127 274 c 0,20,21
 127 278 127 278 128 286 c 2,22,-1
 133 313 l 2,23,24
 135 322 135 322 137 328 c 128,-1,25
 139 334 139 334 143 342 c 0,26,27
 157 368 157 368 176 387.5 c 128,-1,28
 195 407 195 407 216.5 417 c 128,-1,29
 238 427 238 427 259 427 c 0,30,31
 282 427 282 427 294 418 c 0,32,33
 297 416 297 416 306 408 c 0,34,35
 312 403 312 403 315 402 c 0,36,37
 335 394 335 394 354 394 c 0,38,39
 377 394 377 394 401 405 c 128,-1,40
 425 416 425 416 438 435 c 1,41,42
 438 434 438 434 467 434 c 1,43,-1
 230 38 l 1,0,-1
301 390 m 1,44,45
 295 392 295 392 277 403 c 0,46,47
 267 409 267 409 263 411 c 0,48,49
 256 411 256 411 246 404 c 0,50,51
 216 386 216 386 196 350 c 0,52,53
 181 321 181 321 172 280 c 0,54,55
 171 277 171 277 171 270 c 0,56,57
 171 255 171 255 179 244.5 c 128,-1,58
 187 234 187 234 200 234 c 2,59,-1
 217 234 l 2,60,61
 227 236 227 236 233 239.5 c 128,-1,62
 239 243 239 243 251 252 c 0,63,64
 270 267 270 267 283 288.5 c 128,-1,65
 296 310 296 310 302 336 c 0,66,67
 305 349 305 349 305 365 c 0,68,69
 305 376 305 376 301 390 c 1,44,45
539 186 m 2,70,-1
 536 171 l 1,71,-1
 532 147 l 1,72,73
 521 106 521 106 490 74 c 0,74,75
 456 39 456 39 419 39 c 0,76,77
 389 39 389 39 368 57.5 c 128,-1,78
 347 76 347 76 347 104 c 0,79,80
 347 109 347 109 348 117 c 2,81,-1
 352 138 l 2,82,83
 356 155 356 155 364 173 c 0,84,85
 369 180 369 180 372 185 c 128,-1,86
 375 190 375 190 379 194 c 0,87,88
 397 220 397 220 426.5 235.5 c 128,-1,89
 456 251 456 251 487 251 c 0,90,91
 509 251 509 251 524 234.5 c 128,-1,92
 539 218 539 218 539 196 c 0,93,94
 540 189 540 189 539 186 c 2,70,-1
523 186 m 0,95,96
 524 188 524 188 523 194 c 0,97,98
 523 211 523 211 513 222.5 c 128,-1,99
 503 234 503 234 485 234 c 0,100,101
 478 234 478 234 469.5 231 c 128,-1,102
 461 228 461 228 455 224 c 0,103,104
 435 210 435 210 419.5 182 c 128,-1,105
 404 154 404 154 392 97 c 0,106,107
 389 82 389 82 399 69.5 c 128,-1,108
 409 57 409 57 426 57 c 0,109,110
 445 57 445 57 463 68 c 0,111,112
 489 86 489 86 503 121 c 0,113,114
 515 146 515 146 523 186 c 0,95,96
EndSplineSet
EndChar

StartChar: ampersand
Encoding: 38 38 7
Width: 701
GlyphClass: 1
Flags: W
LayerCount: 2
Fore
SplineSet
232 340 m 1,0,1
 208 320 208 320 194 286 c 0,2,3
 183 261 183 261 174 222 c 0,4,5
 173 218 173 218 174 210 c 0,6,7
 174 200 174 200 176.5 191.5 c 128,-1,8
 179 183 179 183 185 172 c 0,9,10
 200 143 200 143 220 126 c 0,11,12
 245 104 245 104 278 101 c 2,13,-1
 290 100 l 2,14,15
 314 100 314 100 336.5 109 c 128,-1,16
 359 118 359 118 377 137 c 1,17,18
 311 215 311 215 298 233 c 0,19,20
 254 291 254 291 232 340 c 1,0,1
269 396 m 1,21,-1
 296 418 l 2,22,23
 310 431 310 431 316 439 c 0,24,25
 329 457 329 457 333 476 c 0,26,27
 335 482 335 482 334.5 493 c 128,-1,28
 334 504 334 504 334 510 c 0,29,30
 332 524 332 524 328 532 c 0,31,32
 321 543 321 543 310 543 c 256,33,34
 299 543 299 543 288 537.5 c 128,-1,35
 277 532 277 532 268.5 520 c 128,-1,36
 260 508 260 508 257.5 496 c 128,-1,37
 255 484 255 484 255 472 c 0,38,39
 255 455 255 455 260 432 c 0,40,41
 262 422 262 422 269 396 c 1,21,-1
403 122 m 1,42,43
 369 98 369 98 329.5 84.5 c 128,-1,44
 290 71 290 71 252 71 c 0,45,46
 217 71 217 71 187.5 83 c 128,-1,47
 158 95 158 95 140 120 c 0,48,49
 114 152 114 152 114 182 c 0,50,51
 114 188 114 188 115 196 c 0,52,53
 125 246 125 246 152.5 287.5 c 128,-1,54
 180 329 180 329 224 359 c 1,55,56
 216 378 216 378 211 399 c 128,-1,57
 206 420 206 420 206 443 c 0,58,59
 206 461 206 461 210 475 c 0,60,61
 216 504 216 504 237 531 c 0,62,63
 251 550 251 550 277.5 561 c 128,-1,64
 304 572 304 572 344 572 c 0,65,66
 356 572 356 572 364.5 564.5 c 128,-1,67
 373 557 373 557 377 544 c 0,68,69
 386 520 386 520 386 501 c 0,70,71
 386 491 386 491 383 482 c 0,72,73
 376 446 376 446 330 410 c 0,74,75
 317 400 317 400 276 372 c 1,76,77
 295 314 295 314 333 264 c 0,78,79
 368 216 368 216 418 178 c 1,80,81
 443 211 443 211 450 244 c 0,82,83
 452 256 452 256 453 268 c 0,84,85
 453 290 453 290 443.5 305 c 128,-1,86
 434 320 434 320 419 323 c 2,87,-1
 391 324 l 2,88,89
 388 324 388 324 385.5 328 c 128,-1,90
 383 332 383 332 382 335 c 2,91,-1
 382 341 l 2,92,93
 383 344 383 344 386 348 c 0,94,95
 387 349 387 349 389 350 c 2,96,-1
 431 348 l 2,97,98
 441 347 441 347 463 346 c 128,-1,99
 485 345 485 345 503 345 c 2,100,-1
 570 345 l 2,101,102
 574 345 574 345 575 343 c 128,-1,103
 576 341 576 341 576 331 c 2,104,-1
 574 324 l 2,105,106
 573 321 573 321 571.5 318.5 c 128,-1,107
 570 316 570 316 569 316 c 2,108,-1
 548 316 l 2,109,110
 543 316 543 316 533.5 317.5 c 128,-1,111
 524 319 524 319 518 319 c 0,112,113
 504 319 504 319 497 312 c 0,114,115
 494 310 494 310 490 298 c 2,116,-1
 489 292 l 2,117,118
 487 287 487 287 486 272 c 0,119,120
 482 244 482 244 481 240 c 0,121,122
 478 225 478 225 472 210.5 c 128,-1,123
 466 196 466 196 454 178 c 0,124,125
 451 171 451 171 447.5 166 c 128,-1,126
 444 161 444 161 442 158 c 1,127,128
 468 137 468 137 487 125 c 0,129,130
 517 107 517 107 541 108 c 0,131,132
 554 108 554 108 563.5 111.5 c 128,-1,133
 573 115 573 115 577.5 120 c 128,-1,134
 582 125 582 125 587 136 c 2,135,-1
 598 152 l 1,136,-1
 601 154 l 1,137,-1
 608 153 l 2,138,139
 615 151 615 151 614 144 c 2,140,-1
 604 119 l 2,141,142
 594 96 594 96 570.5 80 c 128,-1,143
 547 64 547 64 523 64 c 0,144,145
 489 64 489 64 457 81 c 0,146,147
 432 95 432 95 403 122 c 1,42,43
EndSplineSet
EndChar

StartChar: quotesingle
Encoding: 39 39 8
Width: 161
GlyphClass: 1
Flags: W
LayerCount: 2
Fore
SplineSet
117 361 m 1,0,1
 117 360 117 360 104 374 c 1,2,3
 115 396 115 396 127.5 421 c 128,-1,4
 140 446 140 446 144 466 c 2,5,-1
 147 491 l 2,6,7
 151 511 151 511 151 527 c 0,8,9
 151 540 151 540 149 547 c 128,-1,10
 147 554 147 554 140 562 c 1,11,-1
 192 624 l 1,12,13
 219 602 219 602 220 562 c 0,14,15
 220 551 220 551 217 539 c 0,16,17
 207 492 207 492 162 426 c 0,18,19
 139 394 139 394 117 361 c 1,0,1
EndSplineSet
EndChar

StartChar: parenleft
Encoding: 40 40 9
Width: 333
GlyphClass: 1
Flags: W
LayerCount: 2
Fore
SplineSet
283 -123 m 1,0,1
 185 -80 185 -80 126 20 c 128,-1,2
 67 120 67 120 67 241 c 0,3,4
 67 361 67 361 118 453 c 0,5,6
 173 550 173 550 283 603 c 1,7,-1
 283 587 l 1,8,9
 198 529 198 529 169 457 c 0,10,11
 156 422 156 422 149 367 c 128,-1,12
 142 312 142 312 142 241 c 0,13,14
 142 119 142 119 177 24.5 c 128,-1,15
 212 -70 212 -70 283 -109 c 1,16,-1
 283 -123 l 1,0,1
EndSplineSet
EndChar

StartChar: parenright
Encoding: 41 41 10
Width: 333
GlyphClass: 1
Flags: W
LayerCount: 2
Fore
SplineSet
49 587 m 1,0,-1
 49 603 l 1,1,2
 158 550 158 550 214 453 c 0,3,4
 265 362 265 362 265 241 c 0,5,6
 265 119 265 119 206 20.5 c 128,-1,7
 147 -78 147 -78 49 -123 c 1,8,-1
 49 -109 l 1,9,10
 118 -71 118 -71 156 28 c 0,11,12
 190 117 190 117 190 241 c 0,13,14
 190 382 190 382 163 453 c 0,15,16
 135 530 135 530 49 587 c 1,0,-1
EndSplineSet
EndChar

StartChar: asterisk
Encoding: 42 42 11
Width: 359
GlyphClass: 1
Flags: W
LayerCount: 2
Fore
SplineSet
246 345 m 1,0,1
 246 327 246 327 251 307 c 0,2,3
 253 303 253 303 264 283 c 0,4,5
 273 268 273 268 270 257 c 0,6,7
 267 245 267 245 257.5 236 c 128,-1,8
 248 227 248 227 237 227 c 0,9,10
 223 227 223 227 212.5 235.5 c 128,-1,11
 202 244 202 244 206 257 c 2,12,-1
 208 268 l 1,13,14
 222 303 222 303 235 339 c 1,15,-1
 237 345 l 1,16,17
 230 341 230 341 223.5 336.5 c 128,-1,18
 217 332 217 332 213 327 c 0,19,20
 195 303 195 303 186 292 c 0,21,22
 170 272 170 272 156 272 c 0,23,24
 140 272 140 272 130 282.5 c 0,25,26
 120 294 120 294 123 308 c 0,27,28
 125 321 125 321 132 327.5 c 128,-1,29
 139 334 139 334 154 337 c 0,30,31
 180 341 180 341 196.5 343.5 c 128,-1,32
 213 346 213 346 232 352 c 1,33,-1
 220 359 l 2,34,35
 210 363 210 363 198.5 365.5 c 128,-1,36
 187 368 187 368 176 368 c 2,37,-1
 157 368 l 2,38,39
 144 371 144 371 136 378 c 0,40,41
 126 387 126 387 128 399 c 2,42,-1
 129 406 l 1,43,-1
 130 410 l 2,44,45
 132 419 132 419 142.5 427 c 128,-1,46
 153 435 153 435 163 435 c 0,47,48
 167 435 167 435 172.5 432.5 c 128,-1,49
 178 430 178 430 182 427 c 0,50,51
 208 394 208 394 235 362 c 1,52,53
 236 366 236 366 234 376 c 2,54,-1
 230 401 l 2,55,56
 228 407 228 407 218.5 423.5 c 128,-1,57
 209 440 209 440 210 448 c 1,58,-1
 212 451 l 1,59,60
 214 463 214 463 224 471.5 c 128,-1,61
 234 480 234 480 246 480 c 0,62,63
 260 480 260 480 270 472 c 128,-1,64
 280 464 280 464 277 451 c 2,65,-1
 274 439 l 2,66,67
 269 428 269 428 262 412 c 0,68,69
 248 381 248 381 245 366 c 1,70,-1
 245 362 l 1,71,-1
 257 370 l 2,72,73
 264 376 264 376 290 409 c 0,74,75
 310 435 310 435 327 435 c 0,76,77
 341 435 341 435 350.5 424 c 0,78,79
 360 414 360 414 357 400 c 0,80,81
 355 388 355 388 350.5 381.5 c 128,-1,82
 346 375 346 375 336 372 c 128,-1,83
 326 369 326 369 296.5 366 c 128,-1,84
 267 363 267 363 250 354 c 1,85,86
 260 350 260 350 269 346.5 c 128,-1,87
 278 343 278 343 286 341 c 2,88,-1
 312 339 l 2,89,90
 330 339 330 339 343.5 331 c 128,-1,91
 357 323 357 323 354 307 c 0,92,93
 352 295 352 295 342 283.5 c 128,-1,94
 332 272 332 272 320 272 c 0,95,96
 306 272 306 272 295 285 c 0,97,98
 276 311 276 311 266 323.5 c 128,-1,99
 256 336 256 336 246 345 c 1,0,1
EndSplineSet
EndChar

StartChar: plus
Encoding: 43 43 12
Width: 514
GlyphClass: 1
Flags: W
LayerCount: 2
Fore
SplineSet
226 307 m 1,0,-1
 226 465 l 1,1,-1
 274 465 l 1,2,-1
 274 307 l 1,3,-1
 432 307 l 1,4,-1
 432 259 l 1,5,-1
 274 259 l 1,6,-1
 274 101 l 1,7,-1
 226 101 l 1,8,-1
 226 259 l 1,9,-1
 68 259 l 1,10,-1
 68 307 l 1,11,-1
 226 307 l 1,0,-1
EndSplineSet
EndChar

StartChar: comma
Encoding: 44 44 13
Width: 172
GlyphClass: 1
Flags: W
LayerCount: 2
Fore
SplineSet
35 -75 m 1,0,-1
 22 -62 l 1,1,-1
 49 -12 l 2,2,3
 54 -2 54 -2 59 13 c 128,-1,4
 64 28 64 28 66.5 42.5 c 128,-1,5
 69 57 69 57 69.5 64 c 128,-1,6
 70 71 70 71 70 76 c 0,7,8
 70 101 70 101 60 122 c 1,9,-1
 114 183 l 1,10,11
 124 171 124 171 130.5 153 c 128,-1,12
 137 135 137 135 137 116 c 0,13,14
 137 110 137 110 135.5 101.5 c 128,-1,15
 134 93 134 93 134 89 c 0,16,17
 130 63 130 63 114 41 c 2,18,-1
 35 -75 l 1,0,-1
EndSplineSet
EndChar

StartChar: hyphen
Encoding: 45 45 14
Width: 514
GlyphClass: 1
Flags: W
LayerCount: 2
Fore
SplineSet
432 307 m 1,0,-1
 432 259 l 1,1,-1
 68 259 l 1,2,-1
 68 307 l 1,3,-1
 432 307 l 1,0,-1
EndSplineSet
EndChar

StartChar: period
Encoding: 46 46 15
Width: 564
GlyphClass: 1
Flags: W
LayerCount: 2
Fore
SplineSet
203 50 m 256,0,1
 203 28 203 28 188 14 c 128,-1,2
 173 0 173 0 151 -0 c 256,3,4
 129 0 129 0 115 14.5 c 128,-1,5
 101 29 101 29 101 50 c 256,6,7
 101 72 101 72 115.5 87 c 128,-1,8
 130 102 130 102 151 102 c 256,9,10
 173 102 173 102 188 87 c 128,-1,11
 203 72 203 72 203 50 c 256,0,1
EndSplineSet
EndChar

StartChar: slash
Encoding: 47 47 16
Width: 161
GlyphClass: 1
Flags: W
LayerCount: 2
Fore
SplineSet
65 39 m 1,0,-1
 31 39 l 1,1,-1
 158 425 l 1,2,-1
 192 425 l 1,3,-1
 65 39 l 1,0,-1
EndSplineSet
EndChar

StartChar: zero
Encoding: 48 48 17
Width: 457
GlyphClass: 1
Flags: W
LayerCount: 2
Fore
SplineSet
397 302 m 0,0,1
 397 209 397 209 365 141 c 0,2,3
 320 47 320 47 229 47 c 256,4,5
 138 47 138 47 93 140 c 0,6,7
 59 210 59 210 59 302 c 256,8,9
 59 393 59 393 92 462 c 0,10,11
 138 557 138 557 229 557 c 0,12,13
 319 557 319 557 364 463 c 0,14,15
 397 393 397 393 397 302 c 0,0,1
319 302 m 0,16,17
 319 384 319 384 308 435 c 0,18,19
 287 532 287 532 229 532 c 0,20,21
 183 532 183 532 160 474 c 128,-1,22
 137 416 137 416 137 302 c 0,23,24
 137 215 137 215 148 166 c 0,25,26
 170 72 170 72 229 72 c 0,27,28
 274 72 274 72 296.5 129.5 c 128,-1,29
 319 187 319 187 319 302 c 0,16,17
EndSplineSet
EndChar

StartChar: one
Encoding: 49 49 18
Width: 457
GlyphClass: 1
Flags: W
LayerCount: 2
Fore
SplineSet
338 58 m 1,0,-1
 129 58 l 1,1,-1
 129 77 l 1,2,3
 168 77 168 77 181 84 c 0,4,5
 199 94 199 94 198 130 c 2,6,-1
 198 462 l 2,7,8
 198 476 198 476 195 484 c 128,-1,9
 192 492 192 492 177 492 c 0,10,11
 169 492 169 492 165 490 c 0,12,13
 147 482 147 482 124 474 c 1,14,-1
 124 493 l 1,15,16
 124 492 124 492 258 558 c 1,17,-1
 269 557 l 1,18,-1
 269 115 l 2,19,20
 269 92 269 92 282.5 84.5 c 128,-1,21
 296 77 296 77 338 77 c 1,22,-1
 338 58 l 1,0,-1
EndSplineSet
EndChar

StartChar: two
Encoding: 50 50 19
Width: 457
GlyphClass: 1
Flags: W
LayerCount: 2
Fore
SplineSet
397 164 m 1,0,-1
 356 58 l 1,1,-1
 64 58 l 1,2,-1
 65 72 l 1,3,-1
 195 210 l 2,4,5
 288 311 288 311 288 398 c 0,6,7
 288 436 288 436 270 461 c 0,8,9
 244 497 244 497 189 497 c 0,10,11
 146 496 146 496 120 466 c 0,12,13
 104 446 104 446 86 402 c 1,14,-1
 65 408 l 1,15,16
 80 488 80 488 128 526 c 0,17,18
 167 558 167 558 223 558 c 0,19,20
 276 558 276 558 316 523 c 0,21,22
 358 485 358 485 359 424 c 0,23,24
 358 372 358 372 324 317 c 0,25,26
 306 289 306 289 265 244 c 2,27,-1
 148 120 l 1,28,-1
 314 120 l 2,29,30
 336 120 336 120 347 127 c 0,31,32
 361 137 361 137 383 170 c 1,33,-1
 397 164 l 1,0,-1
EndSplineSet
EndChar

StartChar: three
Encoding: 51 51 20
Width: 457
GlyphClass: 1
Flags: W
LayerCount: 2
Fore
SplineSet
363 219 m 0,0,1
 363 141 363 141 304.5 94 c 128,-1,2
 246 47 246 47 156 47 c 0,3,4
 116 47 116 47 93.5 59 c 128,-1,5
 71 71 71 71 71 92 c 0,6,7
 71 108 71 108 81 115 c 128,-1,8
 91 122 91 122 103 122 c 256,9,10
 115 122 115 122 164 93 c 0,11,12
 187 79 187 79 207 80 c 0,13,14
 253 80 253 80 279 114 c 0,15,16
 301 144 301 144 302 189 c 0,17,18
 302 203 302 203 297 220 c 0,19,20
 284 264 284 264 248 280 c 0,21,22
 230 291 230 291 210 295 c 128,-1,23
 190 299 190 299 152 299 c 1,24,-1
 151 314 l 1,25,26
 207 332 207 332 237 359 c 0,27,28
 272 390 272 390 272 435 c 0,29,30
 272 465 272 465 254 484 c 0,31,32
 233 507 233 507 195 508 c 0,33,34
 154 508 154 508 124 478 c 0,35,36
 106 460 106 460 90 428 c 1,37,-1
 71 433 l 1,38,39
 94 502 94 502 139 533 c 0,40,41
 174 557 174 557 219 557 c 0,42,43
 284 557 284 557 315 519 c 0,44,45
 337 492 337 492 338 455 c 0,46,47
 338 427 338 427 323 403 c 128,-1,48
 308 379 308 379 273 355 c 1,49,50
 312 337 312 337 332 313 c 0,51,52
 363 277 363 277 363 219 c 0,0,1
EndSplineSet
EndChar

StartChar: four
Encoding: 52 52 21
Width: 457
GlyphClass: 1
Flags: W
LayerCount: 2
Fore
SplineSet
394 180 m 1,0,-1
 318 180 l 1,1,-1
 318 58 l 1,2,-1
 256 58 l 1,3,-1
 256 180 l 1,4,-1
 50 180 l 1,5,-1
 51 232 l 1,6,-1
 281 558 l 1,7,-1
 318 558 l 1,8,-1
 318 234 l 1,9,-1
 394 234 l 1,10,-1
 394 180 l 1,0,-1
255 234 m 1,11,-1
 255 467 l 1,12,-1
 252 467 l 1,13,-1
 89 234 l 1,14,-1
 255 234 l 1,11,-1
EndSplineSet
EndChar

StartChar: five
Encoding: 53 53 22
Width: 457
GlyphClass: 1
Flags: W
LayerCount: 2
Fore
SplineSet
367 561 m 1,0,-1
 338 494 l 2,1,2
 337 490 337 490 333 487 c 128,-1,3
 329 484 329 484 319 484 c 2,4,-1
 177 484 l 1,5,-1
 151 429 l 1,6,7
 213 417 213 417 241 406 c 0,8,9
 288 388 288 388 316 353 c 0,10,11
 342 323 342 323 350.5 298.5 c 128,-1,12
 359 274 359 274 359 226 c 0,13,14
 359 152 359 152 302.5 100 c 128,-1,15
 246 48 246 48 158 48 c 0,16,17
 114 48 114 48 88 62 c 128,-1,18
 62 76 62 76 62 96 c 0,19,20
 62 108 62 108 66 115 c 0,21,22
 74 129 74 129 96 128 c 0,23,24
 117 128 117 128 162 98 c 0,25,26
 184 84 184 84 202 84 c 0,27,28
 240 84 240 84 268 114 c 0,29,30
 299 148 299 148 299 208 c 0,31,32
 299 285 299 285 226 326 c 0,33,34
 168 359 168 359 96 359 c 0,35,36
 86 359 86 359 86 368 c 0,37,38
 87 372 87 372 88 373 c 2,39,-1
 169 549 l 1,40,-1
 324 549 l 2,41,42
 341 549 341 549 355 571 c 1,43,-1
 367 561 l 1,0,-1
EndSplineSet
EndChar

StartChar: six
Encoding: 54 54 23
Width: 457
GlyphClass: 1
Flags: W
LayerCount: 2
Fore
SplineSet
392 220 m 0,0,1
 392 160 392 160 362 114 c 0,2,3
 320 48 320 48 232 48 c 0,4,5
 162 48 162 48 117 102 c 0,6,7
 68 163 68 163 68 274 c 0,8,9
 68 391 68 391 152 476 c 0,10,11
 242 565 242 565 376 564 c 1,12,-1
 378 547 l 1,13,14
 289 533 289 533 231 474 c 0,15,16
 178 422 178 422 163 348 c 1,17,18
 193 366 193 366 210 371.5 c 128,-1,19
 227 377 227 377 253 377 c 0,20,21
 314 377 314 377 353 335.5 c 128,-1,22
 392 294 392 294 392 220 c 0,0,1
318 192 m 0,23,24
 318 256 318 256 299 292 c 0,25,26
 275 337 275 337 223 337 c 0,27,28
 203 337 203 337 186 332 c 0,29,30
 170 327 170 327 156 315 c 0,31,32
 150 309 150 309 146.5 293 c 128,-1,33
 143 277 143 277 143 248 c 0,34,35
 143 162 143 162 173 116 c 0,36,37
 200 74 200 74 244 75 c 0,38,39
 278 75 278 75 298 104.5 c 128,-1,40
 318 134 318 134 318 192 c 0,23,24
EndSplineSet
EndChar

StartChar: seven
Encoding: 55 55 24
Width: 457
GlyphClass: 1
Flags: W
LayerCount: 2
Fore
SplineSet
375 533 m 1,0,-1
 219 50 l 1,1,-1
 164 50 l 1,2,-1
 309 486 l 1,3,-1
 155 486 l 2,4,5
 124 486 124 486 105 471 c 0,6,7
 94 461 94 461 71 425 c 1,8,-1
 53 435 l 1,9,10
 53 434 53 434 86 512 c 1,11,-1
 99 547 l 1,12,-1
 375 547 l 1,13,-1
 375 533 l 1,0,-1
EndSplineSet
EndChar

StartChar: eight
Encoding: 56 56 25
Width: 457
GlyphClass: 1
Flags: W
LayerCount: 2
Fore
SplineSet
374 170 m 0,0,1
 374 127 374 127 346 94 c 0,2,3
 307 47 307 47 225 47 c 0,4,5
 159 47 159 47 119 85 c 0,6,7
 83 119 83 119 83 167 c 0,8,9
 83 218 83 218 118 253 c 0,10,11
 133 268 133 268 176 303 c 1,12,13
 124 348 124 348 108 370 c 0,14,15
 86 400 86 400 86 440 c 0,16,17
 86 494 86 494 133 528 c 0,18,19
 175 558 175 558 228 557 c 0,20,21
 290 557 290 557 324 526.5 c 128,-1,22
 358 496 358 496 358 451 c 0,23,24
 358 418 358 418 341 392 c 0,25,26
 321 362 321 362 266 331 c 1,27,28
 332 282 332 282 354 243 c 0,29,30
 374 211 374 211 374 170 c 0,0,1
301 453 m 0,31,32
 300 485 300 485 282 506 c 0,33,34
 260 530 260 530 222 530 c 0,35,36
 186 530 186 530 167.5 509 c 128,-1,37
 149 488 149 488 149 460 c 0,38,39
 149 425 149 425 181 392 c 0,40,41
 199 373 199 373 236 348 c 1,42,43
 266 370 266 370 279 386 c 0,44,45
 301 414 301 414 301 453 c 0,31,32
312 153 m 0,46,47
 312 195 312 195 273 230 c 0,48,49
 259 243 259 243 202 284 c 1,50,51
 178 264 178 264 165 245 c 0,52,53
 146 215 146 215 146 175 c 0,54,55
 146 132 146 132 170 103 c 128,-1,56
 194 74 194 74 235 74 c 0,57,58
 268 74 268 74 290 95 c 128,-1,59
 312 116 312 116 312 153 c 0,46,47
EndSplineSet
EndChar

StartChar: nine
Encoding: 57 57 26
Width: 457
GlyphClass: 1
Flags: W
LayerCount: 2
Fore
SplineSet
383 349 m 0,0,1
 383 223 383 223 306 135 c 0,2,3
 222 38 222 38 85 38 c 1,4,-1
 82 62 l 1,5,6
 170 78 170 78 229.5 138 c 128,-1,7
 289 198 289 198 301 263 c 1,8,9
 256 229 256 229 198 230 c 0,10,11
 129 230 129 230 93 280 c 0,12,13
 63 321 63 321 63 377 c 0,14,15
 63 455 63 455 105.5 505.5 c 128,-1,16
 148 556 148 556 220 556 c 0,17,18
 290 556 290 556 336.5 498.5 c 128,-1,19
 383 441 383 441 383 349 c 0,0,1
305 319 m 2,20,-1
 305 347 l 2,21,22
 305 437 305 437 281.5 483 c 128,-1,23
 258 529 258 529 212 529 c 0,24,25
 172 529 172 529 153 489 c 0,26,27
 138 457 138 457 137 405 c 0,28,29
 137 334 137 334 165 297 c 0,30,31
 188 267 188 267 228 267 c 0,32,33
 243 267 243 267 263 275 c 128,-1,34
 283 283 283 283 296 292 c 0,35,36
 305 301 305 301 305 319 c 2,20,-1
EndSplineSet
EndChar

StartChar: colon
Encoding: 58 58 27
Width: 228
GlyphClass: 1
Flags: W
LayerCount: 2
Fore
SplineSet
139 39 m 1,0,1
 140 39 140 39 98 91 c 1,2,-1
 143 143 l 1,3,4
 144 143 144 143 186 91 c 1,5,-1
 139 39 l 1,0,1
150 315 m 1,6,-1
 108 368 l 1,7,-1
 153 419 l 1,8,9
 154 419 154 419 198 368 c 1,10,-1
 150 315 l 1,6,-1
EndSplineSet
EndChar

StartChar: semicolon
Encoding: 59 59 28
Width: 204
GlyphClass: 1
Flags: W
LayerCount: 2
Fore
SplineSet
144 301 m 1,0,-1
 102 352 l 1,1,-1
 146 406 l 1,2,-1
 190 354 l 1,3,-1
 144 301 l 1,0,-1
73 -50 m 1,4,-1
 61 -37 l 1,5,-1
 87 12 l 2,6,7
 102 40 102 40 106 60 c 128,-1,8
 110 80 110 80 110 98 c 0,9,10
 110 126 110 126 98 147 c 1,11,-1
 152 208 l 1,12,13
 174 176 174 176 175 138 c 0,14,15
 175 124 175 124 172 113.5 c 128,-1,16
 169 103 169 103 163.5 89.5 c 128,-1,17
 158 76 158 76 152 66 c 2,18,-1
 73 -50 l 1,4,-1
EndSplineSet
EndChar

StartChar: less
Encoding: 60 60 29
Width: 371
GlyphClass: 1
Flags: W
LayerCount: 2
Fore
SplineSet
320 115 m 1,0,-1
 97 226 l 1,1,-1
 99 268 l 1,2,-1
 330 378 l 1,3,-1
 328 336 l 1,4,-1
 143 247 l 1,5,6
 143 246 143 246 322 156 c 1,7,-1
 320 115 l 1,0,-1
EndSplineSet
EndChar

StartChar: equal
Encoding: 61 61 30
Width: 403
GlyphClass: 1
Flags: W
LayerCount: 2
Fore
SplineSet
367 185 m 1,0,-1
 107 185 l 1,1,-1
 109 226 l 1,2,-1
 369 226 l 1,3,-1
 367 185 l 1,0,-1
370 268 m 1,4,-1
 111 268 l 1,5,-1
 113 309 l 1,6,-1
 371 309 l 1,7,-1
 370 268 l 1,4,-1
EndSplineSet
EndChar

StartChar: greater
Encoding: 62 62 31
Width: 371
GlyphClass: 1
Flags: W
LayerCount: 2
Fore
SplineSet
115 115 m 1,0,1
 115 114 115 114 117 156 c 1,2,-1
 305 247 l 1,3,4
 305 246 305 246 124 336 c 1,5,-1
 126 378 l 1,6,-1
 350 268 l 1,7,-1
 348 226 l 1,8,-1
 115 115 l 1,0,1
EndSplineSet
EndChar

StartChar: question
Encoding: 63 63 32
Width: 293
GlyphClass: 1
Flags: W
LayerCount: 2
Fore
SplineSet
139 175 m 1,0,1
 136 196 136 196 135.5 205.5 c 0,2,3
 135 214 135 214 135 220 c 0,4,5
 135 238 135 238 139 253.5 c 0,6,7
 143 268 143 268 150 284 c 2,8,-1
 163 312 l 1,9,-1
 166 324 l 2,10,11
 167 328 167 328 167 334 c 0,12,13
 167 355 167 355 151 369 c 128,-1,14
 135 383 135 383 113 383 c 0,15,16
 99 383 99 383 84.5 375.5 c 128,-1,17
 70 368 70 368 57 354 c 1,18,-1
 73 432 l 1,19,20
 110 454 110 454 154 454 c 0,21,22
 190 454 190 454 215.5 432 c 128,-1,23
 241 410 241 410 241 377 c 0,24,25
 241 372 241 372 239 361 c 128,-1,26
 237 350 237 350 232 338.5 c 128,-1,27
 227 327 227 327 219 317 c 2,28,-1
 199 291 l 2,29,30
 193 284 193 284 189.5 277 c 128,-1,31
 186 270 186 270 184.5 263.5 c 128,-1,32
 183 257 183 257 183 249 c 0,33,34
 183 240 183 240 183.5 234 c 128,-1,35
 184 228 184 228 189 211 c 1,36,-1
 139 175 l 1,0,1
139 39 m 1,37,-1
 98 90 l 1,38,-1
 143 143 l 1,39,-1
 185 90 l 1,40,-1
 139 39 l 1,37,-1
EndSplineSet
EndChar

StartChar: at
Encoding: 64 64 33
Width: 832
GlyphClass: 1
Flags: W
LayerCount: 2
Fore
SplineSet
230 732 m 256,0,1
 251 732 251 732 265.5 717.5 c 0,2,3
 280 704 280 704 280 682 c 0,4,5
 280 662 280 662 265.5 647.5 c 128,-1,6
 251 633 251 633 230 633 c 0,7,8
 210 633 210 633 195 647.5 c 128,-1,9
 180 662 180 662 180 682 c 0,10,11
 180 703 180 703 194.5 717.5 c 128,-1,12
 209 732 209 732 230 732 c 256,0,1
376 732 m 256,13,14
 397 732 397 732 411.5 717.5 c 0,15,16
 426 704 426 704 426 682 c 0,17,18
 426 662 426 662 411.5 647.5 c 128,-1,19
 397 633 397 633 376 633 c 0,20,21
 356 633 356 633 341 647.5 c 128,-1,22
 326 662 326 662 326 682 c 0,23,24
 326 703 326 703 340.5 717.5 c 128,-1,25
 355 732 355 732 376 732 c 256,13,14
695 84 m 1,26,-1
 571 84 l 1,27,-1
 379 474 l 1,28,-1
 232 474 l 1,29,-1
 233 84 l 1,30,-1
 123 84 l 1,31,-1
 123 546 l 1,32,-1
 372 546 l 1,33,-1
 704 755 l 1,34,-1
 764 689 l 1,35,-1
 494 501 l 1,36,-1
 695 84 l 1,26,-1
EndSplineSet
EndChar

StartChar: A
Encoding: 65 65 34
Width: 800
GlyphClass: 1
Flags: W
LayerCount: 2
Fore
SplineSet
334 729 m 256,0,1
 355 729 355 729 369 714.5 c 128,-1,2
 383 700 383 700 383 679 c 0,3,4
 383 659 383 659 368.5 644.5 c 128,-1,5
 354 630 354 630 334 630 c 256,6,7
 314 630 314 630 298.5 644.5 c 128,-1,8
 283 659 283 659 283 679 c 0,9,10
 283 700 283 700 298 714.5 c 128,-1,11
 313 729 313 729 334 729 c 256,0,1
479 729 m 256,12,13
 500 729 500 729 514.5 714.5 c 128,-1,14
 529 700 529 700 529 679 c 0,15,16
 529 659 529 659 514.5 644.5 c 128,-1,17
 500 630 500 630 479 630 c 0,18,19
 459 630 459 630 444 644.5 c 128,-1,20
 429 659 429 659 429 679 c 0,21,22
 429 700 429 700 443.5 714.5 c 128,-1,23
 458 729 458 729 479 729 c 256,12,13
689 81 m 1,24,-1
 112 81 l 1,25,-1
 112 121 l 1,26,-1
 582 121 l 1,27,-1
 582 507 l 1,28,-1
 270 507 l 1,29,-1
 270 390 l 1,30,-1
 112 390 l 1,31,-1
 112 543 l 1,32,-1
 689 543 l 1,33,-1
 689 81 l 1,24,-1
EndSplineSet
EndChar

StartChar: B
Encoding: 66 66 35
Width: 760
GlyphClass: 1
Flags: W
LayerCount: 2
Fore
SplineSet
457 435 m 256,0,1
 478 435 478 435 492.5 420.5 c 128,-1,2
 507 406 507 406 507 384 c 0,3,4
 507 364 507 364 492.5 350 c 128,-1,5
 478 336 478 336 457 336 c 0,6,7
 437 336 437 336 422 350 c 128,-1,8
 407 364 407 364 407 384 c 0,9,10
 407 405 407 405 421.5 420 c 128,-1,11
 436 435 436 435 457 435 c 256,0,1
603 435 m 256,12,13
 624 435 624 435 638 420.5 c 128,-1,14
 652 406 652 406 652 384 c 0,15,16
 652 364 652 364 638 350 c 128,-1,17
 624 336 624 336 603 336 c 0,18,19
 583 336 583 336 567.5 350 c 128,-1,20
 552 364 552 364 552 384 c 0,21,22
 552 405 552 405 567 420 c 128,-1,23
 582 435 582 435 603 435 c 256,12,13
324 83 m 1,24,25
 324 84 324 84 201 472 c 2,26,27
 194 485 194 485 160 516 c 0,28,29
 149 526 149 526 125 547 c 1,30,31
 126 547 126 547 292 547 c 1,32,-1
 402 83 l 1,33,-1
 496 43 l 1,34,35
 508 33 508 33 612 -7 c 0,36,37
 711 -45 711 -45 729.5 -49 c 128,-1,38
 748 -53 748 -53 769 -58 c 1,39,40
 790 -66 790 -66 790 -89 c 0,41,42
 790 -119 790 -119 758 -120 c 0,43,44
 684 -120 684 -120 572 -70 c 128,-1,45
 460 -20 460 -20 403 43 c 1,46,-1
 265 43 l 1,47,-1
 265 83 l 1,48,-1
 324 83 l 1,24,25
EndSplineSet
EndChar

StartChar: C
Encoding: 67 67 36
Width: 864
GlyphClass: 1
Flags: W
LayerCount: 2
Fore
SplineSet
655 80 m 1,0,-1
 655 506 l 1,1,-1
 431 506 l 1,2,-1
 431 390 l 1,3,-1
 273 390 l 1,4,-1
 273 542 l 1,5,-1
 762 542 l 1,6,-1
 762 80 l 1,7,-1
 655 80 l 1,0,-1
477 729 m 256,8,9
 498 729 498 729 512.5 714.5 c 128,-1,10
 527 700 527 700 527 678 c 0,11,12
 527 658 527 658 512.5 644 c 128,-1,13
 498 630 498 630 477 630 c 0,14,15
 457 630 457 630 442 644 c 128,-1,16
 427 658 427 658 427 678 c 0,17,18
 427 699 427 699 441.5 714 c 128,-1,19
 456 729 456 729 477 729 c 256,8,9
623 729 m 256,20,21
 644 729 644 729 658 714.5 c 128,-1,22
 672 700 672 700 672 678 c 0,23,24
 672 658 672 658 658 644 c 128,-1,25
 644 630 644 630 623 630 c 0,26,27
 603 630 603 630 587.5 644 c 128,-1,28
 572 658 572 658 572 678 c 0,29,30
 572 699 572 699 587 714 c 128,-1,31
 602 729 602 729 623 729 c 256,20,21
EndSplineSet
EndChar

StartChar: D
Encoding: 68 68 37
Width: 900
GlyphClass: 1
Flags: W
LayerCount: 2
Fore
SplineSet
383 729 m 256,0,1
 404 729 404 729 418 714.5 c 128,-1,2
 432 700 432 700 432 679 c 0,3,4
 432 659 432 659 418 644.5 c 128,-1,5
 404 630 404 630 383 630 c 0,6,7
 363 630 363 630 347.5 644.5 c 128,-1,8
 332 659 332 659 332 679 c 0,9,10
 332 700 332 700 347 714.5 c 128,-1,11
 362 729 362 729 383 729 c 256,0,1
528 729 m 256,12,13
 549 729 549 729 563.5 714.5 c 128,-1,14
 578 700 578 700 578 679 c 0,15,16
 578 659 578 659 563.5 644.5 c 128,-1,17
 549 630 549 630 528 630 c 0,18,19
 508 630 508 630 493 644.5 c 128,-1,20
 478 659 478 659 478 679 c 0,21,22
 478 700 478 700 492.5 714.5 c 128,-1,23
 507 729 507 729 528 729 c 256,12,13
124 81 m 1,24,-1
 124 543 l 1,25,-1
 768 543 l 1,26,-1
 768 81 l 1,27,-1
 657 81 l 1,28,-1
 657 500 l 1,29,-1
 505 500 l 1,30,-1
 505 81 l 1,31,-1
 393 81 l 1,32,-1
 393 500 l 1,33,-1
 238 500 l 1,34,-1
 238 81 l 1,35,-1
 124 81 l 1,24,-1
EndSplineSet
EndChar

StartChar: E
Encoding: 69 69 38
Width: 644
GlyphClass: 1
Flags: W
LayerCount: 2
Fore
SplineSet
546 315 m 0,0,1
 546 215 546 215 484 148 c 128,-1,2
 422 81 422 81 328 81 c 0,3,4
 230 81 230 81 163 145 c 0,5,6
 94 211 94 211 94 312 c 0,7,8
 94 415 94 415 174 486 c 0,9,10
 243 548 243 548 317 547 c 0,11,12
 400 547 400 547 467 491 c 0,13,14
 546 425 546 425 546 315 c 0,0,1
416 317 m 0,15,16
 416 391 416 391 394 445 c 0,17,18
 366 511 366 511 318 511 c 0,19,20
 278 511 278 511 256 445 c 0,21,22
 237 390 237 390 237 317 c 256,23,24
 237 244 237 244 258 191 c 0,25,26
 284 126 284 126 329 127 c 0,27,28
 379 127 379 127 401 191 c 0,29,30
 416 236 416 236 416 317 c 0,15,16
243 729 m 256,31,32
 264 729 264 729 278.5 714.5 c 128,-1,33
 293 700 293 700 293 679 c 0,34,35
 293 659 293 659 278.5 644.5 c 128,-1,36
 264 630 264 630 243 630 c 0,37,38
 223 630 223 630 208 644.5 c 128,-1,39
 193 659 193 659 193 679 c 0,40,41
 193 700 193 700 207.5 714.5 c 128,-1,42
 222 729 222 729 243 729 c 256,31,32
389 729 m 256,43,44
 410 729 410 729 424 714.5 c 128,-1,45
 438 700 438 700 438 679 c 0,46,47
 438 659 438 659 424 644.5 c 128,-1,48
 410 630 410 630 389 630 c 0,49,50
 369 630 369 630 353.5 644.5 c 128,-1,51
 338 659 338 659 338 679 c 0,52,53
 338 700 338 700 353 714.5 c 128,-1,54
 368 729 368 729 389 729 c 256,43,44
EndSplineSet
EndChar

StartChar: F
Encoding: 70 70 39
Width: 402
GlyphClass: 1
Flags: W
LayerCount: 2
Fore
SplineSet
352 81 m 1,0,-1
 232 81 l 1,1,-1
 232 543 l 1,2,-1
 352 543 l 1,3,-1
 352 81 l 1,0,-1
222 729 m 256,4,5
 243 729 243 729 257.5 714.5 c 128,-1,6
 272 700 272 700 272 679 c 0,7,8
 272 659 272 659 257.5 644.5 c 128,-1,9
 243 630 243 630 222 630 c 0,10,11
 202 630 202 630 187 644.5 c 128,-1,12
 172 659 172 659 172 679 c 0,13,14
 172 700 172 700 186.5 714.5 c 128,-1,15
 201 729 201 729 222 729 c 256,4,5
368 729 m 256,16,17
 389 729 389 729 403 714.5 c 128,-1,18
 417 700 417 700 417 679 c 0,19,20
 417 659 417 659 402.5 644.5 c 128,-1,21
 388 630 388 630 368 630 c 256,22,23
 348 630 348 630 332.5 644.5 c 128,-1,24
 317 659 317 659 317 679 c 0,25,26
 317 700 317 700 332 714.5 c 128,-1,27
 347 729 347 729 368 729 c 256,16,17
EndSplineSet
EndChar

StartChar: G
Encoding: 71 71 40
Width: 552
GlyphClass: 1
Flags: W
LayerCount: 2
Fore
SplineSet
89 81 m 1,0,-1
 89 543 l 1,1,-1
 219 543 l 1,2,-1
 382 187 l 1,3,-1
 387 187 l 1,4,-1
 387 543 l 1,5,-1
 463 543 l 1,6,-1
 463 81 l 1,7,-1
 349 81 l 1,8,-1
 177 447 l 1,9,-1
 170 447 l 1,10,-1
 170 81 l 1,11,-1
 89 81 l 1,0,-1
202 729 m 256,12,13
 223 729 223 729 237.5 714.5 c 128,-1,14
 252 700 252 700 252 679 c 0,15,16
 252 659 252 659 237.5 644.5 c 128,-1,17
 223 630 223 630 202 630 c 0,18,19
 182 630 182 630 167 644.5 c 128,-1,20
 152 659 152 659 152 679 c 0,21,22
 152 700 152 700 166.5 714.5 c 128,-1,23
 181 729 181 729 202 729 c 256,12,13
348 729 m 256,24,25
 369 729 369 729 383.5 714.5 c 128,-1,26
 398 700 398 700 398 679 c 0,27,28
 398 659 398 659 383.5 644.5 c 128,-1,29
 369 630 369 630 348 630 c 0,30,31
 328 630 328 630 313 644.5 c 128,-1,32
 298 659 298 659 298 679 c 0,33,34
 298 700 298 700 312.5 714.5 c 128,-1,35
 327 729 327 729 348 729 c 256,24,25
EndSplineSet
EndChar

StartChar: H
Encoding: 72 72 41
Width: 908
GlyphClass: 1
Flags: W
LayerCount: 2
Fore
SplineSet
455 455 m 256,0,1
 476 455 476 455 490.5 440.5 c 128,-1,2
 505 426 505 426 505 405 c 0,3,4
 505 385 505 385 490.5 370.5 c 128,-1,5
 476 356 476 356 455 356 c 0,6,7
 435 356 435 356 420 370.5 c 128,-1,8
 405 385 405 385 405 405 c 0,9,10
 405 426 405 426 419.5 440.5 c 128,-1,11
 434 455 434 455 455 455 c 256,0,1
601 455 m 256,12,13
 622 455 622 455 636 440.5 c 128,-1,14
 650 426 650 426 650 405 c 0,15,16
 650 385 650 385 635.5 370.5 c 128,-1,17
 621 356 621 356 601 356 c 128,-1,18
 581 356 581 356 565.5 370.5 c 128,-1,19
 550 385 550 385 550 405 c 0,20,21
 550 426 550 426 565 440.5 c 128,-1,22
 580 455 580 455 601 455 c 256,12,13
791 87 m 1,23,-1
 529 -162 l 1,24,-1
 343 -161 l 1,25,-1
 267 47 l 1,26,-1
 205 47 l 1,27,-1
 205 87 l 1,28,-1
 253 87 l 1,29,-1
 168 347 l 1,30,31
 144 430 144 430 135 456 c 0,32,33
 115 514 115 514 91 552 c 0,34,35
 62 597 62 597 23 622 c 1,36,-1
 23 635 l 1,37,-1
 223 635 l 1,38,-1
 376 87 l 1,39,-1
 791 87 l 1,23,-1
640 47 m 1,40,-1
 389 47 l 1,41,42
 389 46 389 46 443 -126 c 1,43,44
 452 -121 452 -121 504 -75 c 0,45,46
 552 -33 552 -33 593 5 c 0,47,48
 617 26 617 26 640 47 c 1,40,-1
EndSplineSet
EndChar

StartChar: I
Encoding: 73 73 42
Width: 520
GlyphClass: 1
Flags: W
LayerCount: 2
Fore
SplineSet
122 729 m 256,0,1
 143 729 143 729 157.5 714.5 c 128,-1,2
 172 700 172 700 172 679 c 0,3,4
 172 659 172 659 157.5 644.5 c 128,-1,5
 143 630 143 630 122 630 c 0,6,7
 102 630 102 630 87 644.5 c 128,-1,8
 72 659 72 659 72 679 c 0,9,10
 72 700 72 700 86.5 714.5 c 128,-1,11
 101 729 101 729 122 729 c 256,0,1
268 729 m 256,12,13
 289 729 289 729 303.5 714.5 c 128,-1,14
 318 700 318 700 318 679 c 0,15,16
 318 659 318 659 303.5 644.5 c 128,-1,17
 289 630 289 630 268 630 c 0,18,19
 248 630 248 630 233 644.5 c 128,-1,20
 218 659 218 659 218 679 c 0,21,22
 218 700 218 700 232.5 714.5 c 128,-1,23
 247 729 247 729 268 729 c 256,12,13
110 121 m 1,24,-1
 160 483 l 1,25,-1
 234 483 l 1,26,-1
 394 121 l 1,27,-1
 458 121 l 1,28,-1
 458 81 l 1,29,-1
 69 81 l 1,30,-1
 69 121 l 1,31,-1
 110 121 l 1,24,-1
EndSplineSet
EndChar

StartChar: K
Encoding: 75 75 43
Width: 534
GlyphClass: 1
Flags: W
LayerCount: 2
Fore
SplineSet
217 729 m 256,0,1
 238 729 238 729 252 714.5 c 128,-1,2
 266 700 266 700 266 679 c 0,3,4
 266 659 266 659 252 644.5 c 128,-1,5
 238 630 238 630 217 630 c 0,6,7
 197 630 197 630 181.5 644.5 c 128,-1,8
 166 659 166 659 166 679 c 0,9,10
 166 700 166 700 181 714.5 c 128,-1,11
 196 729 196 729 217 729 c 256,0,1
362 729 m 256,12,13
 383 729 383 729 397.5 714.5 c 128,-1,14
 412 700 412 700 412 679 c 0,15,16
 412 659 412 659 397.5 644.5 c 0,17,18
 382 630 382 630 362 630 c 128,-1,19
 342 630 342 630 327 644.5 c 128,-1,20
 312 659 312 659 312 679 c 0,21,22
 312 700 312 700 326.5 714.5 c 128,-1,23
 341 729 341 729 362 729 c 256,12,13
437 81 m 1,24,-1
 76 81 l 1,25,-1
 76 121 l 1,26,-1
 333 121 l 1,27,-1
 334 392 l 2,28,29
 334 412 334 412 324 425.5 c 128,-1,30
 314 439 314 439 297 439 c 128,-1,31
 280 439 280 439 262 424 c 0,32,33
 237 403 237 403 202 351 c 1,34,-1
 86 351 l 1,35,-1
 82 356 l 1,36,37
 95 374 95 374 106 388 c 0,38,39
 134 423 134 423 182 475 c 0,40,41
 205 500 205 500 231 518 c 0,42,43
 269 544 269 544 298 544 c 0,44,45
 360 544 360 544 398.5 503 c 128,-1,46
 437 462 437 462 437 399 c 2,47,-1
 437 81 l 1,24,-1
EndSplineSet
EndChar

StartChar: L
Encoding: 76 76 44
Width: 628
GlyphClass: 1
Flags: W
LayerCount: 2
Fore
SplineSet
539 75 m 1,0,-1
 107 75 l 1,1,-1
 107 115 l 1,2,-1
 419 115 l 1,3,-1
 420 120 l 1,4,-1
 186 593 l 2,5,6
 174 614 174 614 147 635 c 0,7,8
 136 645 136 645 107 663 c 1,9,-1
 301 663 l 1,10,-1
 539 84 l 1,11,-1
 539 75 l 1,0,-1
403 675 m 256,12,13
 424 675 424 675 438.5 660.5 c 128,-1,14
 453 646 453 646 453 625 c 0,15,16
 453 605 453 605 438.5 590.5 c 128,-1,17
 424 576 424 576 403 576 c 0,18,19
 383 576 383 576 368 590.5 c 128,-1,20
 353 605 353 605 353 625 c 0,21,22
 353 646 353 646 367.5 660.5 c 128,-1,23
 382 675 382 675 403 675 c 256,12,13
541 675 m 256,24,25
 562 675 562 675 576.5 660.5 c 128,-1,26
 591 646 591 646 591 625 c 0,27,28
 591 605 591 605 576.5 590.5 c 128,-1,29
 562 576 562 576 541 576 c 0,30,31
 521 576 521 576 506 590.5 c 128,-1,32
 491 605 491 605 491 625 c 0,33,34
 491 646 491 646 505.5 660.5 c 128,-1,35
 520 675 520 675 541 675 c 256,24,25
EndSplineSet
EndChar

StartChar: N
Encoding: 78 78 45
Width: 892
GlyphClass: 1
Flags: W
LayerCount: 2
Fore
SplineSet
771 81 m 1,0,-1
 116 81 l 1,1,-1
 116 121 l 1,2,-1
 373 121 l 1,3,-1
 373 499 l 1,4,-1
 269 499 l 1,5,-1
 269 392 l 1,6,-1
 116 392 l 1,7,-1
 116 543 l 1,8,-1
 771 543 l 1,9,-1
 771 81 l 1,0,-1
658 121 m 1,10,-1
 658 497 l 1,11,-1
 487 497 l 1,12,-1
 487 121 l 1,13,-1
 658 121 l 1,10,-1
374 729 m 256,14,15
 395 729 395 729 409.5 714.5 c 128,-1,16
 424 700 424 700 424 679 c 0,17,18
 424 659 424 659 409.5 644.5 c 128,-1,19
 395 630 395 630 374 630 c 0,20,21
 354 630 354 630 339 644.5 c 128,-1,22
 324 659 324 659 324 679 c 0,23,24
 324 700 324 700 338.5 714.5 c 128,-1,25
 353 729 353 729 374 729 c 256,14,15
520 729 m 256,26,27
 541 729 541 729 555.5 714.5 c 128,-1,28
 570 700 570 700 570 679 c 0,29,30
 570 659 570 659 555.5 644.5 c 128,-1,31
 541 630 541 630 520 630 c 0,32,33
 500 630 500 630 485 644.5 c 128,-1,34
 470 659 470 659 470 679 c 0,35,36
 470 700 470 700 484.5 714.5 c 128,-1,37
 499 729 499 729 520 729 c 256,26,27
EndSplineSet
EndChar

StartChar: O
Encoding: 79 79 46
Width: 756
GlyphClass: 1
Flags: W
LayerCount: 2
Fore
SplineSet
478 48 m 2,0,-1
 521 8 l 1,1,2
 604 -58 604 -58 700 -121 c 0,3,4
 771 -168 771 -168 855 -216 c 0,5,6
 907 -246 907 -246 989 -291 c 1,7,8
 988 -291 988 -291 984 -308 c 1,9,10
 870 -266 870 -266 757 -223 c 0,11,12
 611 -167 611 -167 495 -115 c 0,13,14
 350 -50 350 -50 264 6 c 0,15,16
 211 40 211 40 181 71 c 0,17,18
 143 110 143 110 144 144 c 0,19,20
 144 157 144 157 147 166 c 128,-1,21
 150 175 150 175 160 187 c 0,22,23
 174 203 174 203 189.5 210 c 128,-1,24
 205 217 205 217 222 217 c 0,25,26
 262 217 262 217 319 175 c 0,27,28
 352 148 352 148 364 139 c 0,29,30
 389 117 389 117 422 91 c 0,31,32
 471 54 471 54 478 48 c 2,0,-1
383 384 m 256,33,34
 404 384 404 384 418 369.5 c 128,-1,35
 432 355 432 355 432 333 c 0,36,37
 432 313 432 313 418 298.5 c 128,-1,38
 404 284 404 284 383 284 c 0,39,40
 363 284 363 284 347.5 298.5 c 128,-1,41
 332 313 332 313 332 333 c 0,42,43
 332 354 332 354 347 369 c 128,-1,44
 362 384 362 384 383 384 c 256,33,34
528 384 m 256,45,46
 549 384 549 384 563.5 369.5 c 128,-1,47
 578 355 578 355 578 333 c 0,48,49
 578 313 578 313 563.5 298.5 c 0,50,51
 548 284 548 284 528 284 c 128,-1,52
 508 284 508 284 493 298.5 c 128,-1,53
 478 313 478 313 478 333 c 0,54,55
 478 354 478 354 492.5 369 c 128,-1,56
 507 384 507 384 528 384 c 256,45,46
EndSplineSet
EndChar

StartChar: P
Encoding: 80 80 47
Width: 466
GlyphClass: 1
Flags: W
LayerCount: 2
Fore
SplineSet
396 503 m 1,0,-1
 327 503 l 1,1,-1
 327 81 l 1,2,-1
 95 81 l 1,3,-1
 95 121 l 1,4,-1
 219 121 l 1,5,-1
 219 503 l 1,6,-1
 147 503 l 1,7,-1
 147 543 l 1,8,-1
 396 543 l 1,9,-1
 396 503 l 1,0,-1
207 729 m 256,10,11
 228 729 228 729 242.5 714.5 c 128,-1,12
 257 700 257 700 257 679 c 0,13,14
 257 659 257 659 242.5 644.5 c 128,-1,15
 228 630 228 630 207 630 c 0,16,17
 187 630 187 630 172 644.5 c 128,-1,18
 157 659 157 659 157 679 c 0,19,20
 157 700 157 700 171.5 714.5 c 128,-1,21
 186 729 186 729 207 729 c 256,10,11
353 729 m 256,22,23
 374 729 374 729 388.5 714.5 c 128,-1,24
 403 700 403 700 403 679 c 0,25,26
 403 659 403 659 388.5 644.5 c 128,-1,27
 374 630 374 630 353 630 c 0,28,29
 333 630 333 630 318 644.5 c 128,-1,30
 303 659 303 659 303 679 c 0,31,32
 303 700 303 700 317.5 714.5 c 128,-1,33
 332 729 332 729 353 729 c 256,22,23
EndSplineSet
EndChar

StartChar: Q
Encoding: 81 81 48
Width: 935
GlyphClass: 1
Flags: W
LayerCount: 2
Fore
SplineSet
741 322 m 0,0,1
 741 376 741 376 717 417 c 0,2,3
 688 467 688 467 641 467 c 0,4,5
 607 467 607 467 578 433 c 0,6,7
 554 404 554 404 534 347 c 0,8,9
 529 335 529 335 523 306 c 0,10,11
 509 242 509 242 509 202 c 0,12,13
 509 165 509 165 525.5 149.5 c 128,-1,14
 542 134 542 134 576 134 c 0,15,16
 654 134 654 134 699 190 c 0,17,18
 741 242 741 242 741 322 c 0,0,1
429 202 m 0,19,20
 429 236 429 236 420 281 c 128,-1,21
 411 326 411 326 403 347 c 0,22,23
 383 403 383 403 359 433 c 0,24,25
 332 467 332 467 297 467 c 0,26,27
 250 467 250 467 222 418 c 0,28,29
 197 375 197 375 197 322 c 0,30,31
 197 242 197 242 238 191 c 0,32,33
 283 134 283 134 362 134 c 0,34,35
 395 134 395 134 412 150 c 128,-1,36
 429 166 429 166 429 202 c 0,19,20
676 81 m 2,37,-1
 247 81 l 2,38,39
 197 81 197 81 154 153 c 0,40,41
 116 216 116 216 109 279 c 0,42,43
 108 289 108 289 107.5 296 c 128,-1,44
 107 303 107 303 107 307 c 0,45,46
 107 381 107 381 140 441 c 128,-1,47
 173 501 173 501 222 529 c 0,48,49
 235 536 235 536 260.5 540.5 c 128,-1,50
 286 545 286 545 303 545 c 0,51,52
 345 545 345 545 389 501 c 0,53,54
 419 470 419 470 447 419 c 0,55,56
 457 397 457 397 469 375 c 1,57,58
 479 397 479 397 490 419 c 0,59,60
 519 470 519 470 549 501 c 0,61,62
 592 545 592 545 634 545 c 0,63,64
 663 545 663 545 680.5 542 c 128,-1,65
 698 539 698 539 716 529 c 0,66,67
 771 496 771 496 798 443 c 0,68,69
 828 384 828 384 829 295 c 0,70,71
 829 241 829 241 777 163 c 0,72,73
 722 81 722 81 676 81 c 2,37,-1
391 729 m 256,74,75
 412 729 412 729 426.5 714.5 c 128,-1,76
 441 700 441 700 441 679 c 0,77,78
 441 659 441 659 426.5 644.5 c 128,-1,79
 412 630 412 630 391 630 c 0,80,81
 371 630 371 630 356 644.5 c 128,-1,82
 341 659 341 659 341 679 c 0,83,84
 341 700 341 700 355.5 714.5 c 128,-1,85
 370 729 370 729 391 729 c 256,74,75
537 729 m 256,86,87
 558 729 558 729 572 714.5 c 128,-1,88
 586 700 586 700 586 679 c 0,89,90
 586 659 586 659 572 644.5 c 128,-1,91
 558 630 558 630 537 630 c 0,92,93
 517 630 517 630 501.5 644.5 c 128,-1,94
 486 659 486 659 486 679 c 0,95,96
 486 700 486 700 501 714.5 c 128,-1,97
 516 729 516 729 537 729 c 256,86,87
EndSplineSet
EndChar

StartChar: R
Encoding: 82 82 49
Width: 684
GlyphClass: 1
Flags: W
LayerCount: 2
Fore
SplineSet
620 81 m 1,0,-1
 104 81 l 1,1,-1
 104 121 l 1,2,-1
 457 121 l 1,3,-1
 184 393 l 2,4,5
 156 421 156 421 142 436 c 0,6,7
 104 478 104 478 104 492 c 0,8,9
 104 522 104 522 134 535 c 0,10,11
 153 543 153 543 187 543 c 2,12,-1
 337 543 l 1,13,-1
 337 453 l 1,14,-1
 256 453 l 2,15,16
 252 453 252 453 248.5 450 c 128,-1,17
 245 447 245 447 245 444 c 0,18,19
 245 440 245 440 331 356 c 0,20,21
 399 289 399 289 490 203 c 0,22,23
 533 161 533 161 576 120 c 2,24,-1
 620 81 l 1,0,-1
278 729 m 256,25,26
 299 729 299 729 313.5 714.5 c 128,-1,27
 328 700 328 700 328 679 c 0,28,29
 328 659 328 659 313.5 644.5 c 128,-1,30
 299 630 299 630 278 630 c 0,31,32
 258 630 258 630 243 644.5 c 128,-1,33
 228 659 228 659 228 679 c 0,34,35
 228 700 228 700 242.5 714.5 c 128,-1,36
 257 729 257 729 278 729 c 256,25,26
424 729 m 256,37,38
 445 729 445 729 459 714.5 c 128,-1,39
 473 700 473 700 473 679 c 0,40,41
 473 659 473 659 458.5 644.5 c 128,-1,42
 444 630 444 630 424 630 c 256,43,44
 404 630 404 630 388.5 644.5 c 128,-1,45
 373 659 373 659 373 679 c 0,46,47
 373 700 373 700 388 714.5 c 128,-1,48
 403 729 403 729 424 729 c 256,37,38
EndSplineSet
EndChar

StartChar: S
Encoding: 83 83 50
Width: 754
GlyphClass: 1
Flags: W
LayerCount: 2
Fore
SplineSet
271 729 m 256,0,1
 292 729 292 729 306 714.5 c 128,-1,2
 320 700 320 700 320 679 c 0,3,4
 320 659 320 659 306 644.5 c 128,-1,5
 292 630 292 630 271 630 c 0,6,7
 251 630 251 630 235.5 644.5 c 128,-1,8
 220 659 220 659 220 679 c 0,9,10
 220 700 220 700 235 714.5 c 128,-1,11
 250 729 250 729 271 729 c 256,0,1
416 729 m 256,12,13
 437 729 437 729 451.5 714.5 c 128,-1,14
 466 700 466 700 466 679 c 0,15,16
 466 659 466 659 451.5 644.5 c 128,-1,17
 437 630 437 630 416 630 c 0,18,19
 396 630 396 630 381 644.5 c 128,-1,20
 366 659 366 659 366 679 c 0,21,22
 366 700 366 700 380.5 714.5 c 128,-1,23
 395 729 395 729 416 729 c 256,12,13
156 121 m 1,24,25
 135 202 135 202 118 274 c 0,26,27
 96 372 96 372 96 395 c 0,28,29
 96 480 96 480 116 513 c 0,30,31
 134 543 134 543 169 543 c 2,32,-1
 516 543 l 2,33,34
 540 543 540 543 564 483 c 0,35,36
 586 429 586 429 586 395 c 0,37,38
 586 331 586 331 525 263 c 0,39,40
 498 235 498 235 472 208 c 1,41,-1
 464 208 l 1,42,-1
 428 267 l 1,43,44
 450 300 450 300 461 318 c 0,45,46
 494 374 494 374 494 396 c 0,47,48
 494 421 494 421 483 445 c 128,-1,49
 472 469 472 469 464 469 c 2,50,-1
 209 469 l 2,51,52
 191 469 191 469 183 425 c 0,53,54
 180 408 180 408 180 395 c 0,55,56
 180 369 180 369 208 252.5 c 128,-1,57
 236 136 236 136 248 115 c 1,58,-1
 260 81 l 1,59,-1
 65 81 l 1,60,-1
 65 121 l 1,61,-1
 156 121 l 1,24,25
EndSplineSet
EndChar

StartChar: T
Encoding: 84 84 51
Width: 680
GlyphClass: 1
Flags: W
LayerCount: 2
Fore
SplineSet
585 394 m 0,0,1
 585 372 585 372 567 293 c 0,2,3
 560 261 560 261 533 152 c 0,4,5
 523 116 523 116 514 80 c 1,6,-1
 420 80 l 1,7,-1
 106 80 l 1,8,-1
 106 121 l 1,9,-1
 433 121 l 1,10,11
 445 143 445 143 473 255.5 c 128,-1,12
 501 368 501 368 501 394 c 0,13,14
 501 415 501 415 495 437 c 0,15,16
 487 469 487 469 471 469 c 2,17,-1
 216 469 l 2,18,19
 209 469 209 469 197.5 444 c 128,-1,20
 186 419 186 419 186 396 c 0,21,22
 186 378 186 378 207.5 341 c 128,-1,23
 229 304 229 304 252 266 c 1,24,25
 252 260 252 260 244 248 c 0,26,27
 223 218 223 218 217 208 c 1,28,-1
 209 208 l 1,29,30
 174 246 174 246 138 285 c 1,31,32
 95 340 95 340 94 394 c 0,33,34
 94 427 94 427 117 484.5 c 128,-1,35
 140 542 140 542 164 542 c 2,36,-1
 511 542 l 2,37,38
 556 542 556 542 573 493 c 0,39,40
 585 458 585 458 585 394 c 0,0,1
274 729 m 256,41,42
 295 729 295 729 309 714.5 c 128,-1,43
 323 700 323 700 323 678 c 0,44,45
 323 658 323 658 308.5 644 c 128,-1,46
 294 630 294 630 274 630 c 256,47,48
 254 630 254 630 238.5 644 c 128,-1,49
 223 658 223 658 223 678 c 0,50,51
 223 699 223 699 238 714 c 128,-1,52
 253 729 253 729 274 729 c 256,41,42
419 729 m 256,53,54
 440 729 440 729 454.5 714.5 c 128,-1,55
 469 700 469 700 469 678 c 0,56,57
 469 658 469 658 454.5 644 c 128,-1,58
 440 630 440 630 419 630 c 0,59,60
 399 630 399 630 384 644 c 128,-1,61
 369 658 369 658 369 678 c 0,62,63
 369 699 369 699 383.5 714 c 128,-1,64
 398 729 398 729 419 729 c 256,53,54
EndSplineSet
EndChar

StartChar: V
Encoding: 86 86 52
Width: 780
GlyphClass: 1
Flags: W
LayerCount: 2
Fore
SplineSet
675 42 m 1,0,-1
 328 42 l 1,1,2
 398 20 398 20 468 0 c 1,3,4
 552 -41 552 -41 552 -128 c 0,5,6
 552 -179 552 -179 475 -222 c 0,7,8
 389 -269 389 -269 262 -269 c 2,9,-1
 63 -267 l 1,10,-1
 64 -219 l 1,11,-1
 243 -219 l 2,12,13
 293 -219 293 -219 348 -197 c 0,14,15
 428 -167 428 -167 428 -113 c 0,16,17
 428 -44 428 -44 337.5 -1 c 128,-1,18
 247 42 247 42 103 42 c 1,19,-1
 103 82 l 1,20,-1
 294 82 l 1,21,-1
 360 504 l 1,22,-1
 459 504 l 1,23,-1
 675 42 l 1,0,-1
335 690 m 256,24,25
 356 690 356 690 370.5 675.5 c 128,-1,26
 385 661 385 661 385 640 c 0,27,28
 385 620 385 620 370.5 605.5 c 128,-1,29
 356 591 356 591 335 591 c 0,30,31
 315 591 315 591 300 605.5 c 128,-1,32
 285 620 285 620 285 640 c 0,33,34
 285 661 285 661 299.5 675.5 c 128,-1,35
 314 690 314 690 335 690 c 256,24,25
481 690 m 256,36,37
 502 690 502 690 516.5 675.5 c 128,-1,38
 531 661 531 661 531 640 c 0,39,40
 531 620 531 620 516.5 605.5 c 128,-1,41
 502 591 502 591 481 591 c 0,42,43
 461 591 461 591 446 605.5 c 128,-1,44
 431 620 431 620 431 640 c 0,45,46
 431 661 431 661 445.5 675.5 c 128,-1,47
 460 690 460 690 481 690 c 256,36,37
EndSplineSet
EndChar

StartChar: W
Encoding: 87 87 53
Width: 660
GlyphClass: 1
Flags: W
LayerCount: 2
Fore
SplineSet
434 121 m 1,0,-1
 434 501 l 1,1,-1
 221 501 l 1,2,-1
 221 121 l 1,3,-1
 434 121 l 1,0,-1
101 81 m 1,4,-1
 100 543 l 1,5,-1
 556 543 l 1,6,-1
 556 81 l 1,7,-1
 101 81 l 1,4,-1
263 729 m 256,8,9
 284 729 284 729 298.5 714.5 c 128,-1,10
 313 700 313 700 313 679 c 0,11,12
 313 659 313 659 298.5 644.5 c 128,-1,13
 284 630 284 630 263 630 c 0,14,15
 243 630 243 630 228 644.5 c 128,-1,16
 213 659 213 659 213 679 c 0,17,18
 213 700 213 700 227.5 714.5 c 128,-1,19
 242 729 242 729 263 729 c 256,8,9
409 729 m 256,20,21
 430 729 430 729 444 714.5 c 128,-1,22
 458 700 458 700 458 679 c 0,23,24
 458 659 458 659 444 644.5 c 128,-1,25
 430 630 430 630 409 630 c 0,26,27
 389 630 389 630 373.5 644.5 c 128,-1,28
 358 659 358 659 358 679 c 0,29,30
 358 700 358 700 373 714.5 c 128,-1,31
 388 729 388 729 409 729 c 256,20,21
EndSplineSet
EndChar

StartChar: X
Encoding: 88 88 54
Width: 864
GlyphClass: 1
Flags: W
LayerCount: 2
Fore
SplineSet
655 80 m 1,0,-1
 655 506 l 1,1,-1
 431 506 l 1,2,-1
 431 390 l 1,3,-1
 273 390 l 1,4,-1
 273 542 l 1,5,-1
 762 542 l 1,6,-1
 762 80 l 1,7,-1
 655 80 l 1,0,-1
477 729 m 256,8,9
 498 729 498 729 512.5 714.5 c 128,-1,10
 527 700 527 700 527 678 c 0,11,12
 527 658 527 658 512.5 644 c 128,-1,13
 498 630 498 630 477 630 c 0,14,15
 457 630 457 630 442 644 c 128,-1,16
 427 658 427 658 427 678 c 0,17,18
 427 699 427 699 441.5 714 c 128,-1,19
 456 729 456 729 477 729 c 256,8,9
623 729 m 256,20,21
 644 729 644 729 658 714.5 c 128,-1,22
 672 700 672 700 672 678 c 0,23,24
 672 658 672 658 658 644 c 128,-1,25
 644 630 644 630 623 630 c 0,26,27
 603 630 603 630 587.5 644 c 128,-1,28
 572 658 572 658 572 678 c 0,29,30
 572 699 572 699 587 714 c 128,-1,31
 602 729 602 729 623 729 c 256,20,21
EndSplineSet
EndChar

StartChar: Y
Encoding: 89 89 55
Width: 742
GlyphClass: 1
Flags: W
LayerCount: 2
Fore
SplineSet
286 343 m 1,0,-1
 94 543 l 1,1,-1
 212 543 l 1,2,-1
 366 388 l 1,3,-1
 525 542 l 1,4,-1
 648 541 l 1,5,-1
 440 347 l 1,6,7
 464 324 464 324 477 289 c 128,-1,8
 490 254 490 254 490 225 c 0,9,10
 490 157 490 157 460 115 c 0,11,12
 427 70 427 70 365 70 c 0,13,14
 304 70 304 70 271 115 c 0,15,16
 241 156 241 156 241 225 c 0,17,18
 241 258 241 258 252 288.5 c 128,-1,19
 263 319 263 319 286 343 c 1,0,-1
296 728 m 256,20,21
 317 728 317 728 331 713.5 c 128,-1,22
 345 699 345 699 345 677 c 0,23,24
 345 657 345 657 331 643 c 128,-1,25
 317 629 317 629 296 629 c 0,26,27
 276 629 276 629 260.5 643 c 128,-1,28
 245 657 245 657 245 677 c 0,29,30
 245 698 245 698 260 713 c 128,-1,31
 275 728 275 728 296 728 c 256,20,21
441 728 m 256,32,33
 462 728 462 728 476.5 713.5 c 128,-1,34
 491 699 491 699 491 677 c 0,35,36
 491 657 491 657 476.5 643 c 128,-1,37
 462 629 462 629 441 629 c 0,38,39
 421 629 421 629 406 643 c 128,-1,40
 391 657 391 657 391 677 c 0,41,42
 391 698 391 698 405.5 713 c 128,-1,43
 420 728 420 728 441 728 c 256,32,33
EndSplineSet
EndChar

StartChar: Z
Encoding: 90 90 56
Width: 970
GlyphClass: 1
Flags: W
LayerCount: 2
Fore
SplineSet
843 301 m 0,0,1
 843 199 843 199 791 145 c 0,2,3
 729 81 729 81 574 81 c 2,4,-1
 117 81 l 1,5,-1
 117 141 l 1,6,7
 147 243 147 243 203.5 324 c 128,-1,8
 260 405 260 405 341 459 c 1,9,-1
 205 669 l 1,10,-1
 312 669 l 1,11,-1
 407 484 l 1,12,13
 434 498 434 498 441 501 c 0,14,15
 495 523 495 523 581 523 c 0,16,17
 697 523 697 523 768 467 c 0,18,19
 843 407 843 407 843 301 c 0,0,1
743 304 m 0,20,21
 743 376 743 376 690 412 c 0,22,23
 644 444 644 444 565 444 c 0,24,25
 500 444 500 444 470 437 c 0,26,27
 467 436 467 436 433 422 c 1,28,-1
 570 144 l 1,29,30
 575 146 575 146 605 146 c 0,31,32
 675 146 675 146 714 207 c 0,33,34
 743 254 743 254 743 304 c 0,20,21
521 144 m 1,35,36
 504 173 504 173 487 203 c 0,37,38
 438 286 438 286 420 318 c 0,39,40
 374 396 374 396 372 401 c 1,41,42
 357 401 357 401 309.5 353 c 128,-1,43
 262 305 262 305 226 249 c 0,44,45
 183 183 183 183 182 144 c 1,46,-1
 521 144 l 1,35,36
486 729 m 256,47,48
 507 729 507 729 521 714.5 c 128,-1,49
 535 700 535 700 535 679 c 0,50,51
 535 659 535 659 520.5 644.5 c 128,-1,52
 506 630 506 630 486 630 c 256,53,54
 466 630 466 630 450.5 644.5 c 128,-1,55
 435 659 435 659 435 679 c 0,56,57
 435 700 435 700 450 714.5 c 128,-1,58
 465 729 465 729 486 729 c 256,47,48
631 729 m 256,59,60
 652 729 652 729 666.5 714.5 c 128,-1,61
 681 700 681 700 681 679 c 0,62,63
 681 659 681 659 666.5 644.5 c 128,-1,64
 652 630 652 630 631 630 c 0,65,66
 611 630 611 630 596 644.5 c 128,-1,67
 581 659 581 659 581 679 c 0,68,69
 581 700 581 700 595.5 714.5 c 128,-1,70
 610 729 610 729 631 729 c 256,59,60
EndSplineSet
EndChar

StartChar: bracketleft
Encoding: 91 91 57
Width: 384
GlyphClass: 1
Flags: W
LayerCount: 2
Fore
SplineSet
292 -62 m 1,0,-1
 96 -62 l 1,1,-1
 96 598 l 1,2,-1
 292 598 l 1,3,-1
 292 550 l 1,4,-1
 175 550 l 1,5,-1
 175 -13 l 1,6,7
 174 -13 174 -13 292 -13 c 1,8,-1
 292 -62 l 1,0,-1
EndSplineSet
EndChar

StartChar: backslash
Encoding: 92 92 58
Width: 239
GlyphClass: 1
Flags: W
LayerCount: 2
Fore
SplineSet
143 44 m 1,0,-1
 26 466 l 1,1,-1
 61 466 l 1,2,-1
 177 44 l 1,3,-1
 143 44 l 1,0,-1
EndSplineSet
EndChar

StartChar: bracketright
Encoding: 93 93 59
Width: 384
GlyphClass: 1
Flags: W
LayerCount: 2
Fore
SplineSet
88 -62 m 1,0,-1
 88 -13 l 1,1,-1
 204 -13 l 1,2,-1
 205 550 l 1,3,4
 206 550 206 550 88 550 c 1,5,-1
 88 598 l 1,6,-1
 284 598 l 1,7,-1
 284 -62 l 1,8,-1
 88 -62 l 1,0,-1
EndSplineSet
EndChar

StartChar: asciicircum
Encoding: 94 94 60
Width: 430
GlyphClass: 1
Flags: W
LayerCount: 2
Fore
SplineSet
422 5 m 1,0,-1
 89 5 l 1,1,-1
 89 45 l 1,2,-1
 422 45 l 1,3,-1
 422 5 l 1,0,-1
EndSplineSet
EndChar

StartChar: underscore
Encoding: 95 95 61
Width: 352
GlyphClass: 1
Flags: W
LayerCount: 2
Fore
SplineSet
351 5 m 1,0,-1
 1 5 l 1,1,-1
 1 45 l 1,2,-1
 351 45 l 1,3,-1
 351 5 l 1,0,-1
EndSplineSet
EndChar

StartChar: grave
Encoding: 96 96 62
Width: 836
GlyphClass: 1
Flags: W
LayerCount: 2
Fore
SplineSet
330 760 m 256,0,1
 352 760 352 760 367 744.5 c 128,-1,2
 382 729 382 729 382 708 c 256,3,4
 382 686 382 686 367 671.5 c 128,-1,5
 352 657 352 657 330 657 c 256,6,7
 308 657 308 657 293 671.5 c 128,-1,8
 278 686 278 686 278 708 c 256,9,10
 278 730 278 730 293 745 c 128,-1,11
 308 760 308 760 330 760 c 256,0,1
695 84 m 1,12,-1
 571 84 l 1,13,-1
 379 475 l 1,14,-1
 232 475 l 1,15,-1
 233 84 l 1,16,-1
 123 84 l 1,17,-1
 123 546 l 1,18,-1
 372 546 l 1,19,-1
 704 756 l 1,20,-1
 764 689 l 1,21,-1
 494 501 l 1,22,-1
 695 84 l 1,12,-1
EndSplineSet
EndChar

StartChar: d
Encoding: 100 100 63
Width: 852
GlyphClass: 1
Flags: W
LayerCount: 2
Fore
SplineSet
431 729 m 256,0,1
 452 729 452 729 466 714.5 c 128,-1,2
 480 700 480 700 480 679 c 0,3,4
 480 659 480 659 465.5 644.5 c 128,-1,5
 451 630 451 630 431 630 c 256,6,7
 411 630 411 630 395.5 644.5 c 128,-1,8
 380 659 380 659 380 679 c 0,9,10
 380 700 380 700 395 714.5 c 128,-1,11
 410 729 410 729 431 729 c 256,0,1
107 81 m 1,12,-1
 107 543 l 1,13,-1
 751 543 l 1,14,-1
 751 81 l 1,15,-1
 640 81 l 1,16,-1
 640 500 l 1,17,-1
 488 500 l 1,18,-1
 488 81 l 1,19,-1
 376 81 l 1,20,-1
 376 500 l 1,21,-1
 221 500 l 1,22,-1
 221 81 l 1,23,-1
 107 81 l 1,12,-1
EndSplineSet
EndChar

StartChar: n
Encoding: 110 110 64
Width: 915
GlyphClass: 1
Flags: W
LayerCount: 2
Fore
SplineSet
594 729 m 256,0,1
 615 729 615 729 629.5 714.5 c 128,-1,2
 644 700 644 700 644 679 c 0,3,4
 644 659 644 659 629.5 644.5 c 128,-1,5
 615 630 615 630 594 630 c 0,6,7
 574 630 574 630 559 644.5 c 128,-1,8
 544 659 544 659 544 679 c 0,9,10
 544 700 544 700 558.5 714.5 c 128,-1,11
 573 729 573 729 594 729 c 256,0,1
791 81 m 1,12,-1
 136 81 l 1,13,-1
 136 121 l 1,14,-1
 393 121 l 1,15,-1
 393 499 l 1,16,-1
 289 499 l 1,17,-1
 289 392 l 1,18,-1
 136 392 l 1,19,-1
 136 543 l 1,20,-1
 791 543 l 1,21,-1
 791 81 l 1,12,-1
678 121 m 1,22,-1
 678 497 l 1,23,-1
 507 497 l 1,24,-1
 507 121 l 1,25,-1
 678 121 l 1,22,-1
EndSplineSet
EndChar

StartChar: z
Encoding: 122 122 65
Width: 966
GlyphClass: 1
Flags: W
LayerCount: 2
Fore
SplineSet
518 729 m 256,0,1
 539 729 539 729 553 714.5 c 128,-1,2
 567 700 567 700 567 679 c 0,3,4
 567 659 567 659 552.5 644.5 c 128,-1,5
 538 630 538 630 518 630 c 256,6,7
 498 630 498 630 482.5 644.5 c 128,-1,8
 467 659 467 659 467 679 c 0,9,10
 467 700 467 700 482 714.5 c 128,-1,11
 497 729 497 729 518 729 c 256,0,1
843 301 m 0,12,13
 843 199 843 199 791 145 c 0,14,15
 729 81 729 81 574 81 c 2,16,-1
 117 81 l 1,17,-1
 117 141 l 1,18,19
 147 243 147 243 203.5 324 c 128,-1,20
 260 405 260 405 341 459 c 1,21,-1
 205 669 l 1,22,-1
 312 669 l 1,23,-1
 407 484 l 1,24,25
 434 498 434 498 441 501 c 0,26,27
 495 523 495 523 581 523 c 0,28,29
 697 523 697 523 768 467 c 0,30,31
 843 407 843 407 843 301 c 0,12,13
743 304 m 0,32,33
 743 376 743 376 690 412 c 0,34,35
 644 444 644 444 565 444 c 0,36,37
 500 444 500 444 470 437 c 0,38,39
 467 436 467 436 433 422 c 1,40,-1
 570 144 l 1,41,42
 575 146 575 146 605 146 c 0,43,44
 675 146 675 146 714 207 c 0,45,46
 743 254 743 254 743 304 c 0,32,33
521 144 m 1,47,48
 504 173 504 173 487 203 c 0,49,50
 438 286 438 286 420 318 c 0,51,52
 374 396 374 396 372 401 c 1,53,54
 357 401 357 401 309.5 353 c 128,-1,55
 262 305 262 305 226 249 c 0,56,57
 183 183 183 183 182 144 c 1,58,-1
 521 144 l 1,47,48
EndSplineSet
EndChar

StartChar: braceleft
Encoding: 123 123 66
Width: 384
GlyphClass: 1
Flags: W
LayerCount: 2
Fore
SplineSet
304 -55 m 1,0,-1
 303 -73 l 1,1,2
 283 -67 283 -67 260.5 -57.5 c 128,-1,3
 238 -48 238 -48 225 -42 c 0,4,5
 198 -28 198 -28 185 3 c 128,-1,6
 172 34 172 34 172 71 c 2,7,-1
 172 187 l 2,8,9
 172 195 172 195 171.5 203.5 c 128,-1,10
 171 212 171 212 165 222 c 0,11,12
 148 247 148 247 114 257 c 0,13,14
 103 260 103 260 83 263 c 1,15,-1
 83 278 l 1,16,17
 94 279 94 279 101 280 c 0,18,19
 144 290 144 290 165 316 c 0,20,21
 169 322 169 322 170.5 330.5 c 128,-1,22
 172 339 172 339 172 350 c 2,23,-1
 172 467 l 2,24,25
 172 503 172 503 185 535 c 128,-1,26
 198 567 198 567 225 580 c 0,27,28
 241 587 241 587 265 596.5 c 128,-1,29
 289 606 289 606 303 611 c 1,30,-1
 304 592 l 1,31,32
 274 578 274 578 259 552.5 c 128,-1,33
 244 527 244 527 244 495 c 2,34,-1
 244 372 l 2,35,36
 244 344 244 344 226.5 315 c 0,37,38
 210 286 210 286 184 270 c 1,39,40
 208 256 208 256 226 225 c 128,-1,41
 244 194 244 194 244 166 c 2,42,-1
 244 43 l 2,43,44
 244 12 244 12 259 -14.5 c 128,-1,45
 274 -41 274 -41 304 -55 c 1,0,-1
EndSplineSet
EndChar

StartChar: bar
Encoding: 124 124 67
Width: 92
GlyphClass: 1
Flags: W
LayerCount: 2
Fore
SplineSet
58 4 m 1,0,-1
 30 4 l 1,1,-1
 30 504 l 1,2,-1
 58 504 l 1,3,-1
 58 4 l 1,0,-1
EndSplineSet
EndChar

StartChar: braceright
Encoding: 125 125 68
Width: 384
GlyphClass: 1
Flags: W
LayerCount: 2
Fore
SplineSet
309 263 m 1,0,1
 290 261 290 261 279 258 c 0,2,3
 244 248 244 248 227 222 c 0,4,5
 223 214 223 214 221.5 205 c 128,-1,6
 220 196 220 196 220 187 c 2,7,-1
 220 71 l 2,8,9
 220 35 220 35 208 6 c 0,10,11
 194 -28 194 -28 167 -42 c 0,12,13
 151 -49 151 -49 125 -59 c 128,-1,14
 99 -69 99 -69 89 -73 c 1,15,-1
 88 -55 l 1,16,17
 118 -41 118 -41 133 -15 c 128,-1,18
 148 11 148 11 148 43 c 2,19,-1
 148 166 l 2,20,21
 148 194 148 194 166 224.5 c 128,-1,22
 184 255 184 255 208 270 c 1,23,24
 184 284 184 284 166 314.5 c 128,-1,25
 148 345 148 345 148 372 c 2,26,-1
 148 495 l 2,27,28
 148 526 148 526 132.5 552 c 128,-1,29
 117 578 117 578 88 592 c 1,30,-1
 89 611 l 1,31,32
 113 603 113 603 135 594 c 0,33,34
 150 588 150 588 167 580 c 0,35,36
 195 566 195 566 207.5 535 c 128,-1,37
 220 504 220 504 220 467 c 2,38,-1
 220 350 l 2,39,40
 220 340 220 340 221.5 331 c 128,-1,41
 223 322 223 322 227 316 c 0,42,43
 244 294 244 294 278 284 c 0,44,45
 289 281 289 281 309 278 c 1,46,-1
 309 263 l 1,0,1
EndSplineSet
EndChar

StartChar: c129
Encoding: 129 129 69
Width: 381
GlyphClass: 1
Flags: W
LayerCount: 2
Fore
SplineSet
273 715 m 256,0,1
 295 715 295 715 310 700 c 128,-1,2
 325 685 325 685 325 663 c 256,3,4
 325 641 325 641 310 627 c 128,-1,5
 295 613 295 613 273 613 c 256,6,7
 251 613 251 613 236 627.5 c 128,-1,8
 221 642 221 642 221 663 c 256,9,10
 221 685 221 685 236 700 c 128,-1,11
 251 715 251 715 273 715 c 256,0,1
121 27 m 256,12,13
 143 27 143 27 158 12 c 128,-1,14
 173 -3 173 -3 173 -25 c 256,15,16
 173 -47 173 -47 158 -61 c 128,-1,17
 143 -75 143 -75 121 -75 c 256,18,19
 99 -75 99 -75 84 -60.5 c 128,-1,20
 69 -46 69 -46 69 -25 c 256,21,22
 69 -3 69 -3 84 12 c 128,-1,23
 99 27 99 27 121 27 c 256,12,13
EndSplineSet
EndChar

StartChar: quotesinglbase
Encoding: 8218 8218 70
Width: 466
GlyphClass: 1
Flags: W
LayerCount: 2
Fore
SplineSet
215 798 m 256,0,1
 236 798 236 798 250.5 783.5 c 128,-1,2
 265 769 265 769 265 747 c 0,3,4
 265 727 265 727 250.5 712.5 c 128,-1,5
 236 698 236 698 215 698 c 0,6,7
 195 698 195 698 180 712.5 c 128,-1,8
 165 727 165 727 165 747 c 0,9,10
 165 768 165 768 179.5 783 c 128,-1,11
 194 798 194 798 215 798 c 256,0,1
361 798 m 256,12,13
 382 798 382 798 396 783.5 c 128,-1,14
 410 769 410 769 410 747 c 0,15,16
 410 727 410 727 396 712.5 c 128,-1,17
 382 698 382 698 361 698 c 0,18,19
 341 698 341 698 325.5 712.5 c 128,-1,20
 310 727 310 727 310 747 c 0,21,22
 310 768 310 768 325 783 c 128,-1,23
 340 798 340 798 361 798 c 256,12,13
EndSplineSet
EndChar

StartChar: ellipsis
Encoding: 8230 8230 71
Width: 564
GlyphClass: 1
Flags: W
LayerCount: 2
Fore
SplineSet
56 231 m 256,0,1
 56 252 56 252 70.5 266.5 c 128,-1,2
 85 281 85 281 107 281 c 0,3,4
 127 281 127 281 141.5 266.5 c 128,-1,5
 156 252 156 252 156 231 c 0,6,7
 156 211 156 211 141.5 196 c 128,-1,8
 127 181 127 181 107 181 c 0,9,10
 86 181 86 181 71 195.5 c 128,-1,11
 56 210 56 210 56 231 c 256,0,1
56 505 m 256,12,13
 56 526 56 526 70.5 540 c 128,-1,14
 85 554 85 554 107 554 c 0,15,16
 127 554 127 554 141.5 540 c 128,-1,17
 156 526 156 526 156 505 c 0,18,19
 156 485 156 485 141.5 469.5 c 128,-1,20
 127 454 127 454 107 454 c 0,21,22
 86 454 86 454 71 469 c 128,-1,23
 56 484 56 484 56 505 c 256,12,13
EndSplineSet
EndChar

StartChar: dagger
Encoding: 8224 8224 72
Width: 786
GlyphClass: 1
Flags: W
LayerCount: 2
Fore
SplineSet
314 718 m 256,0,1
 336 718 336 718 351 702.5 c 128,-1,2
 366 687 366 687 366 666 c 256,3,4
 366 644 366 644 351 629.5 c 128,-1,5
 336 615 336 615 314 615 c 256,6,7
 292 615 292 615 277 629.5 c 128,-1,8
 262 644 262 644 262 666 c 256,9,10
 262 688 262 688 277 703 c 128,-1,11
 292 718 292 718 314 718 c 256,0,1
370 30 m 256,12,13
 392 30 392 30 407 14.5 c 128,-1,14
 422 -1 422 -1 422 -22 c 256,15,16
 422 -44 422 -44 407 -58.5 c 128,-1,17
 392 -73 392 -73 370 -73 c 256,18,19
 348 -73 348 -73 333 -58.5 c 128,-1,20
 318 -44 318 -44 318 -22 c 256,21,22
 318 0 318 0 333 15 c 128,-1,23
 348 30 348 30 370 30 c 256,12,13
695 66 m 1,24,-1
 571 66 l 1,25,-1
 379 457 l 1,26,-1
 232 457 l 1,27,28
 232 456 232 456 233 66 c 1,29,-1
 123 66 l 1,30,-1
 123 528 l 1,31,-1
 372 528 l 1,32,-1
 704 738 l 1,33,-1
 764 671 l 1,34,-1
 494 483 l 1,35,-1
 695 66 l 1,24,-1
EndSplineSet
EndChar

StartChar: daggerdbl
Encoding: 8225 8225 73
Width: 822
GlyphClass: 1
Flags: W
LayerCount: 2
Fore
SplineSet
340 165 m 256,0,1
 362 165 362 165 377 149.5 c 128,-1,2
 392 134 392 134 392 113 c 256,3,4
 392 91 392 91 376.5 76.5 c 0,5,6
 362 62 362 62 340 62 c 256,7,8
 318 62 318 62 303 76.5 c 128,-1,9
 288 91 288 91 288 113 c 256,10,11
 288 135 288 135 303 150 c 128,-1,12
 318 165 318 165 340 165 c 256,0,1
495 57 m 1,13,-1
 495 483 l 1,14,-1
 271 483 l 1,15,-1
 271 366 l 1,16,-1
 113 366 l 1,17,-1
 113 519 l 1,18,-1
 602 519 l 1,19,-1
 602 57 l 1,20,-1
 495 57 l 1,13,-1
EndSplineSet
EndChar

StartChar: guilsinglleft
Encoding: 8249 8249 74
Width: 384
GlyphClass: 1
Flags: W
LayerCount: 2
Fore
SplineSet
291 608 m 1,0,-1
 146 608 l 1,1,-1
 146 462 l 1,2,-1
 97 462 l 1,3,-1
 97 657 l 1,4,-1
 291 657 l 1,5,-1
 291 608 l 1,0,-1
EndSplineSet
EndChar

StartChar: OE
Encoding: 338 338 75
Width: 384
GlyphClass: 1
Flags: W
LayerCount: 2
Fore
SplineSet
281 657 m 1,0,-1
 281 462 l 1,1,-1
 232 462 l 1,2,-1
 232 608 l 1,3,-1
 87 608 l 1,4,-1
 87 657 l 1,5,-1
 281 657 l 1,0,-1
EndSplineSet
EndChar

StartChar: oe
Encoding: 339 339 76
Width: 564
GlyphClass: 1
Flags: W
LayerCount: 2
Fore
SplineSet
130 418 m 256,0,1
 151 418 151 418 165 403.5 c 128,-1,2
 179 389 179 389 179 367 c 0,3,4
 179 347 179 347 165 332.5 c 128,-1,5
 151 318 151 318 130 318 c 0,6,7
 110 318 110 318 94.5 332.5 c 128,-1,8
 79 347 79 347 79 367 c 0,9,10
 79 388 79 388 94 403 c 128,-1,11
 109 418 109 418 130 418 c 256,0,1
183 231 m 256,12,13
 183 252 183 252 197.5 266.5 c 128,-1,14
 212 281 212 281 234 281 c 0,15,16
 254 281 254 281 268.5 266.5 c 128,-1,17
 283 252 283 252 283 231 c 0,18,19
 283 211 283 211 268.5 196 c 128,-1,20
 254 181 254 181 234 181 c 0,21,22
 213 181 213 181 198 195.5 c 128,-1,23
 183 210 183 210 183 231 c 256,12,13
183 505 m 256,24,25
 183 526 183 526 197.5 540 c 128,-1,26
 212 554 212 554 234 554 c 0,27,28
 254 554 254 554 268.5 540 c 128,-1,29
 283 526 283 526 283 505 c 0,30,31
 283 485 283 485 268.5 469.5 c 128,-1,32
 254 454 254 454 234 454 c 0,33,34
 213 454 213 454 198 469 c 128,-1,35
 183 484 183 484 183 505 c 256,24,25
EndSplineSet
EndChar

StartChar: Ydieresis
Encoding: 376 376 77
Width: 256
GlyphClass: 1
Flags: W
LayerCount: 2
Fore
SplineSet
210 610 m 256,0,1
 210 596 210 596 200 586 c 128,-1,2
 190 576 190 576 176 576 c 256,3,4
 162 576 162 576 152 586 c 128,-1,5
 142 596 142 596 142 610 c 256,6,7
 142 624 142 624 152 634 c 128,-1,8
 162 644 162 644 176 644 c 256,9,10
 190 644 190 644 200 634 c 128,-1,11
 210 624 210 624 210 610 c 256,0,1
106 -22 m 256,12,13
 106 -36 106 -36 96 -46 c 128,-1,14
 86 -56 86 -56 72 -56 c 256,15,16
 58 -56 58 -56 48 -46 c 128,-1,17
 38 -36 38 -36 38 -22 c 256,18,19
 38 -8 38 -8 48 2 c 128,-1,20
 58 12 58 12 72 12 c 256,21,22
 86 12 86 12 96 2 c 128,-1,23
 106 -8 106 -8 106 -22 c 256,12,13
EndSplineSet
EndChar

StartChar: guillemotleft
Encoding: 171 171 78
Width: 512
GlyphClass: 1
Flags: W
LayerCount: 2
Fore
SplineSet
244 226 m 1,0,-1
 269 248 l 2,1,2
 300 275 300 275 343 314 c 0,3,4
 381 349 381 349 400 368 c 0,5,6
 410 378 410 378 413 378 c 0,7,8
 421 378 421 378 421 369 c 256,9,10
 421 360 421 360 359 278 c 0,11,12
 339 251 339 251 319 225 c 1,13,14
 330 210 330 210 351 183 c 0,15,16
 381 147 381 147 385 142 c 0,17,18
 399 124 399 124 408 108 c 0,19,20
 422 86 422 86 422 80 c 0,21,22
 422 71 422 71 413 71 c 0,23,24
 410 71 410 71 392 89 c 0,25,26
 328 152 328 152 310.5 167 c 128,-1,27
 293 182 293 182 275 199 c 0,28,29
 265 208 265 208 244 226 c 1,0,-1
76 226 m 1,30,-1
 101 248 l 2,31,32
 132 275 132 275 175 314 c 0,33,34
 213 349 213 349 232 368 c 0,35,36
 242 378 242 378 245 378 c 0,37,38
 253 378 253 378 253 369 c 256,39,40
 253 360 253 360 191 278 c 0,41,42
 171 251 171 251 151 225 c 1,43,44
 162 210 162 210 183 183 c 0,45,46
 213 147 213 147 217 142 c 0,47,48
 231 124 231 124 240 108 c 0,49,50
 254 86 254 86 254 80 c 0,51,52
 254 71 254 71 245 71 c 0,53,54
 242 71 242 71 224 89 c 0,55,56
 160 152 160 152 142.5 167 c 128,-1,57
 125 182 125 182 107 199 c 0,58,59
 97 208 97 208 76 226 c 1,30,-1
EndSplineSet
EndChar

StartChar: logicalnot
Encoding: 172 172 79
Width: 416
GlyphClass: 1
Flags: W
LayerCount: 2
Fore
SplineSet
344 72 m 1,0,-1
 331 57 l 1,1,-1
 52 314 l 1,2,-1
 331 564 l 1,3,-1
 343 548 l 1,4,-1
 174 311 l 1,5,-1
 344 72 l 1,0,-1
EndSplineSet
EndChar

StartChar: minus
Encoding: 173 173 80
Width: 416
GlyphClass: 1
Flags: W
LayerCount: 2
Fore
SplineSet
354 314 m 1,0,-1
 75 57 l 1,1,2
 75 56 75 56 62 72 c 1,3,-1
 232 311 l 1,4,5
 232 310 232 310 63 548 c 1,6,-1
 75 564 l 1,7,-1
 354 314 l 1,0,-1
EndSplineSet
EndChar

StartChar: registered
Encoding: 174 174 81
Width: 600
GlyphClass: 1
Flags: W
LayerCount: 2
Fore
SplineSet
123 418 m 256,0,1
 144 418 144 418 158.5 403.5 c 128,-1,2
 173 389 173 389 173 367 c 0,3,4
 173 347 173 347 158.5 332.5 c 128,-1,5
 144 318 144 318 123 318 c 0,6,7
 103 318 103 318 88 332.5 c 128,-1,8
 73 347 73 347 73 367 c 0,9,10
 73 388 73 388 87.5 403 c 128,-1,11
 102 418 102 418 123 418 c 256,0,1
333 418 m 256,12,13
 354 418 354 418 368 403.5 c 128,-1,14
 382 389 382 389 382 367 c 0,15,16
 382 347 382 347 368 332.5 c 128,-1,17
 354 318 354 318 333 318 c 0,18,19
 313 318 313 318 297.5 332.5 c 128,-1,20
 282 347 282 347 282 367 c 0,21,22
 282 388 282 388 297 403 c 128,-1,23
 312 418 312 418 333 418 c 256,12,13
177 231 m 256,24,25
 177 252 177 252 191.5 266.5 c 128,-1,26
 206 281 206 281 227 281 c 0,27,28
 247 281 247 281 261.5 266.5 c 128,-1,29
 276 252 276 252 276 231 c 0,30,31
 276 211 276 211 261.5 196 c 128,-1,32
 247 181 247 181 227 181 c 0,33,34
 206 181 206 181 191.5 195.5 c 128,-1,35
 177 210 177 210 177 231 c 256,24,25
177 505 m 256,36,37
 177 526 177 526 191.5 540 c 128,-1,38
 206 554 206 554 227 554 c 0,39,40
 247 554 247 554 261.5 540 c 128,-1,41
 276 526 276 526 276 505 c 0,42,43
 276 485 276 485 261.5 469.5 c 128,-1,44
 247 454 247 454 227 454 c 0,45,46
 206 454 206 454 191.5 469 c 128,-1,47
 177 484 177 484 177 505 c 256,36,37
EndSplineSet
EndChar

StartChar: periodcentered
Encoding: 183 183 82
AltUni2: 002219.ffffffff.0 002219.ffffffff.0
Width: 235
GlyphClass: 1
Flags: W
LayerCount: 2
Fore
SplineSet
177 596 m 256,0,1
 177 582 177 582 167 572 c 128,-1,2
 157 562 157 562 143 562 c 256,3,4
 129 562 129 562 119 572 c 128,-1,5
 109 582 109 582 109 596 c 256,6,7
 109 610 109 610 119 620 c 128,-1,8
 129 630 129 630 143 630 c 256,9,10
 157 630 157 630 167 620 c 128,-1,11
 177 610 177 610 177 596 c 256,0,1
129 492 m 256,12,13
 129 478 129 478 119 468 c 128,-1,14
 109 458 109 458 95 458 c 256,15,16
 81 458 81 458 71 468 c 128,-1,17
 61 478 61 478 61 492 c 256,18,19
 61 506 61 506 71 516 c 128,-1,20
 81 526 81 526 95 526 c 256,21,22
 109 526 109 526 119 516 c 128,-1,23
 129 506 129 506 129 492 c 256,12,13
EndSplineSet
EndChar

StartChar: cedilla
Encoding: 184 184 83
Width: 256
GlyphClass: 1
Flags: W
LayerCount: 2
Fore
SplineSet
210 -101 m 256,0,1
 210 -115 210 -115 200 -125 c 128,-1,2
 190 -135 190 -135 176 -135 c 256,3,4
 162 -135 162 -135 152 -125 c 128,-1,5
 142 -115 142 -115 142 -101 c 256,6,7
 142 -87 142 -87 152 -77 c 128,-1,8
 162 -67 162 -67 176 -67 c 256,9,10
 190 -67 190 -67 200 -77 c 128,-1,11
 210 -87 210 -87 210 -101 c 256,0,1
106 -101 m 256,12,13
 106 -115 106 -115 96 -125 c 128,-1,14
 86 -135 86 -135 72 -135 c 256,15,16
 58 -135 58 -135 48 -125 c 128,-1,17
 38 -115 38 -115 38 -101 c 256,18,19
 38 -87 38 -87 48 -77 c 128,-1,20
 58 -67 58 -67 72 -67 c 256,21,22
 86 -67 86 -67 96 -77 c 128,-1,23
 106 -87 106 -87 106 -101 c 256,12,13
EndSplineSet
EndChar

StartChar: onesuperior
Encoding: 185 185 84
Width: 256
GlyphClass: 1
Flags: W
LayerCount: 2
Fore
SplineSet
210 -116 m 256,0,1
 210 -130 210 -130 200 -140 c 128,-1,2
 190 -150 190 -150 176 -150 c 256,3,4
 162 -150 162 -150 152 -140 c 128,-1,5
 142 -130 142 -130 142 -116 c 256,6,7
 142 -102 142 -102 152 -92 c 128,-1,8
 162 -82 162 -82 176 -82 c 256,9,10
 190 -82 190 -82 200 -92 c 128,-1,11
 210 -102 210 -102 210 -116 c 256,0,1
106 -236 m 256,12,13
 106 -250 106 -250 96 -260 c 128,-1,14
 86 -270 86 -270 72 -270 c 256,15,16
 58 -270 58 -270 48 -260 c 128,-1,17
 38 -250 38 -250 38 -236 c 256,18,19
 38 -222 38 -222 48 -212 c 128,-1,20
 58 -202 58 -202 72 -202 c 256,21,22
 86 -202 86 -202 96 -212 c 128,-1,23
 106 -222 106 -222 106 -236 c 256,12,13
EndSplineSet
EndChar

StartChar: guillemotright
Encoding: 187 187 85
Width: 512
GlyphClass: 1
Flags: W
LayerCount: 2
Fore
SplineSet
424 226 m 1,0,1
 404 208 404 208 393 199 c 0,2,3
 375 182 375 182 357 166 c 0,4,5
 331 144 331 144 289 102 c 0,6,7
 258 71 258 71 255 71 c 0,8,9
 246 71 246 71 246 80 c 0,10,11
 246 88 246 88 265 116 c 0,12,13
 271 126 271 126 282.5 141.5 c 128,-1,14
 294 157 294 157 316 183 c 0,15,16
 346 219 346 219 349 225 c 1,17,18
 293 299 293 299 292 301 c 0,19,20
 247 362 247 362 247 369 c 0,21,22
 247 378 247 378 255 378 c 0,23,24
 258 378 258 378 268 368 c 0,25,26
 290 346 290 346 325 314 c 0,27,28
 371 271 371 271 399 248 c 2,29,-1
 424 226 l 1,0,1
256 226 m 1,30,31
 236 208 236 208 225 199 c 0,32,33
 207 182 207 182 189 166 c 0,34,35
 163 144 163 144 121 102 c 0,36,37
 90 71 90 71 87 71 c 0,38,39
 78 71 78 71 78 80 c 0,40,41
 78 88 78 88 97 116 c 0,42,43
 103 126 103 126 114.5 141.5 c 128,-1,44
 126 157 126 157 148 183 c 0,45,46
 178 219 178 219 181 225 c 1,47,48
 125 299 125 299 124 301 c 0,49,50
 79 362 79 362 79 369 c 0,51,52
 79 378 79 378 87 378 c 0,53,54
 90 378 90 378 100 368 c 0,55,56
 122 346 122 346 157 314 c 0,57,58
 203 271 203 271 231 248 c 2,59,-1
 256 226 l 1,30,31
EndSplineSet
EndChar

StartChar: onequarter
Encoding: 188 188 86
Width: 118
GlyphClass: 1
Flags: W
LayerCount: 2
Fore
SplineSet
93 -101 m 256,0,1
 93 -115 93 -115 83 -125 c 128,-1,2
 73 -135 73 -135 59 -135 c 256,3,4
 45 -135 45 -135 35 -125 c 128,-1,5
 25 -115 25 -115 25 -101 c 256,6,7
 25 -87 25 -87 35 -77 c 128,-1,8
 45 -67 45 -67 59 -67 c 256,9,10
 73 -67 73 -67 83 -77 c 128,-1,11
 93 -87 93 -87 93 -101 c 256,0,1
EndSplineSet
EndChar

StartChar: Agrave
Encoding: 192 192 87
Width: 157
GlyphClass: 1
Flags: W
LayerCount: 2
Fore
SplineSet
77 -82 m 260,0,1
 98 -82 98 -82 112 -96.5 c 132,-1,2
 126 -111 126 -111 126 -133 c 4,3,4
 126 -153 126 -153 112 -167.5 c 132,-1,5
 98 -182 98 -182 77 -182 c 4,6,7
 57 -182 57 -182 41.5 -167.5 c 132,-1,8
 26 -153 26 -153 26 -133 c 4,9,10
 26 -112 26 -112 41 -97 c 132,-1,11
 56 -82 56 -82 77 -82 c 260,0,1
EndSplineSet
EndChar

StartChar: Aacute
Encoding: 193 193 88
Width: 157
GlyphClass: 1
Flags: W
LayerCount: 2
Fore
SplineSet
77 698 m 260,0,1
 98 698 98 698 112 683.5 c 132,-1,2
 126 669 126 669 126 647 c 4,3,4
 126 627 126 627 112 612.5 c 132,-1,5
 98 598 98 598 77 598 c 4,6,7
 57 598 57 598 41.5 612.5 c 132,-1,8
 26 627 26 627 26 647 c 4,9,10
 26 668 26 668 41 683 c 132,-1,11
 56 698 56 698 77 698 c 260,0,1
EndSplineSet
EndChar

StartChar: Acircumflex
Encoding: 194 194 89
Width: 333
GlyphClass: 1
Flags: W
LayerCount: 2
Fore
SplineSet
95 698 m 260,0,1
 116 698 116 698 130.5 683.5 c 132,-1,2
 145 669 145 669 145 647 c 4,3,4
 145 627 145 627 130.5 612.5 c 132,-1,5
 116 598 116 598 95 598 c 4,6,7
 75 598 75 598 60 612.5 c 132,-1,8
 45 627 45 627 45 647 c 4,9,10
 45 668 45 668 59.5 683 c 132,-1,11
 74 698 74 698 95 698 c 260,0,1
241 698 m 260,12,13
 262 698 262 698 276 683.5 c 132,-1,14
 290 669 290 669 290 647 c 4,15,16
 290 627 290 627 276 612.5 c 132,-1,17
 262 598 262 598 241 598 c 4,18,19
 221 598 221 598 205.5 612.5 c 132,-1,20
 190 627 190 627 190 647 c 4,21,22
 190 668 190 668 205 683 c 132,-1,23
 220 698 220 698 241 698 c 260,12,13
EndSplineSet
EndChar

StartChar: Igrave
Encoding: 204 204 90
Width: 440
GlyphClass: 1
Flags: W
LayerCount: 2
Fore
SplineSet
173 365 m 260,0,1
 173 343 173 343 158 329 c 132,-1,2
 143 315 143 315 121 315 c 260,3,4
 99 315 99 315 85 329.5 c 132,-1,5
 71 344 71 344 71 365 c 260,6,7
 71 387 71 387 85.5 402 c 132,-1,8
 100 417 100 417 121 417 c 260,9,10
 143 417 143 417 158 402 c 132,-1,11
 173 387 173 387 173 365 c 260,0,1
EndSplineSet
EndChar

StartChar: Icircumflex
Encoding: 206 206 91
Width: 423
GlyphClass: 1
Flags: W
LayerCount: 2
Fore
SplineSet
96 454 m 1,0,-1
 136 563 l 1,1,-1
 348 563 l 1,2,-1
 305 454 l 1,3,-1
 96 454 l 1,0,-1
EndSplineSet
EndChar

StartChar: Eth
Encoding: 208 208 92
Width: 908
GlyphClass: 1
Flags: W
LayerCount: 2
Fore
SplineSet
91 212 m 1,0,-1
 91 250 l 1,1,-1
 817 250 l 1,2,-1
 817 212 l 1,3,-1
 91 212 l 1,0,-1
EndSplineSet
EndChar

StartChar: Ntilde
Encoding: 209 209 93
Width: 4
GlyphClass: 1
Flags: W
LayerCount: 2
Fore
SplineSet
17 5 m 1,0,-1
 -285 5 l 1,1,-1
 -285 45 l 1,2,-1
 17 45 l 1,3,-1
 17 5 l 1,0,-1
EndSplineSet
EndChar

StartChar: Ograve
Encoding: 210 210 94
Width: 4
GlyphClass: 1
Flags: W
LayerCount: 2
Fore
SplineSet
270 5 m 5,0,-1
 -8 5 l 5,1,-1
 -8 45 l 5,2,-1
 270 45 l 5,3,-1
 270 5 l 5,0,-1
EndSplineSet
EndChar

StartChar: Oacute
Encoding: 211 211 95
Width: 4
GlyphClass: 1
Flags: W
LayerCount: 2
Fore
SplineSet
26 5 m 1,0,-1
 -204 5 l 1,1,-1
 -204 45 l 1,2,-1
 26 45 l 1,3,-1
 26 5 l 1,0,-1
EndSplineSet
EndChar

StartChar: Ocircumflex
Encoding: 212 212 96
Width: 4
GlyphClass: 1
Flags: W
LayerCount: 2
Fore
SplineSet
162 5 m 1,0,-1
 -20 5 l 1,1,-1
 -20 45 l 1,2,-1
 162 45 l 1,3,-1
 162 5 l 1,0,-1
EndSplineSet
EndChar

StartChar: agrave
Encoding: 224 224 97
Width: 840
GlyphClass: 1
Flags: W
LayerCount: 2
Fore
SplineSet
695 0 m 5,0,-1
 571 0 l 5,1,-1
 379 390 l 5,2,-1
 232 390 l 5,3,-1
 233 0 l 5,4,-1
 123 0 l 5,5,-1
 123 462 l 5,6,-1
 372 462 l 5,7,-1
 704 671 l 5,8,-1
 764 605 l 5,9,-1
 494 417 l 5,10,-1
 695 0 l 5,0,-1
EndSplineSet
EndChar

StartChar: aacute
Encoding: 225 225 98
Width: 800
GlyphClass: 1
Flags: W
LayerCount: 2
Fore
SplineSet
689 58 m 1,0,-1
 112 58 l 1,1,-1
 112 98 l 1,2,-1
 582 98 l 1,3,-1
 582 483 l 1,4,-1
 270 483 l 1,5,6
 270 482 270 482 270 366 c 1,7,-1
 112 366 l 1,8,-1
 112 519 l 1,9,-1
 689 519 l 1,10,-1
 689 58 l 1,0,-1
EndSplineSet
EndChar

StartChar: acircumflex
Encoding: 226 226 99
Width: 760
GlyphClass: 1
Flags: W
LayerCount: 2
Fore
SplineSet
324 83 m 1,0,1
 324 84 324 84 201 472 c 2,2,3
 194 485 194 485 160 516 c 0,4,5
 149 526 149 526 125 547 c 1,6,7
 126 547 126 547 292 547 c 1,8,-1
 402 83 l 1,9,-1
 496 43 l 1,10,11
 508 33 508 33 612 -7 c 0,12,13
 711 -45 711 -45 729.5 -49 c 128,-1,14
 748 -53 748 -53 769 -58 c 1,15,16
 790 -66 790 -66 790 -89 c 0,17,18
 790 -119 790 -119 758 -120 c 0,19,20
 684 -120 684 -120 572 -70 c 128,-1,21
 460 -20 460 -20 403 43 c 1,22,-1
 265 43 l 1,23,-1
 265 83 l 1,24,-1
 324 83 l 1,0,1
EndSplineSet
EndChar

StartChar: atilde
Encoding: 227 227 100
Width: 864
GlyphClass: 1
Flags: W
LayerCount: 2
Fore
SplineSet
655 57 m 1,0,-1
 655 483 l 1,1,-1
 431 483 l 1,2,-1
 431 366 l 1,3,-1
 273 366 l 1,4,-1
 273 519 l 1,5,-1
 762 519 l 1,6,-1
 762 57 l 1,7,-1
 655 57 l 1,0,-1
EndSplineSet
EndChar

StartChar: adieresis
Encoding: 228 228 101
Width: 870
GlyphClass: 1
Flags: W
LayerCount: 2
Fore
SplineSet
114 58 m 1,0,-1
 114 519 l 1,1,-1
 758 519 l 1,2,-1
 758 58 l 1,3,-1
 647 58 l 1,4,-1
 647 477 l 1,5,-1
 495 477 l 1,6,-1
 495 58 l 1,7,-1
 383 58 l 1,8,-1
 383 477 l 1,9,-1
 228 477 l 1,10,-1
 228 58 l 1,11,-1
 114 58 l 1,0,-1
EndSplineSet
EndChar

StartChar: aring
Encoding: 229 229 102
Width: 644
GlyphClass: 1
Flags: W
LayerCount: 2
Fore
SplineSet
546 293 m 0,0,1
 546 193 546 193 484 125.5 c 128,-1,2
 422 58 422 58 328 58 c 0,3,4
 230 58 230 58 163 122 c 0,5,6
 94 188 94 188 94 290 c 0,7,8
 94 393 94 393 174 463 c 0,9,10
 243 525 243 525 317 525 c 0,11,12
 400 525 400 525 467 469 c 0,13,14
 546 403 546 403 546 293 c 0,0,1
416 294 m 0,15,16
 416 368 416 368 394 422 c 0,17,18
 366 488 366 488 318 488 c 0,19,20
 278 488 278 488 256 422 c 0,21,22
 237 367 237 367 237 294 c 256,23,24
 237 221 237 221 258 169 c 0,25,26
 284 104 284 104 329 104 c 0,27,28
 379 104 379 104 401 168 c 0,29,30
 416 213 416 213 416 294 c 0,15,16
EndSplineSet
EndChar

StartChar: ae
Encoding: 230 230 103
Width: 402
GlyphClass: 1
Flags: W
LayerCount: 2
Fore
SplineSet
352 58 m 1,0,-1
 232 58 l 1,1,-1
 232 519 l 1,2,-1
 352 519 l 1,3,-1
 352 58 l 1,0,-1
EndSplineSet
EndChar

StartChar: ccedilla
Encoding: 231 231 104
Width: 552
GlyphClass: 1
Flags: W
LayerCount: 2
Fore
SplineSet
89 58 m 1,0,-1
 89 519 l 1,1,-1
 219 519 l 1,2,-1
 382 163 l 1,3,-1
 387 163 l 1,4,-1
 387 519 l 1,5,-1
 463 519 l 1,6,-1
 463 58 l 1,7,-1
 349 58 l 1,8,-1
 177 423 l 1,9,-1
 170 423 l 1,10,-1
 170 58 l 1,11,-1
 89 58 l 1,0,-1
EndSplineSet
EndChar

StartChar: egrave
Encoding: 232 232 105
Width: 912
GlyphClass: 1
Flags: W
AnchorPoint: "curs" 204 1 exit 0
AnchorPoint: "curs" 750 0 entry 0
LayerCount: 2
Fore
SplineSet
791 40 m 1,0,-1
 529 -209 l 1,1,-1
 343 -208 l 1,2,-1
 267 0 l 1,3,-1
 205 0 l 1,4,-1
 205 40 l 1,5,-1
 253 40 l 1,6,-1
 168 300 l 1,7,8
 144 383 144 383 129.5 425 c 0,9,10
 93.2646484375 529.958984375 93.2646484375 529.958984375 23 575 c 1,11,-1
 23 588 l 1,12,-1
 223 588 l 1,13,-1
 376 40 l 1,14,-1
 791 40 l 1,0,-1
640 0 m 1,15,-1
 389 0 l 1,16,17
 389 -1 389 -1 443 -173 c 1,18,19
 462.215820312 -162.32421875 462.215820312 -162.32421875 640 0 c 1,15,-1
EndSplineSet
EndChar

StartChar: eacute
Encoding: 233 233 106
Width: 520
GlyphClass: 1
Flags: W
LayerCount: 2
Fore
SplineSet
110 90 m 1,0,-1
 160 452 l 1,1,-1
 234 452 l 1,2,-1
 394 90 l 1,3,-1
 458 90 l 1,4,-1
 458 50 l 1,5,-1
 69 50 l 1,6,-1
 69 90 l 1,7,-1
 110 90 l 1,0,-1
EndSplineSet
EndChar

StartChar: ecircumflex
Encoding: 234 234 107
Width: 868
GlyphClass: 1
Flags: W
LayerCount: 2
Fore
SplineSet
574 192 m 1,0,1
 560 82 560 82 507 32 c 0,2,3
 457 -14 457 -14 364 -15 c 0,4,5
 277 -15 277 -15 220 54 c 0,6,7
 168 116 168 116 168 192 c 2,8,-1
 168 374 l 1,9,-1
 252 374 l 1,10,-1
 252 264 l 2,11,12
 252 162 252 162 284 112 c 0,13,14
 313 69 313 69 368 69 c 0,15,16
 450 69 450 69 480 134 c 0,17,18
 500 178 500 178 500 276 c 2,19,-1
 500 374 l 1,20,-1
 592 374 l 1,21,-1
 932 -280 l 1,22,-1
 932 -290 l 1,23,-1
 884 -291 l 1,24,-1
 574 192 l 1,0,1
EndSplineSet
EndChar

StartChar: edieresis
Encoding: 235 235 108
Width: 524
GlyphClass: 1
Flags: W
LayerCount: 2
Fore
SplineSet
437 58 m 1,0,-1
 76 58 l 1,1,-1
 76 98 l 1,2,-1
 333 98 l 1,3,-1
 334 369 l 2,4,5
 334 389 334 389 324 402.5 c 128,-1,6
 314 416 314 416 297 416 c 128,-1,7
 280 416 280 416 262 401 c 0,8,9
 237 380 237 380 202 328 c 1,10,-1
 86 328 l 1,11,-1
 82 333 l 1,12,13
 95 351 95 351 106 365 c 0,14,15
 134 400 134 400 182 452 c 0,16,17
 205 477 205 477 231 495 c 0,18,19
 269 521 269 521 298 521 c 0,20,21
 360 521 360 521 398.5 480 c 0,22,23
 437 440 437 440 437 376 c 2,24,-1
 437 58 l 1,0,-1
EndSplineSet
EndChar

StartChar: igrave
Encoding: 236 236 109
Width: 628
GlyphClass: 1
Flags: W
LayerCount: 2
Fore
SplineSet
533 74 m 1,0,-1
 101 74 l 1,1,-1
 101 114 l 1,2,-1
 412 114 l 1,3,-1
 414 118 l 1,4,-1
 179 591 l 2,5,6
 167 612 167 612 141 634 c 0,7,8
 130 644 130 644 101 662 c 1,9,-1
 295 662 l 1,10,-1
 533 82 l 1,11,-1
 533 74 l 1,0,-1
EndSplineSet
EndChar

StartChar: icircumflex
Encoding: 238 238 110
Width: 892
GlyphClass: 1
Flags: W
LayerCount: 2
Fore
SplineSet
771 58 m 5,0,-1
 116 58 l 1,1,-1
 116 98 l 1,2,-1
 373 98 l 1,3,-1
 373 476 l 1,4,-1
 269 476 l 1,5,-1
 269 369 l 1,6,-1
 116 369 l 1,7,-1
 116 519 l 1,8,-1
 771 519 l 1,9,-1
 771 58 l 5,0,-1
658 98 m 1,10,-1
 658 474 l 1,11,-1
 487 474 l 1,12,-1
 487 98 l 1,13,-1
 658 98 l 1,10,-1
EndSplineSet
EndChar

StartChar: idieresis
Encoding: 239 239 111
Width: 807
GlyphClass: 1
Flags: W
LayerCount: 2
Fore
SplineSet
478 27 m 6,0,-1
 521 -13 l 5,1,2
 604 -79 604 -79 700 -142 c 4,3,4
 771 -189 771 -189 855 -237 c 4,5,6
 907 -267 907 -267 989 -312 c 5,7,8
 988 -312 988 -312 984 -328 c 5,9,10
 870 -286 870 -286 757 -244 c 4,11,12
 611 -188 611 -188 495 -136 c 4,13,14
 350 -71 350 -71 264 -15 c 4,15,16
 211 19 211 19 181 50 c 4,17,18
 143 89 143 89 144 123 c 4,19,20
 144 136 144 136 147 145 c 132,-1,21
 150 154 150 154 160 166 c 4,22,23
 174 182 174 182 189.5 189 c 132,-1,24
 205 196 205 196 222 196 c 4,25,26
 262 196 262 196 319 154 c 4,27,28
 352 127 352 127 364 118 c 4,29,30
 389 96 389 96 422 70 c 4,31,32
 471 33 471 33 478 27 c 6,0,-1
EndSplineSet
EndChar

StartChar: eth
Encoding: 240 240 112
Width: 466
GlyphClass: 1
Flags: W
LayerCount: 2
Fore
SplineSet
393 479 m 1,0,-1
 325 479 l 1,1,-1
 325 58 l 1,2,-1
 77 58 l 1,3,-1
 77 98 l 1,4,-1
 216 98 l 1,5,-1
 216 480 l 1,6,-1
 145 480 l 1,7,-1
 145 519 l 1,8,-1
 393 519 l 1,9,-1
 393 479 l 1,0,-1
EndSplineSet
EndChar

StartChar: ntilde
Encoding: 241 241 113
Width: 935
GlyphClass: 1
Flags: W
LayerCount: 2
Fore
SplineSet
741 299 m 0,0,1
 741 353 741 353 717 394 c 0,2,3
 688 444 688 444 641 444 c 0,4,5
 607 444 607 444 578 410 c 0,6,7
 554 381 554 381 534 324 c 0,8,9
 529 312 529 312 523 283 c 0,10,11
 509 219 509 219 509 179 c 0,12,13
 509 142 509 142 525.5 126.5 c 128,-1,14
 542 111 542 111 576 111 c 0,15,16
 654 111 654 111 699 167 c 0,17,18
 741 219 741 219 741 299 c 0,0,1
429 179 m 0,19,20
 429 213 429 213 420 258 c 128,-1,21
 411 303 411 303 403 324 c 0,22,23
 383 380 383 380 359 410 c 0,24,25
 332 444 332 444 297 444 c 0,26,27
 250 444 250 444 222 395 c 0,28,29
 197 352 197 352 197 299 c 0,30,31
 197 219 197 219 238 168 c 0,32,33
 283 111 283 111 362 111 c 0,34,35
 395 111 395 111 412 127 c 128,-1,36
 429 143 429 143 429 179 c 0,19,20
676 58 m 2,37,-1
 247 58 l 2,38,39
 197 58 197 58 154 130 c 0,40,41
 116 193 116 193 109 256 c 0,42,43
 108 266 108 266 107.5 273 c 128,-1,44
 107 280 107 280 107 284 c 0,45,46
 107 358 107 358 140 418 c 128,-1,47
 173 478 173 478 222 506 c 0,48,49
 235 513 235 513 260.5 517.5 c 128,-1,50
 286 522 286 522 303 522 c 0,51,52
 345 522 345 522 389 478 c 0,53,54
 419 447 419 447 447 396 c 0,55,56
 457 374 457 374 469 352 c 1,57,58
 479 374 479 374 490 396 c 0,59,60
 519 447 519 447 549 478 c 0,61,62
 592 522 592 522 634 522 c 0,63,64
 663 522 663 522 680.5 519 c 128,-1,65
 698 516 698 516 716 506 c 0,66,67
 771 473 771 473 798 420 c 0,68,69
 828 361 828 361 829 272 c 0,70,71
 829 218 829 218 777 140 c 0,72,73
 722 58 722 58 676 58 c 2,37,-1
EndSplineSet
EndChar

StartChar: ograve
Encoding: 242 242 114
Width: 684
GlyphClass: 1
Flags: W
LayerCount: 2
Fore
SplineSet
620 58 m 1,0,-1
 104 58 l 1,1,-1
 104 98 l 1,2,-1
 457 98 l 1,3,-1
 184 370 l 2,4,5
 156 398 156 398 142 413 c 0,6,7
 104 455 104 455 104 469 c 0,8,9
 104 499 104 499 134 511 c 0,10,11
 153 519 153 519 187 519 c 2,12,-1
 337 519 l 1,13,-1
 337 430 l 1,14,-1
 256 430 l 2,15,16
 252 430 252 430 248.5 426.5 c 128,-1,17
 245 423 245 423 245 421 c 0,18,19
 245 417 245 417 331 333 c 0,20,21
 399 266 399 266 490 179 c 0,22,23
 533 137 533 137 576 97 c 2,24,-1
 620 58 l 1,0,-1
EndSplineSet
EndChar

StartChar: oacute
Encoding: 243 243 115
Width: 754
GlyphClass: 1
Flags: W
LayerCount: 2
Fore
SplineSet
156 98 m 1,0,1
 135 178 135 178 118 250 c 0,2,3
 96 348 96 348 96 371 c 0,4,5
 96 456 96 456 116 490 c 0,6,7
 134 520 134 520 169 519 c 2,8,-1
 516 519 l 2,9,10
 540 519 540 519 564 459 c 0,11,12
 586 405 586 405 586 371 c 0,13,14
 586 307 586 307 525 240 c 0,15,16
 498 212 498 212 472 185 c 1,17,-1
 464 185 l 1,18,-1
 428 243 l 1,19,20
 450 276 450 276 461 294 c 0,21,22
 494 350 494 350 494 373 c 0,23,24
 494 398 494 398 483 422 c 128,-1,25
 472 446 472 446 464 446 c 2,26,-1
 209 446 l 2,27,28
 191 446 191 446 183 402 c 0,29,30
 180 385 180 385 180 371 c 0,31,32
 180 345 180 345 208 229 c 128,-1,33
 236 113 236 113 248 92 c 1,34,-1
 260 58 l 1,35,-1
 65 58 l 1,36,-1
 65 98 l 1,37,-1
 156 98 l 1,0,1
EndSplineSet
EndChar

StartChar: ocircumflex
Encoding: 244 244 116
Width: 680
GlyphClass: 1
Flags: W
LayerCount: 2
Fore
SplineSet
585 371 m 0,0,1
 585 349 585 349 567 270 c 0,2,3
 560 238 560 238 533 129 c 0,4,5
 523 93 523 93 514 57 c 1,6,-1
 420 57 l 1,7,-1
 106 57 l 1,8,-1
 106 98 l 1,9,-1
 433 98 l 1,10,11
 445 120 445 120 473 232.5 c 128,-1,12
 501 345 501 345 501 371 c 0,13,14
 501 392 501 392 495 414 c 0,15,16
 487 446 487 446 471 446 c 2,17,-1
 216 446 l 2,18,19
 209 446 209 446 197.5 421 c 128,-1,20
 186 396 186 396 186 373 c 0,21,22
 186 355 186 355 207.5 318 c 128,-1,23
 229 281 229 281 252 243 c 1,24,25
 252 237 252 237 244 225 c 0,26,27
 223 195 223 195 217 185 c 1,28,-1
 209 185 l 1,29,30
 174 223 174 223 138 262 c 1,31,32
 95 317 95 317 94 371 c 0,33,34
 94 404 94 404 117 461.5 c 128,-1,35
 140 519 140 519 164 519 c 2,36,-1
 511 519 l 2,37,38
 556 519 556 519 573 470 c 0,39,40
 585 435 585 435 585 371 c 0,0,1
EndSplineSet
EndChar

StartChar: odieresis
Encoding: 246 246 117
Width: 780
GlyphClass: 1
Flags: W
LayerCount: 2
Fore
SplineSet
675 19 m 1,0,-1
 328 19 l 1,1,2
 398 -2 398 -2 468 -23 c 1,3,4
 552 -64 552 -64 552 -152 c 0,5,6
 552 -203 552 -203 475 -245 c 0,7,8
 389 -292 389 -292 262 -292 c 2,9,-1
 63 -290 l 1,10,-1
 64 -242 l 1,11,-1
 243 -242 l 2,12,13
 293 -242 293 -242 348 -220 c 0,14,15
 428 -190 428 -190 428 -136 c 0,16,17
 428 -67 428 -67 337.5 -24 c 128,-1,18
 247 19 247 19 103 19 c 1,19,-1
 103 59 l 1,20,-1
 294 59 l 1,21,-1
 360 480 l 1,22,-1
 459 480 l 1,23,-1
 675 19 l 1,0,-1
EndSplineSet
EndChar

StartChar: divide
Encoding: 247 247 118
Width: 660
GlyphClass: 1
Flags: W
LayerCount: 2
Fore
SplineSet
434 98 m 1,0,-1
 434 478 l 1,1,-1
 221 478 l 1,2,-1
 221 98 l 1,3,-1
 434 98 l 1,0,-1
101 58 m 1,4,-1
 100 519 l 1,5,-1
 556 519 l 1,6,-1
 556 58 l 1,7,-1
 101 58 l 1,4,-1
EndSplineSet
EndChar

StartChar: oslash
Encoding: 248 248 119
Width: 864
GlyphClass: 1
Flags: W
LayerCount: 2
Fore
SplineSet
655 80 m 1,0,-1
 655 506 l 1,1,-1
 431 506 l 1,2,-1
 431 390 l 1,3,-1
 273 390 l 1,4,-1
 273 542 l 1,5,-1
 762 542 l 1,6,-1
 762 80 l 1,7,-1
 655 80 l 1,0,-1
525 729 m 256,8,9
 546 729 546 729 560.5 714.5 c 128,-1,10
 575 700 575 700 575 678 c 0,11,12
 575 658 575 658 560.5 644 c 128,-1,13
 546 630 546 630 525 630 c 0,14,15
 505 630 505 630 490 644 c 128,-1,16
 475 658 475 658 475 678 c 0,17,18
 475 699 475 699 489.5 714 c 128,-1,19
 504 729 504 729 525 729 c 256,8,9
EndSplineSet
EndChar

StartChar: ugrave
Encoding: 249 249 120
Width: 742
GlyphClass: 1
Flags: W
LayerCount: 2
Fore
SplineSet
286 320 m 1,0,-1
 94 520 l 1,1,-1
 212 520 l 1,2,-1
 366 365 l 1,3,-1
 525 519 l 1,4,-1
 648 518 l 1,5,-1
 440 324 l 1,6,7
 464 301 464 301 477 266 c 0,8,9
 490 232 490 232 490 202 c 0,10,11
 490 134 490 134 460 92 c 0,12,13
 427 47 427 47 365 47 c 0,14,15
 304 47 304 47 271 92 c 0,16,17
 241 134 241 134 241 202 c 0,18,19
 241 235 241 235 252 265.5 c 128,-1,20
 263 296 263 296 286 320 c 1,0,-1
EndSplineSet
EndChar

StartChar: uacute
Encoding: 250 250 121
Width: 970
GlyphClass: 1
Flags: W
LayerCount: 2
Fore
SplineSet
843 294 m 0,0,1
 843 192 843 192 791 138 c 0,2,3
 729 74 729 74 574 74 c 2,4,-1
 117 74 l 1,5,-1
 117 134 l 1,6,7
 147 236 147 236 203.5 317 c 128,-1,8
 260 398 260 398 341 451 c 1,9,10
 341 452 341 452 205 662 c 1,11,-1
 312 662 l 1,12,-1
 407 477 l 1,13,14
 434 492 434 492 441 494 c 0,15,16
 495 516 495 516 581 516 c 0,17,18
 697 516 697 516 768 459 c 0,19,20
 843 400 843 400 843 294 c 0,0,1
743 297 m 0,21,22
 743 369 743 369 690 405 c 0,23,24
 644 437 644 437 565 437 c 0,25,26
 500 438 500 438 470 430 c 0,27,28
 467 429 467 429 433 414 c 1,29,-1
 570 137 l 1,30,31
 575 139 575 139 605 138 c 0,32,33
 675 138 675 138 714 200 c 0,34,35
 743 247 743 247 743 297 c 0,21,22
521 137 m 1,36,37
 504 166 504 166 487 195 c 0,38,39
 438 278 438 278 420 310 c 0,40,41
 374 388 374 388 372 394 c 1,42,43
 357 394 357 394 309.5 346 c 128,-1,44
 262 298 262 298 226 242 c 0,45,46
 183 176 183 176 182 137 c 1,47,-1
 521 137 l 1,36,37
EndSplineSet
EndChar

StartChar: ETX
Encoding: 3 3 122
Width: 746
GlyphClass: 1
Flags: W
LayerCount: 2
Fore
SplineSet
111 1 m 5,0,-1
 111 597 l 5,1,-1
 635 597 l 5,2,-1
 635 1 l 5,3,-1
 111 1 l 5,0,-1
598 37 m 5,4,-1
 598 561 l 5,5,-1
 148 561 l 5,6,-1
 148 37 l 5,7,-1
 598 37 l 5,4,-1
EndSplineSet
EndChar

StartChar: ring
Encoding: 730 730 123
Width: 912
GlyphClass: 1
Flags: W
LayerCount: 2
Fore
SplineSet
791 87 m 1,0,-1
 529 -162 l 1,1,-1
 343 -161 l 1,2,-1
 267 47 l 1,3,-1
 205 47 l 1,4,-1
 205 87 l 1,5,-1
 253 87 l 1,6,-1
 168 347 l 1,7,8
 144 430 144 430 135 456 c 0,9,10
 115 514 115 514 91 552 c 0,11,12
 62 597 62 597 23 622 c 1,13,-1
 23 635 l 1,14,-1
 223 635 l 1,15,-1
 376 87 l 1,16,-1
 791 87 l 1,0,-1
640 47 m 1,17,-1
 389 47 l 1,18,19
 389 46 389 46 443 -126 c 1,20,21
 452 -121 452 -121 504 -75 c 0,22,23
 552 -33 552 -33 593 5 c 0,24,25
 617 26 617 26 640 47 c 1,17,-1
EndSplineSet
EndChar

StartChar: uni0712
Encoding: 1810 1810 124
Width: 757
Flags: W
HStem: 0 40<80 550> 308 153<80 238> 425 36<238 550>
VStem: 80 158<308 425> 550 107<40 425>
AnchorPoint: "curs" 80 0 exit 0
AnchorPoint: "curs" 657 0 entry 0
LayerCount: 2
Fore
SplineSet
657 0 m 1,0,-1
 80 0 l 1,1,-1
 80 40 l 1,2,-1
 550 40 l 1,3,-1
 550 425 l 1,4,-1
 238 425 l 1,5,6
 238 424 238 424 238 308 c 1,7,-1
 80 308 l 1,8,-1
 80 461 l 1,9,-1
 657 461 l 1,10,-1
 657 0 l 1,0,-1
EndSplineSet
Substitution2: "'medi' Medial Forms lookup 1-1" uni0712.med
Substitution2: "'fina' Terminal Forms lookup 2-1" uni0712.fin
Substitution2: "'init' Initial Forms lookup 0-1" uni0712.init
EndChar

StartChar: uni0713
Encoding: 1811 1811 125
Width: 760
Flags: W
HStem: -163 62<614.104 711.495> 0 40<187.5 246.5>
AnchorPoint: "curs" 187 0 exit 0
AnchorPoint: "curs" 410 0 entry 0
LayerCount: 2
Fore
SplineSet
246.5 40 m 5,0,1
 246.5 41 246.5 41 123.5 429 c 6,2,3
 116.5 442 116.5 442 82.5 473 c 4,4,5
 71.5 483 71.5 483 47.5 504 c 5,6,7
 48.5 504 48.5 504 214.5 504 c 5,8,-1
 324.5 40 l 5,9,-1
 418.5 0 l 5,10,11
 430.5 -10 430.5 -10 534.5 -50 c 4,12,13
 633.5 -88 633.5 -88 652 -92 c 132,-1,14
 670.5 -96 670.5 -96 691.5 -101 c 5,15,16
 712.5 -109 712.5 -109 712.5 -132 c 4,17,18
 712.5 -162 712.5 -162 680.5 -163 c 4,19,20
 606.5 -163 606.5 -163 494.5 -113 c 132,-1,21
 382.5 -63 382.5 -63 325.5 0 c 5,22,-1
 187.5 0 l 5,23,-1
 187.5 40 l 5,24,-1
 246.5 40 l 5,0,1
EndSplineSet
Substitution2: "'medi' Medial Forms lookup 1-1" uni0713.med
Substitution2: "'fina' Terminal Forms lookup 2-1" uni0713.fin
Substitution2: "'init' Initial Forms lookup 0-1" uni0713.init
EndChar

StartChar: uni0712.init
Encoding: 1114113 -1 126
Width: 757
Flags: W
HStem: 0 40<-150 549> 308 153<80 237> 425 36<237 549>
VStem: 80 157<308 425> 549 107<40 425>
AnchorPoint: "curs" -149 0 exit 0
AnchorPoint: "curs" 655 0 entry 0
LayerCount: 2
Fore
SplineSet
180 570 m 256,0,1
 180 548 180 548 165 534 c 128,-1,2
 150 520 150 520 128 520 c 256,3,4
 106 520 106 520 92 534.5 c 128,-1,5
 78 549 78 549 78 570 c 256,6,7
 78 592 78 592 92.5 607 c 128,-1,8
 107 622 107 622 128 622 c 256,9,10
 150 622 150 622 165 607 c 128,-1,11
 180 592 180 592 180 570 c 256,0,1
656 0 m 1,12,-1
 -150 0 l 1,13,-1
 -150 40 l 1,14,-1
 549 40 l 1,15,-1
 549 425 l 1,16,-1
 237 425 l 1,17,18
 237 424 237 424 237 308 c 1,19,-1
 80 308 l 1,20,-1
 80 461 l 1,21,-1
 656 461 l 1,22,-1
 656 0 l 1,12,-1
EndSplineSet
EndChar

StartChar: uni0712.med
Encoding: 1114114 -1 127
Width: 757
Flags: W
HStem: 0 40<-150 549 656 907> 308 153<80 237> 425 36<237 549>
VStem: 80 157<308 425> 549 107<40 425>
AnchorPoint: "curs" -148 -1 exit 0
AnchorPoint: "curs" 905 0 entry 0
LayerCount: 2
Fore
SplineSet
436 580 m 260,0,1
 436 558 436 558 421 544 c 132,-1,2
 406 530 406 530 384 530 c 260,3,4
 362 530 362 530 348 544.5 c 132,-1,5
 334 559 334 559 334 580 c 260,6,7
 334 602 334 602 348.5 617 c 132,-1,8
 363 632 363 632 384 632 c 260,9,10
 406 632 406 632 421 617 c 132,-1,11
 436 602 436 602 436 580 c 260,0,1
907 0 m 1,12,-1
 -150 0 l 1,13,-1
 -150 40 l 1,14,-1
 549 40 l 1,15,-1
 549 425 l 1,16,-1
 237 425 l 1,17,-1
 237 308 l 1,18,-1
 80 308 l 1,19,-1
 80 461 l 1,20,-1
 656 461 l 1,21,-1
 656 40 l 1,22,-1
 907 40 l 1,23,-1
 907 0 l 1,12,-1
EndSplineSet
EndChar

StartChar: uni0712.fin
Encoding: 1114115 -1 128
Width: 757
Flags: W
HStem: 0 40<80 549 656 907> 308 153<80 237> 425 36<237 549>
VStem: 80 157<308 425> 549 107<40 425>
AnchorPoint: "curs" 82 -1 exit 0
AnchorPoint: "curs" 905 0 entry 0
LayerCount: 2
Fore
SplineSet
737 591 m 260,0,1
 737 569 737 569 722 555 c 132,-1,2
 707 541 707 541 685 541 c 260,3,4
 663 541 663 541 649 555.5 c 132,-1,5
 635 570 635 570 635 591 c 260,6,7
 635 613 635 613 649.5 628 c 132,-1,8
 664 643 664 643 685 643 c 260,9,10
 707 643 707 643 722 628 c 132,-1,11
 737 613 737 613 737 591 c 260,0,1
907 0 m 1,12,-1
 80 0 l 1,13,-1
 80 40 l 1,14,-1
 549 40 l 1,15,-1
 549 425 l 1,16,-1
 237 425 l 1,17,-1
 237 308 l 1,18,-1
 80 308 l 1,19,-1
 80 461 l 1,20,-1
 656 461 l 1,21,-1
 656 40 l 1,22,-1
 907 40 l 1,23,-1
 907 0 l 1,12,-1
EndSplineSet
EndChar

StartChar: uni0713.init
Encoding: 1114116 -1 129
Width: 760
Flags: W
HStem: -163 62<612.75 709.995> 0 40<-150 245>
AnchorPoint: "curs" -150 0 exit 0
AnchorPoint: "curs" 326 0 entry 0
LayerCount: 2
Fore
SplineSet
245 40 m 1,0,1
 244 41 244 41 122 429 c 2,2,3
 119 439 119 439 81 473 c 0,4,5
 70 483 70 483 46 504 c 1,6,-1
 213 504 l 1,7,-1
 323 40 l 1,8,-1
 417 0 l 1,9,10
 429 -10 429 -10 534 -50 c 0,11,12
 633 -88 633 -88 651 -92 c 0,13,14
 668 -96 668 -96 690 -101 c 1,15,16
 711 -109 711 -109 711 -132 c 0,17,18
 711 -162 711 -162 679 -163 c 0,19,20
 605 -163 605 -163 493.5 -113 c 128,-1,21
 382 -63 382 -63 324 0 c 1,22,-1
 -150 0 l 1,23,-1
 -150 40 l 1,24,-1
 245 40 l 1,0,1
EndSplineSet
EndChar

StartChar: uni0713.med
Encoding: 1114117 -1 130
Width: 760
Flags: W
HStem: -163 62<612.012 711.995> 0 40<-150 247 325 345.492 415 910>
AnchorPoint: "curs" -150 0 exit 0
AnchorPoint: "curs" 908 -1 entry 0
LayerCount: 2
Fore
SplineSet
910 0 m 1,0,-1
 415 0 l 1,1,-1
 509.5 -39.5 l 2,2,3
 604 -79 604 -79 637 -87.5 c 128,-1,4
 670 -96 670 -96 692 -101 c 1,5,6
 713 -109 713 -109 713 -132 c 0,7,8
 713 -162 713 -162 681 -163 c 0,9,10
 612 -165 612 -165 498 -114 c 128,-1,11
 384 -63 384 -63 326 0 c 1,12,13
 326 0 326 0 -150 0 c 1,14,-1
 -150 40 l 1,15,-1
 247 40 l 1,16,17
 242 45 242 45 124 429 c 0,18,19
 120 442 120 442 48 504 c 1,20,21
 48 504 48 504 215 504 c 1,22,-1
 325 40 l 1,23,-1
 910 40 l 1,24,-1
 910 0 l 1,0,-1
EndSplineSet
EndChar

StartChar: uni0713.fin
Encoding: 1114118 -1 131
Width: 760
Flags: W
HStem: -163 62<612.012 711.995> 0 40<228 247 325 345.492 415 910>
AnchorPoint: "curs" 908 -1 entry 0
AnchorPoint: "curs" 228 0 exit 0
LayerCount: 2
Fore
SplineSet
910 0 m 1,0,-1
 415 0 l 1,1,-1
 509.5 -39.5 l 2,2,3
 604 -79 604 -79 637 -87.5 c 128,-1,4
 670 -96 670 -96 692 -101 c 1,5,6
 713 -109 713 -109 713 -132 c 0,7,8
 713 -162 713 -162 681 -163 c 0,9,10
 612 -165 612 -165 498 -114 c 128,-1,11
 384 -63 384 -63 326 0 c 1,12,13
 326 0 326 0 228 0 c 1,14,-1
 228 40 l 1,15,-1
 247 40 l 1,16,17
 242 45 242 45 124 429 c 0,18,19
 120 442 120 442 48 504 c 1,20,21
 48 504 48 504 215 504 c 1,22,-1
 325 40 l 1,23,-1
 910 40 l 1,24,-1
 910 0 l 1,0,-1
EndSplineSet
EndChar

StartChar: uni0710
Encoding: 1808 1808 132
Width: 800
Flags: W
AnchorPoint: "curs" 80 0 exit 0
AnchorPoint: "curs" 642 1 entry 0
LayerCount: 2
Fore
SplineSet
651.5 1 m 5,0,-1
 527.5 1 l 5,1,-1
 335.5 391 l 5,2,-1
 188.5 391 l 5,3,-1
 189.5 1 l 5,4,-1
 79.5 1 l 5,5,-1
 79.5 463 l 5,6,-1
 328.5 463 l 5,7,-1
 660.5 672 l 5,8,-1
 720.5 606 l 5,9,-1
 450.5 418 l 5,10,-1
 651.5 1 l 5,0,-1
EndSplineSet
Substitution2: "'medi' Medial Forms lookup 1-1" uni0710.med
Substitution2: "'init' Initial Forms lookup 0-1" uni0710.init
Substitution2: "'fina' Terminal Forms lookup 2-1" uni0710.fin
EndChar

StartChar: uni0715
Encoding: 1813 1813 133
Width: 648
Flags: W
HStem: 309 153<80.5 238.5> 426 36<238.5 462.5>
VStem: 80.5 158<309 426> 462.5 107<0 426>
AnchorPoint: "curs" 88 0 exit 0
AnchorPoint: "curs" 570 0 entry 0
LayerCount: 2
Fore
SplineSet
462.5 0 m 5,0,-1
 462.5 426 l 5,1,-1
 238.5 426 l 5,2,-1
 238.5 309 l 5,3,-1
 80.5 309 l 5,4,-1
 80.5 462 l 5,5,-1
 569.5 462 l 5,6,-1
 569.5 0 l 5,7,-1
 462.5 0 l 5,0,-1
EndSplineSet
Substitution2: "'fina' Terminal Forms lookup 2-1" uni0715.fin
EndChar

StartChar: uni0717
Encoding: 1815 1815 134
Width: 804
Flags: W
HStem: 419 42<194 349 461 613>
VStem: 80 114<0 419> 349 112<0 419> 613 111<0 419>
AnchorPoint: "curs" 82 1 exit 0
AnchorPoint: "curs" 722 0 entry 0
LayerCount: 2
Fore
SplineSet
80 0 m 5,0,-1
 80 461 l 5,1,-1
 724 461 l 5,2,-1
 724 0 l 5,3,-1
 613 0 l 5,4,-1
 613 419 l 5,5,-1
 461 419 l 5,6,-1
 461 0 l 5,7,-1
 349 0 l 5,8,-1
 349 419 l 5,9,-1
 194 419 l 5,10,-1
 194 0 l 5,11,-1
 80 0 l 5,0,-1
EndSplineSet
Substitution2: "'medi' Medial Forms lookup 1-1" uni0717.med
Substitution2: "'fina' Terminal Forms lookup 2-1" uni0717.fin
Substitution2: "'init' Initial Forms lookup 0-1" uni0717.init
EndChar

StartChar: uni0718
Encoding: 1816 1816 135
Width: 612
Flags: W
HStem: 0 46<269.542 362.567> 430 37<268.061 348.302>
VStem: 80 143<129.068 329.601> 402 130<127.924 337.164>
AnchorPoint: "curs" 216 0 exit 0
AnchorPoint: "curs" 404 0 entry 0
LayerCount: 2
Fore
SplineSet
532 235 m 4,0,1
 532 135 532 135 470 67.5 c 132,-1,2
 408 0 408 0 314 0 c 4,3,4
 216 0 216 0 149 64 c 4,5,6
 80 130 80 130 80 232 c 4,7,8
 80 335 80 335 160 405 c 4,9,10
 229 467 229 467 303 467 c 4,11,12
 386 467 386 467 453 411 c 4,13,14
 532 345 532 345 532 235 c 4,0,1
402 236 m 4,15,16
 402 310 402 310 380 364 c 4,17,18
 352 430 352 430 304 430 c 4,19,20
 264 430 264 430 242 364 c 4,21,22
 223 309 223 309 223 236 c 260,23,24
 223 163 223 163 244 111 c 4,25,26
 270 46 270 46 315 46 c 4,27,28
 365 46 365 46 387 110 c 4,29,30
 402 155 402 155 402 236 c 4,15,16
EndSplineSet
Substitution2: "'medi' Medial Forms lookup 1-1" uni0718.med
Substitution2: "'fina' Terminal Forms lookup 2-1" uni0718.fin
Substitution2: "'init' Initial Forms lookup 0-1" uni0718.init
EndChar

StartChar: uni0719
Encoding: 1817 1817 136
Width: 300
Flags: W
VStem: 92 120<0 461>
AnchorPoint: "curs" 92 0 exit 0
AnchorPoint: "curs" 212 0 entry 0
LayerCount: 2
Fore
SplineSet
212 0 m 1,0,-1
 92 0 l 1,1,-1
 92 461 l 1,2,-1
 212 461 l 1,3,-1
 212 0 l 1,0,-1
EndSplineSet
Substitution2: "'fina' Terminal Forms lookup 2-1" uni0719.fin
EndChar

StartChar: uni071A
Encoding: 1818 1818 137
Width: 524
Flags: W
VStem: 80 81<0 365> 378 76<105 461>
AnchorPoint: "curs" 81 0 exit 0
AnchorPoint: "curs" 454 0 entry 0
LayerCount: 2
Fore
SplineSet
80 0 m 5,0,-1
 80 461 l 5,1,-1
 210 461 l 5,2,-1
 373 105 l 5,3,-1
 378 105 l 5,4,-1
 378 461 l 5,5,-1
 454 461 l 5,6,-1
 454 0 l 5,7,-1
 340 0 l 5,8,-1
 168 365 l 5,9,-1
 161 365 l 5,10,-1
 161 0 l 5,11,-1
 80 0 l 5,0,-1
EndSplineSet
Substitution2: "'medi' Medial Forms lookup 1-1" uni071A.med
Substitution2: "'fina' Terminal Forms lookup 2-1" uni071A.fin
Substitution2: "'init' Initial Forms lookup 0-1" uni071A.init
EndChar

StartChar: uni071B
Encoding: 1819 1819 138
Width: 870
Flags: W
HStem: 0 40<205 253 389 640>
AnchorPoint: "curs" 204 1 exit 0
AnchorPoint: "curs" 750 0 entry 0
LayerCount: 2
Fore
SplineSet
791 40 m 5,0,-1
 529 -209 l 5,1,-1
 343 -208 l 5,2,-1
 267 0 l 5,3,-1
 205 0 l 5,4,-1
 205 40 l 5,5,-1
 253 40 l 5,6,-1
 168 300 l 5,7,8
 144 383 144 383 129.5 425 c 4,9,10
 93.2646484375 529.958984375 93.2646484375 529.958984375 23 575 c 5,11,-1
 23 588 l 5,12,-1
 223 588 l 5,13,-1
 376 40 l 5,14,-1
 791 40 l 5,0,-1
640 0 m 5,15,-1
 389 0 l 5,16,17
 389 -1 389 -1 443 -173 c 5,18,19
 462.215820312 -162.32421875 462.215820312 -162.32421875 640 0 c 5,15,-1
EndSplineSet
Substitution2: "'medi' Medial Forms lookup 1-1" uni071B.med
Substitution2: "'fina' Terminal Forms lookup 2-1" uni071B.fin
Substitution2: "'init' Initial Forms lookup 0-1" uni071B.init
EndChar

StartChar: uni071D
Encoding: 1821 1821 139
Width: 520
Flags: W
HStem: 0 40<69 110 394 458>
AnchorPoint: "curs" 71 1 exit 0
AnchorPoint: "curs" 456 1 entry 0
LayerCount: 2
Fore
SplineSet
110 40 m 5,0,-1
 160 402 l 5,1,-1
 234 402 l 5,2,-1
 394 40 l 5,3,-1
 458 40 l 5,4,-1
 458 0 l 5,5,-1
 69 0 l 5,6,-1
 69 40 l 5,7,-1
 110 40 l 5,0,-1
EndSplineSet
Substitution2: "'medi' Medial Forms lookup 1-1" uni071D.med
Substitution2: "'fina' Terminal Forms lookup 2-1" uni071D.fin
Substitution2: "'init' Initial Forms lookup 0-1" uni071D.init
EndChar

StartChar: uni071F
Encoding: 1823 1823 140
Width: 868
Flags: W
HStem: -14.5 83.5<216.492 357.155>
VStem: 80 84<134.175 374>
AnchorPoint: "curs" 77 0 exit 0
AnchorPoint: "curs" 699 0 entry 0
LayerCount: 2
Fore
SplineSet
164 264 m 6,0,1
 164 69 164 69 280 69 c 4,2,3
 362 69 362 69 392 134 c 4,4,5
 412 178 412 178 412 276 c 6,6,-1
 412 374 l 5,7,-1
 504 374 l 5,8,-1
 844 -280 l 5,9,-1
 844 -290 l 5,10,-1
 796 -291 l 5,11,-1
 486 192 l 5,12,13
 472 82 472 82 420.5 34 c 132,-1,14
 369 -14 369 -14 279 -14.5 c 132,-1,15
 189 -15 189 -15 134.5 50.5 c 132,-1,16
 80 116 80 116 80 192 c 6,17,-1
 80 374 l 5,18,-1
 164 374 l 5,19,-1
 164 264 l 6,0,1
EndSplineSet
Substitution2: "'medi' Medial Forms lookup 1-1" uni071F.med
Substitution2: "'fina' Terminal Forms lookup 2-1" uni071F.fin
Substitution2: "'init' Initial Forms lookup 0-1" uni071F.init
EndChar

StartChar: uni0720
Encoding: 1824 1824 141
Width: 598
Flags: W
HStem: 1 40<80 391>
AnchorPoint: "curs" 79 0 exit 0
AnchorPoint: "curs" 512 0 entry 0
LayerCount: 2
Fore
SplineSet
512 1 m 5,0,-1
 80 1 l 5,1,-1
 80 41 l 5,2,-1
 391 41 l 5,3,-1
 393 45 l 5,4,-1
 158 518 l 5,5,6
 138 553 138 553 80 589 c 5,7,-1
 274 589 l 5,8,-1
 512 9 l 5,9,-1
 512 1 l 5,0,-1
EndSplineSet
Substitution2: "'medi' Medial Forms lookup 1-1" uni0720.med
Substitution2: "'fina' Terminal Forms lookup 2-1" uni0720.fin
Substitution2: "'init' Initial Forms lookup 0-1" uni0720.init
EndChar

StartChar: uni0721
Encoding: 1825 1825 142
Width: 805
Flags: W
HStem: 1 40<80 337 451 622> 312 150<80 233> 419 43<233 337 451 622>
VStem: 80 153<312 419> 337 114<41 417> 622 113<41 417>
AnchorPoint: "curs" 82 1 exit 0
AnchorPoint: "curs" 734 -1 entry 0
LayerCount: 2
Fore
SplineSet
735 1 m 5,0,-1
 80 1 l 5,1,-1
 80 41 l 5,2,-1
 337 41 l 5,3,-1
 337 419 l 5,4,-1
 233 419 l 5,5,-1
 233 312 l 5,6,-1
 80 312 l 5,7,-1
 80 462 l 5,8,-1
 735 462 l 5,9,-1
 735 1 l 5,0,-1
622 41 m 5,10,-1
 622 417 l 5,11,-1
 451 417 l 5,12,-1
 451 41 l 5,13,-1
 622 41 l 5,10,-1
EndSplineSet
Substitution2: "'medi' Medial Forms lookup 1-1" uni0721.med
Substitution2: "'fina' Terminal Forms lookup 2-1" uni0721.fin
Substitution2: "'init' Initial Forms lookup 0-1" uni0721.init
EndChar

StartChar: uni0722
Encoding: 1826 1826 143
Width: 807
Flags: W
AnchorPoint: "curs" 78 1 exit 0
AnchorPoint: "curs" 368 -1 entry 0
LayerCount: 2
Fore
SplineSet
457 -71 m 1,0,1
 605 -189 605 -189 791 -295 c 0,2,3
 843 -325 843 -325 925 -370 c 1,4,5
 924 -370 924 -370 920 -386 c 1,6,7
 579 -260 579 -260 432.647460938 -194.73828125 c 0,8,9
 80 -36 80 -36 80 65 c 0,10,11
 80 89 80 89 95 106.400390625 c 0,12,13
 122 138 122 138 163.5 138 c 128,-1,14
 205 138 205 138 255 96 c 0,15,16
 344 22 344 22 368 2.5 c 0,17,18
 389.866210938 -15.2666015625 389.866210938 -15.2666015625 457 -71 c 1,0,1
EndSplineSet
Substitution2: "'medi' Medial Forms lookup 1-1" uni0722.med
Substitution2: "'fina' Terminal Forms lookup 2-1" uni0722.fin
Substitution2: "'init' Initial Forms lookup 0-1" uni0722.init
EndChar

StartChar: uni0723
Encoding: 1827 1827 144
Width: 881
Flags: W
HStem: 1 53<250.312 389.176 499.02 633.023> 387 78<214.954 320.572 563.361 668.776>
VStem: 80 90<142.04 332.182> 402 80<69.99 253.148> 714 88<142.031 332.416>
AnchorPoint: "curs" 217 -1 exit 0
AnchorPoint: "curs" 652 -1 entry 0
LayerCount: 2
Fore
SplineSet
714 242 m 4,0,1
 714 296 714 296 687.5 341.5 c 132,-1,2
 661 387 661 387 614 387 c 4,3,4
 549.10546875 387 549.10546875 387 507 267 c 4,5,6
 502 255 502 255 492 208.5 c 132,-1,7
 482 162 482 162 482 123.5 c 132,-1,8
 482 85 482 85 498.5 69.5 c 132,-1,9
 515 54 515 54 549 54 c 4,10,11
 627 54 627 54 670.5 108 c 132,-1,12
 714 162 714 162 714 242 c 4,0,1
335 54 m 4,13,14
 402 54 402 54 402 122 c 4,15,16
 402 156 402 156 393 201 c 4,17,18
 372.799804688 302 372.799804688 302 332 353 c 4,19,20
 305 387 305 387 270 387 c 4,21,22
 223 387 223 387 196.5 341 c 132,-1,23
 170 295 170 295 170 242 c 4,24,25
 170 162 170 162 213 108 c 132,-1,26
 256 54 256 54 335 54 c 4,13,14
649 1 m 6,27,-1
 220 1 l 6,28,29
 170 1 170 1 129.5 68.5 c 4,30,31
 80 151 80 151 80 226 c 132,-1,32
 80 301 80 301 113 361 c 132,-1,33
 146 421 146 421 195 449 c 4,34,35
 208 456 208 456 233.5 460.5 c 132,-1,36
 259 465 259 465 276 465 c 4,37,38
 318 465 318 465 355 427.5 c 132,-1,39
 392 390 392 390 420 339 c 4,40,41
 430 317 430 317 442 295 c 5,42,43
 479.142578125 376.713867188 479.142578125 376.713867188 522 421 c 4,44,45
 565 465 565 465 607 465 c 4,46,47
 660.200195312 465 660.200195312 465 689 449 c 4,48,49
 744 416 744 416 772.5 360 c 132,-1,50
 801 304 801 304 802 215 c 4,51,52
 802 161 802 161 748.5 81 c 132,-1,53
 695 1 695 1 649 1 c 6,27,-1
EndSplineSet
Substitution2: "'medi' Medial Forms lookup 1-1" uni0723.med
Substitution2: "'fina' Terminal Forms lookup 2-1" uni0723.fin
Substitution2: "'init' Initial Forms lookup 0-1" uni0723.init
EndChar

StartChar: uni0725
Encoding: 1829 1829 145
Width: 676
Flags: W
HStem: 0 40<80 433> 372 89<221.001 313>
AnchorPoint: "curs" 81 0 exit 0
AnchorPoint: "curs" 596 -2 entry 0
LayerCount: 2
Fore
SplineSet
80 411 m 4,0,1
 80 461 80 461 163 461 c 6,2,-1
 313 461 l 5,3,-1
 313 372 l 5,4,-1
 232 372 l 6,5,6
 228 372 228 372 224.5 368.5 c 132,-1,7
 221 365 221 365 221 362 c 4,8,9
 221 355.23046875 221 355.23046875 466 121 c 4,10,11
 509 79 509 79 552 39 c 5,12,-1
 596 0 l 5,13,-1
 80 0 l 5,14,-1
 80 40 l 5,15,-1
 433 40 l 5,16,-1
 160 312 l 6,17,18
 132 340 132 340 106 368.5 c 132,-1,19
 80 397 80 397 80 411 c 4,0,1
EndSplineSet
Substitution2: "'medi' Medial Forms lookup 1-1" uni0725.med
Substitution2: "'fina' Terminal Forms lookup 2-1" uni0725.fin
Substitution2: "'init' Initial Forms lookup 0-1" uni0725.init
EndChar

StartChar: uni0727
Encoding: 1831 1831 146
Width: 680
Flags: W
HStem: 1 40<80 171> 389 73<203.631 496.975>
VStem: 111 84<200.292 386.322> 509 92<258.23 383.26>
AnchorPoint: "curs" 82 -1 exit 0
AnchorPoint: "curs" 507 1 entry 0
LayerCount: 2
Fore
SplineSet
443 186 m 5,0,1
 509 285 509 285 509 313 c 132,-1,2
 509 341 509 341 498 365 c 132,-1,3
 487 389 487 389 479 389 c 6,4,-1
 224 389 l 6,5,6
 206 389 206 389 198 345 c 4,7,8
 195 328 195 328 195 308 c 132,-1,9
 195 288 195 288 223 172 c 132,-1,10
 251 56 251 56 263 35 c 5,11,-1
 275 1 l 5,12,-1
 80 1 l 5,13,-1
 80 41 l 5,14,-1
 171 41 l 5,15,16
 111 269.571289062 111 269.571289062 111 314 c 4,17,18
 111 399 111 399 130 431 c 132,-1,19
 149 463 149 463 184 462 c 5,20,-1
 531 462 l 6,21,22
 555 462 555 462 578 405 c 132,-1,23
 601 348 601 348 601 314 c 4,24,25
 601 250 601 250 540 183 c 4,26,27
 513 155 513 155 487 128 c 5,28,-1
 479 128 l 5,29,-1
 443 186 l 5,0,1
EndSplineSet
Substitution2: "'medi' Medial Forms lookup 1-1" uni0727.med
Substitution2: "'fina' Terminal Forms lookup 2-1" uni0727.fin
Substitution2: "'init' Initial Forms lookup 0-1" uni0727.init
EndChar

StartChar: uni0726
Encoding: 1830 1830 147
Width: 631
Flags: W
HStem: 0 41<92 427.016> 389 73<184.92 478.361>
VStem: 80 92<261.23 382.451> 487 84<202.057 386.887>
AnchorPoint: "curs" 93 0 exit 0
AnchorPoint: "curs" 499 1 entry 0
LayerCount: 2
Fore
SplineSet
571 314 m 4,0,1
 571 281.92578125 571 281.92578125 540 158.962890625 c 132,-1,2
 509 36 509 36 500 0 c 5,3,-1
 92 0 l 5,4,-1
 92 41 l 5,5,-1
 419 41 l 5,6,7
 431 63 431 63 459 175.5 c 132,-1,8
 487 288 487 288 487 311.5 c 132,-1,9
 487 335 487 335 480 362 c 132,-1,10
 473 389 473 389 457 389 c 6,11,-1
 202 389 l 6,12,13
 195 389 195 389 183.5 364 c 132,-1,14
 172 339 172 339 172 318.5 c 132,-1,15
 172 298 172 298 193.5 261 c 132,-1,16
 215 224 215 224 238 186 c 4,17,18
 238 180 238 180 223.5 159 c 132,-1,19
 209 138 209 138 203 128 c 5,20,-1
 195 128 l 5,21,22
 160 166 160 166 124 205 c 5,23,24
 81 260 81 260 80 314 c 4,25,26
 80 347 80 347 103 404.5 c 132,-1,27
 126 462 126 462 150 462 c 6,28,-1
 497 462 l 6,29,30
 542 462 542 462 559 413 c 4,31,32
 571 378 571 378 571 314 c 4,0,1
EndSplineSet
Substitution2: "'medi' Medial Forms lookup 1-1" uni0726.med
Substitution2: "'fina' Terminal Forms lookup 2-1" uni0726.fin
Substitution2: "'init' Initial Forms lookup 0-1" uni0726.init
EndChar

StartChar: uni0728
Encoding: 1832 1832 148
Width: 710
Flags: W
HStem: -310 50<41 324.405> 1 40<80 249.349>
VStem: 405 124<-203.038 -93.5032>
AnchorPoint: "curs" 80 -1 exit 0
AnchorPoint: "curs" 654 -1 entry 0
LayerCount: 2
Fore
SplineSet
652 1 m 5,0,-1
 305 1 l 5,1,2
 305 1 305 1 445 -41 c 5,3,4
 529 -82 529 -82 529 -170 c 4,5,6
 529 -221 529 -221 447.5 -265.5 c 132,-1,7
 366 -310 366 -310 239 -310 c 5,8,-1
 40 -308 l 5,9,-1
 41 -260 l 5,10,-1
 220 -260 l 6,11,12
 270 -260 270 -260 325 -238 c 4,13,14
 405 -208 405 -208 405 -154 c 4,15,16
 405 -85 405 -85 314.5 -42 c 132,-1,17
 224 1 224 1 80 1 c 5,18,-1
 80 41 l 5,19,-1
 271 41 l 5,20,-1
 337 462 l 5,21,-1
 436 462 l 5,22,-1
 652 1 l 5,0,-1
EndSplineSet
Substitution2: "'medi' Medial Forms lookup 1-1" uni0728.med
Substitution2: "'init' Initial Forms lookup 0-1" uni0728.init
Substitution2: "'fina' Terminal Forms lookup 2-1" uni0728.fin
EndChar

StartChar: uni0729
Encoding: 1833 1833 149
Width: 610
Flags: W
HStem: 0 40<200 413> 420 41<200 413>
VStem: 80 120<40 420> 413 122<40 420>
AnchorPoint: "curs" 81 0 exit 0
AnchorPoint: "curs" 535 -1 entry 0
LayerCount: 2
Fore
SplineSet
413 40 m 5,0,-1
 413 420 l 5,1,-1
 200 420 l 5,2,-1
 200 40 l 5,3,-1
 413 40 l 5,0,-1
80 0 m 5,4,-1
 79 461 l 5,5,-1
 535 461 l 5,6,-1
 535 0 l 5,7,-1
 80 0 l 5,4,-1
EndSplineSet
Substitution2: "'medi' Medial Forms lookup 1-1" uni0729.med
Substitution2: "'fina' Terminal Forms lookup 2-1" uni0729.fin
Substitution2: "'init' Initial Forms lookup 0-1" uni0729.init
EndChar

StartChar: uni072A
Encoding: 1834 1834 150
Width: 640
Flags: W
HStem: 310 152<81 239> 426 36<239 463> 550 99<298.47 368.045>
VStem: 81 158<310 426> 283 100<564.439 633.53> 463 107<0 426>
AnchorPoint: "curs" 80 1 exit 0
AnchorPoint: "curs" 570 2 entry 0
LayerCount: 2
Fore
SplineSet
463 0 m 5,0,-1
 463 426 l 5,1,-1
 239 426 l 5,2,-1
 239 310 l 5,3,-1
 81 310 l 5,4,-1
 81 462 l 5,5,-1
 570 462 l 5,6,-1
 570 0 l 5,7,-1
 463 0 l 5,0,-1
333 649 m 260,8,9
 354 649 354 649 368.5 634.5 c 132,-1,10
 383 620 383 620 383 599 c 132,-1,11
 383 578 383 578 368.5 564 c 132,-1,12
 354 550 354 550 333.5 550 c 132,-1,13
 313 550 313 550 298 564 c 132,-1,14
 283 578 283 578 283 598.5 c 132,-1,15
 283 619 283 619 297.5 634 c 132,-1,16
 312 649 312 649 333 649 c 260,8,9
EndSplineSet
Substitution2: "'medi' Medial Forms lookup 1-1" uni072A.med
Substitution2: "'fina' Terminal Forms lookup 2-1" uni072A.fin
EndChar

StartChar: uni072B
Encoding: 1835 1835 151
Width: 708
Flags: W
VStem: 221 249<56.2218 235.051>
AnchorPoint: "curs" 291 0 exit 0
AnchorPoint: "curs" 400 0 entry 0
LayerCount: 2
Fore
SplineSet
470 152 m 4,0,1
 470 84 470 84 438.5 40.5 c 132,-1,2
 407 -3 407 -3 345.5 -3 c 132,-1,3
 284 -3 284 -3 252.5 40.5 c 132,-1,4
 221 84 221 84 221 153.521484375 c 132,-1,5
 221 223.043945312 221 223.043945312 266 270 c 5,6,-1
 74 470 l 5,7,-1
 192 470 l 5,8,-1
 346 315 l 5,9,-1
 505 469 l 5,10,-1
 628 468 l 5,11,-1
 420 274 l 5,12,13
 444 251 444 251 457 216.5 c 132,-1,14
 470 182 470 182 470 152 c 4,0,1
EndSplineSet
Substitution2: "'medi' Medial Forms lookup 1-1" uni072B.med
Substitution2: "'fina' Terminal Forms lookup 2-1" uni072B.fin
Substitution2: "'init' Initial Forms lookup 0-1" uni072B.init
EndChar

StartChar: uni072C
Encoding: 1836 1836 152
Width: 886
Flags: W
HStem: 1 63<145 484 533.162 636.395> 364.5 78.5<404.227 634.222>
VStem: 706 100<140.924 300.692>
AnchorPoint: "curs" 80 -1 exit 0
AnchorPoint: "curs" 596 0 entry 0
LayerCount: 2
Fore
SplineSet
80 61 m 1,0,1
 142.073242188 272.047851562 142.073242188 272.047851562 304 378 c 0,2,3
 304 379 304 379 168 589 c 1,4,-1
 275 589 l 1,5,-1
 370 404 l 1,6,7
 397 419 397 419 404 421 c 0,8,9
 458 443 458 443 544 443 c 0,10,11
 660 443 660 443 733 385 c 128,-1,12
 806 327 806 327 806 223 c 128,-1,13
 806 119 806 119 754 65 c 0,14,15
 692 1 692 1 537 1 c 2,16,-1
 80 1 l 1,17,-1
 80 61 l 1,0,1
706 224 m 0,18,19
 706 296 706 296 653 332 c 0,20,21
 607 364 607 364 535 364.5 c 128,-1,22
 463 365 463 365 446.5 360.5 c 128,-1,23
 430 356 430 356 396 341 c 1,24,-1
 533 64 l 1,25,26
 538 66 538 66 568 65 c 0,27,28
 638 65 638 65 677 127 c 0,29,30
 706 174 706 174 706 224 c 0,18,19
484 64 m 1,31,32
 484 64 484 64 442.5 134.5 c 0,33,34
 337.981445312 312.055664062 337.981445312 312.055664062 335 321 c 1,35,36
 320 321 320 321 272.5 273 c 128,-1,37
 225 225 225 225 185.5 164 c 128,-1,38
 146 103 146 103 145 64 c 1,39,-1
 484 64 l 1,31,32
EndSplineSet
Substitution2: "'medi' Medial Forms lookup 1-1" uni072C.med
Substitution2: "'init' Initial Forms lookup 0-1" uni072C.init
Substitution2: "'fina' Terminal Forms lookup 2-1" uni072C.fin
EndChar

StartChar: uni0308
Encoding: 776 776 153
Width: 0
Flags: W
LayerCount: 2
Fore
SplineSet
-323 698 m 256,0,1
 -302 698 -302 698 -287.5 683.5 c 128,-1,2
 -273 669 -273 669 -273 647 c 0,3,4
 -273 627 -273 627 -287.5 612.5 c 128,-1,5
 -302 598 -302 598 -323 598 c 0,6,7
 -343 598 -343 598 -358 612.5 c 128,-1,8
 -373 627 -373 627 -373 647 c 0,9,10
 -373 668 -373 668 -358.5 683 c 128,-1,11
 -344 698 -344 698 -323 698 c 256,0,1
-177 698 m 256,12,13
 -156 698 -156 698 -142 683.5 c 128,-1,14
 -128 669 -128 669 -128 647 c 0,15,16
 -128 627 -128 627 -142 612.5 c 128,-1,17
 -156 598 -156 598 -177 598 c 0,18,19
 -197 598 -197 598 -212.5 612.5 c 128,-1,20
 -228 627 -228 627 -228 647 c 0,21,22
 -228 668 -228 668 -213 683 c 128,-1,23
 -198 698 -198 698 -177 698 c 256,12,13
EndSplineSet
EndChar

StartChar: uni0307
Encoding: 775 775 154
Width: 0
Flags: W
LayerCount: 2
Fore
SplineSet
-157 698 m 256,0,1
 -136 698 -136 698 -122 683.5 c 128,-1,2
 -108 669 -108 669 -108 647 c 0,3,4
 -108 627 -108 627 -122 612.5 c 128,-1,5
 -136 598 -136 598 -157 598 c 0,6,7
 -177 598 -177 598 -192.5 612.5 c 128,-1,8
 -208 627 -208 627 -208 647 c 0,9,10
 -208 668 -208 668 -193 683 c 128,-1,11
 -178 698 -178 698 -157 698 c 256,0,1
EndSplineSet
EndChar

StartChar: dotbelowcomb
Encoding: 803 803 155
Width: 0
Flags: W
LayerCount: 2
Fore
SplineSet
-203 -82 m 256,0,1
 -182 -82 -182 -82 -168 -96.5 c 128,-1,2
 -154 -111 -154 -111 -154 -133 c 0,3,4
 -154 -153 -154 -153 -168 -167.5 c 128,-1,5
 -182 -182 -182 -182 -203 -182 c 0,6,7
 -223 -182 -223 -182 -238.5 -167.5 c 128,-1,8
 -254 -153 -254 -153 -254 -133 c 0,9,10
 -254 -112 -254 -112 -239 -97 c 128,-1,11
 -224 -82 -224 -82 -203 -82 c 256,0,1
EndSplineSet
EndChar

StartChar: uni071F.med
Encoding: 1114119 -1 156
Width: 520
Flags: W
HStem: 1 40<-150 333 436 670> 359 105<254.556 325.609>
VStem: 334 103<41 345.077>
AnchorPoint: "curs" -149 1 exit 0
AnchorPoint: "curs" 670 1 entry 0
LayerCount: 2
Fore
SplineSet
670 0 m 1,0,1
 670 0 670 0 -150 1 c 1,2,-1
 -150 41 l 1,3,-1
 333 41 l 1,4,-1
 334 312 l 2,5,6
 334 332 334 332 324 345.5 c 128,-1,7
 314 359 314 359 297 359 c 128,-1,8
 280 359 280 359 258.5 341 c 128,-1,9
 237 323 237 323 202 271 c 1,10,11
 202 271 202 271 86 271 c 1,12,-1
 82 276 l 1,13,14
 117 325 117 325 161.20212766 372.510638298 c 0,15,16
 205 420 205 420 237 442 c 128,-1,17
 269 464 269 464 298 464 c 0,18,19
 360 464 360 464 398.5 423.5 c 0,20,21
 437 382 437 382 437 319 c 0,22,23
 436 180 436 180 436 41 c 1,24,25
 670 40 670 40 670 40 c 1,26,-1
 670 0 l 1,0,1
EndSplineSet
EndChar

StartChar: uni0722.init
Encoding: 1114120 -1 157
Width: 466
Flags: W
HStem: 0 40<-150 186> 422 39<115 186 295 363>
VStem: 186 109<40 421>
AnchorPoint: "curs" -150 0 exit 0
AnchorPoint: "curs" 295 0 entry 0
LayerCount: 2
Fore
SplineSet
363 421 m 5,0,-1
 295 421 l 5,1,-1
 295 0 l 5,2,-1
 -150 0 l 5,3,-1
 -150 40 l 5,4,-1
 186 40 l 5,5,-1
 186 422 l 5,6,-1
 115 422 l 5,7,-1
 115 461 l 5,8,-1
 363 461 l 5,9,-1
 363 421 l 5,0,-1
EndSplineSet
EndChar

StartChar: uni0710.med
Encoding: 1114121 -1 158
Width: 800
Flags: W
HStem: 1 40<-149 79 632.201 950> 391 72<188 328>
VStem: 79 110<41 391>
AnchorPoint: "curs" -145 1 exit 0
AnchorPoint: "curs" 951 0 entry 0
LayerCount: 2
Fore
SplineSet
366 575 m 260,0,1
 366 553 366 553 351 539 c 132,-1,2
 336 525 336 525 314 525 c 260,3,4
 292 525 292 525 278 539.5 c 132,-1,5
 264 554 264 554 264 575 c 260,6,7
 264 597 264 597 278.5 612 c 132,-1,8
 293 627 293 627 314 627 c 260,9,10
 336 627 336 627 351 612 c 132,-1,11
 366 597 366 597 366 575 c 260,0,1
632.201171875 40 m 1,12,-1
 950 40 l 1,13,-1
 950 0 l 1,14,-1
 527 1 l 1,15,-1
 335 391 l 1,16,-1
 188 391 l 1,17,-1
 189 1 l 1,18,19
 189 1 189 1 -150 1 c 1,20,-1
 -149 41 l 1,21,-1
 79 41 l 1,22,-1
 79 463 l 1,23,-1
 328 463 l 1,24,-1
 660 672 l 1,25,-1
 720 606 l 1,26,-1
 450 418 l 1,27,-1
 632.201171875 40 l 1,12,-1
EndSplineSet
EndChar

StartChar: uni0717.init
Encoding: 1114122 -1 159
Width: 804
Flags: W
HStem: 0 41<-149 80> 419 42<194 349 461 613>
VStem: 80 114<41 419> 349 112<0 419> 613 111<0 419>
AnchorPoint: "curs" 723 0 entry 0
AnchorPoint: "curs" -145 1 exit 0
LayerCount: 2
Fore
SplineSet
-150 1 m 1,0,-1
 -149 41 l 1,1,-1
 80 41 l 1,2,3
 80 41 80 41 80 461 c 1,4,-1
 724 461 l 1,5,-1
 724 0 l 1,6,-1
 613 0 l 1,7,-1
 613 419 l 1,8,-1
 461 419 l 1,9,-1
 461 0 l 1,10,-1
 349 0 l 1,11,-1
 349 419 l 1,12,-1
 194 419 l 1,13,-1
 194 0 l 1,14,-1
 -150 1 l 1,0,-1
EndSplineSet
EndChar

StartChar: uni0717.med
Encoding: 1114123 -1 160
Width: 804
Flags: W
HStem: 0 41<-149 80 724 954> 419 42<194 349 461 613>
VStem: 80 114<41 419> 349 112<0 419> 613 111<41 419>
AnchorPoint: "curs" 954 0 entry 0
AnchorPoint: "curs" -145 1 exit 0
LayerCount: 2
Fore
SplineSet
724 41 m 1,0,-1
 954 40 l 5,1,-1
 954 0 l 5,2,3
 954 0 954 0 613 0 c 1,4,-1
 613 419 l 1,5,-1
 461 419 l 1,6,-1
 461 0 l 1,7,-1
 349 0 l 1,8,-1
 349 419 l 1,9,-1
 194 419 l 1,10,-1
 194 0 l 1,11,-1
 -150 1 l 1,12,-1
 -149 41 l 1,13,-1
 80 41 l 1,14,15
 80 41 80 41 80 461 c 1,16,-1
 724 461 l 1,17,-1
 724 41 l 1,0,-1
EndSplineSet
EndChar

StartChar: uni0717.fin
Encoding: 1114124 -1 161
Width: 804
Flags: W
HStem: 0 41<724 954> 419 42<194 349 461 613>
VStem: 80 114<0 419> 349 112<0 419> 613 111<41 419>
AnchorPoint: "curs" 954 0 entry 0
AnchorPoint: "curs" 80 0 exit 0
LayerCount: 2
Fore
SplineSet
724 41 m 1,0,-1
 954 40 l 1,1,-1
 954 0 l 1,2,3
 954 0 954 0 613 0 c 1,4,-1
 613 419 l 1,5,-1
 461 419 l 1,6,-1
 461 0 l 1,7,-1
 349 0 l 1,8,-1
 349 419 l 1,9,-1
 194 419 l 1,10,-1
 194 0 l 1,11,-1
 80 0 l 1,12,-1
 80 461 l 1,13,-1
 724 461 l 1,14,-1
 724 41 l 1,0,-1
EndSplineSet
EndChar

StartChar: uni0718.med
Encoding: 1114125 -1 162
Width: 612
Flags: W
HStem: 0 41<-150 175.982 274.864 356.056 438.76 752> 430 37<265.081 347.287>
VStem: 79 143<130.773 330.202> 401 130<130.151 338.665>
AnchorPoint: "curs" 751 1 entry 0
AnchorPoint: "curs" -146 1 exit 0
LayerCount: 2
Fore
SplineSet
175.982421875 41 m 1,0,1
 161 51 161 51 148 64 c 0,2,3
 79 133 79 133 79 233 c 128,-1,4
 79 333 79 333 153.5 400 c 128,-1,5
 228 467 228 467 306.5 467 c 128,-1,6
 385 467 385 467 452 411 c 0,7,8
 531 345 531 345 531 240 c 128,-1,9
 531 135 531 135 469 67.5 c 0,10,11
 455 52 455 52 438.759765625 40 c 1,12,-1
 752 40 l 1,13,-1
 752 0 l 1,14,-1
 169.87109375 0 l 1,15,-1
 -151 1 l 1,16,-1
 -150 41 l 1,17,-1
 175.982421875 41 l 1,0,1
314 46 m 0,18,19
 401 46 401 46 401 236 c 0,20,21
 401 310 401 310 379 364 c 0,22,23
 351 430 351 430 303 430 c 0,24,25
 263 430 263 430 242.5 369.5 c 128,-1,26
 222 309 222 309 222 236 c 128,-1,27
 222 163 222 163 243 111 c 0,28,29
 269 46 269 46 314 46 c 0,18,19
EndSplineSet
EndChar

StartChar: uni0718.fin
Encoding: 1114126 -1 163
Width: 612
Flags: W
HStem: 0 40<278.305 355.08 440 752.24> 430 37<266.275 348.287>
VStem: 80 143<129.178 328.39> 402 130<127.56 335.576>
AnchorPoint: "curs" 202 0 exit 0
AnchorPoint: "curs" 750 1 entry 0
LayerCount: 2
Fore
SplineSet
453 411 m 0,0,1
 532 345 532 345 532 229.299804688 c 0,2,3
 532 114 532 114 440 40 c 1,4,5
 440 40 440 40 752.240234375 40 c 1,6,-1
 752.240234375 0 l 1,7,-1
 314 0 l 2,8,9
 216 0 216 0 148 65 c 128,-1,10
 80 130 80 130 80 231.5 c 128,-1,11
 80 333 80 333 160 405 c 0,12,13
 229 467 229 467 307.5 467 c 128,-1,14
 386 467 386 467 453 411 c 0,0,1
315 46 m 0,15,16
 402 46 402 46 402 236 c 0,17,18
 402 310 402 310 380 364 c 0,19,20
 352 430 352 430 304 430 c 0,21,22
 264 430 264 430 243.5 369.5 c 128,-1,23
 223 309 223 309 223 236 c 256,24,25
 223 163 223 163 244 111 c 0,26,27
 270 46 270 46 315 46 c 0,15,16
EndSplineSet
EndChar

StartChar: uni0718.init
Encoding: 1114127 -1 164
Width: 612
Flags: W
HStem: 0 41<-150 176.982 275.864 356.305> 430 37<266.081 348.287>
VStem: 80 143<130.773 330.202> 402 130<130.151 338.665>
AnchorPoint: "curs" 336 1 entry 0
AnchorPoint: "curs" -146 1 exit 0
LayerCount: 2
Fore
SplineSet
176.982421875 41 m 1,0,1
 162 51 162 51 149 64 c 0,2,3
 80 133 80 133 80 233 c 128,-1,4
 80 333 80 333 154.5 400 c 128,-1,5
 229 467 229 467 307.5 467 c 128,-1,6
 386 467 386 467 453 411 c 0,7,8
 532 345 532 345 532 240 c 128,-1,9
 532 135 532 135 470 67.5 c 128,-1,10
 408 0 408 0 314 0 c 1,11,12
 314 0 314 0 -151 1 c 1,13,-1
 -150 41 l 1,14,-1
 176.982421875 41 l 1,0,1
315 46 m 0,15,16
 402 46 402 46 402 236 c 0,17,18
 402 310 402 310 380 364 c 0,19,20
 352 430 352 430 304 430 c 0,21,22
 264 430 264 430 243.5 369.5 c 128,-1,23
 223 309 223 309 223 236 c 256,24,25
 223 163 223 163 244 111 c 0,26,27
 270 46 270 46 315 46 c 0,15,16
EndSplineSet
EndChar

StartChar: uni071A.init
Encoding: 1114128 -1 165
Width: 524
Flags: W
HStem: 0 41<-150 80>
VStem: 80 81<41 365> 378 76<105 461>
AnchorPoint: "curs" -150 0 exit 0
AnchorPoint: "curs" 454 0 entry 0
LayerCount: 2
Fore
SplineSet
-150 1 m 5,0,-1
 -152 41 l 5,1,-1
 80 41 l 5,2,3
 80 41 80 41 80 461 c 5,4,-1
 210 461 l 5,5,-1
 373 105 l 5,6,-1
 378 105 l 5,7,-1
 378 461 l 5,8,-1
 454 461 l 5,9,-1
 454 0 l 5,10,-1
 340 0 l 5,11,-1
 168 365 l 5,12,-1
 161 365 l 5,13,-1
 161 0 l 5,14,-1
 -150 1 l 5,0,-1
EndSplineSet
EndChar

StartChar: uni071A.med
Encoding: 1114129 -1 166
Width: 524
Flags: W
HStem: 0 41<-150 80 454 674>
VStem: 80 81<41 365> 378 76<105 461>
AnchorPoint: "curs" -150 0 exit 0
AnchorPoint: "curs" 675 0 entry 0
LayerCount: 2
Fore
SplineSet
340.5 0 m 1,0,1
 340 0 340 0 168 365 c 1,2,-1
 161 365 l 1,3,-1
 161 0 l 1,4,-1
 -150 1 l 1,5,-1
 -152 41 l 1,6,-1
 80 41 l 1,7,8
 80 41 80 41 80 461 c 1,9,-1
 210 461 l 1,10,-1
 373 105 l 1,11,-1
 378 105 l 1,12,-1
 378 461 l 1,13,-1
 454 461 l 1,14,-1
 454 41 l 1,15,-1
 674 40 l 1,16,-1
 674 0 l 1,17,18
 507 0 507 0 340.5 0 c 1,0,1
EndSplineSet
EndChar

StartChar: uni071A.fin
Encoding: 1114130 -1 167
Width: 524
Flags: W
HStem: 0 41<454 674>
VStem: 80 81<0 365> 378 76<105 461>
AnchorPoint: "curs" 80 -1 exit 0
AnchorPoint: "curs" 675 0 entry 0
LayerCount: 2
Fore
SplineSet
340 0 m 1,0,1
 340 0 340 0 168 365 c 1,2,-1
 161 365 l 1,3,-1
 161 0 l 1,4,-1
 80 0 l 1,5,-1
 80 461 l 1,6,-1
 210 461 l 1,7,-1
 373 105 l 1,8,-1
 378 105 l 1,9,-1
 378 461 l 1,10,-1
 454 461 l 1,11,-1
 454 41 l 1,12,-1
 674 40 l 1,13,-1
 674 0 l 1,14,15
 674 0 674 0 340 0 c 1,0,1
EndSplineSet
EndChar

StartChar: uni071B.init
Encoding: 1114131 -1 168
Width: 870
Flags: W
HStem: 0 40<-149 253 389 640>
AnchorPoint: "curs" 749 1 entry 0
AnchorPoint: "curs" -145 1 exit 0
LayerCount: 2
Fore
SplineSet
640 1 m 1,0,-1
 389 1 l 1,1,2
 389 0 389 0 443 -172 c 1,3,4
 462.216216216 -161.324324324 462.216216216 -161.324324324 640 1 c 1,0,-1
205 0.25 m 1,5,-1
 -150 0 l 1,6,-1
 -149 40 l 1,7,-1
 205 39.7998046875 l 1,8,-1
 205 40 l 1,9,-1
 253 40 l 1,10,-1
 168 300 l 1,11,12
 144 383 144 383 129.5 425 c 0,13,14
 93 530 93 530 23 575 c 1,15,-1
 23 588 l 1,16,-1
 223 588 l 1,17,-1
 376 40 l 1,18,-1
 791 40 l 1,19,-1
 529 -209 l 1,20,-1
 343 -208 l 1,21,-1
 267 0 l 1,22,-1
 205 0.25 l 1,5,-1
EndSplineSet
EndChar

StartChar: uni071B.med
Encoding: 1114132 -1 169
Width: 870
Flags: W
HStem: 0 40<-150 253 389 640 753 1020>
AnchorPoint: "curs" 1020 0 entry 0
AnchorPoint: "curs" -150 0 exit 0
LayerCount: 2
Fore
SplineSet
1020 0 m 5,0,-1
 753 0 l 1,1,-1
 529 -209 l 1,2,-1
 343 -208 l 1,3,-1
 267 0 l 1,4,-1
 -150 0 l 1,5,-1
 -150 40 l 1,6,-1
 253 40 l 1,7,8
 168 300 168 300 156 341.5 c 128,-1,9
 144 383 144 383 129.5 425 c 0,10,11
 93 530 93 530 23 575 c 1,12,13
 23 575 23 575 23 588 c 1,14,-1
 223 588 l 1,15,-1
 376 40 l 1,16,-1
 1020 40 l 5,17,-1
 1020 0 l 5,0,-1
640 1 m 1,18,-1
 389 1 l 1,19,20
 389 0 389 0 443 -172 c 1,21,22
 462.216216216 -161.324324324 462.216216216 -161.324324324 640 1 c 1,18,-1
EndSplineSet
EndChar

StartChar: uni071B.fin
Encoding: 1114133 -1 170
Width: 870
Flags: W
HStem: 0 40<204 253 389 640 749 1020>
AnchorPoint: "curs" 204 0 exit 0
AnchorPoint: "curs" 1020 0 entry 0
LayerCount: 2
Fore
SplineSet
1020 0 m 5,0,-1
 749 0 l 1,1,-1
 529 -209 l 1,2,-1
 343 -208 l 1,3,-1
 267 0 l 1,4,-1
 204 0 l 1,5,-1
 204 40 l 1,6,-1
 253 40 l 1,7,8
 168 300 168 300 156 341.5 c 128,-1,9
 144 383 144 383 129.5 425 c 0,10,11
 93 530 93 530 23 575 c 1,12,13
 23 575 23 575 23 588 c 1,14,-1
 223 588 l 1,15,-1
 376 40 l 1,16,-1
 797 40 l 1,17,-1
 1020 40 l 5,18,-1
 1020 0 l 5,0,-1
640 1 m 1,19,-1
 389 1 l 1,20,21
 389 0 389 0 443 -172 c 1,22,23
 462.216216216 -161.324324324 462.216216216 -161.324324324 640 1 c 1,19,-1
EndSplineSet
EndChar

StartChar: uni071D.init
Encoding: 1114134 -1 171
Width: 520
Flags: W
HStem: 0 40<-150 110 394 458>
AnchorPoint: "curs" -148 1 exit 0
AnchorPoint: "curs" 456 1 entry 0
LayerCount: 2
Fore
SplineSet
52 562 m 260,0,1
 52 540 52 540 37 526 c 132,-1,2
 22 512 22 512 0 512 c 260,3,4
 -22 512 -22 512 -36 526.5 c 132,-1,5
 -50 541 -50 541 -50 562 c 260,6,7
 -50 584 -50 584 -35.5 599 c 132,-1,8
 -21 614 -21 614 0 614 c 260,9,10
 22 614 22 614 37 599 c 132,-1,11
 52 584 52 584 52 562 c 260,0,1
110 40 m 1,12,-1
 160 402 l 1,13,-1
 234 402 l 1,14,-1
 394 40 l 1,15,-1
 458 40 l 1,16,-1
 458 0 l 1,17,-1
 -150 0 l 1,18,-1
 -150 40 l 1,19,-1
 110 40 l 1,12,-1
EndSplineSet
EndChar

StartChar: uni071D.med
Encoding: 1114135 -1 172
Width: 520
Flags: W
HStem: 0 40<-150 110 394 670>
AnchorPoint: "curs" -148 1 exit 0
AnchorPoint: "curs" 668 1 entry 0
LayerCount: 2
Fore
SplineSet
278 573 m 260,0,1
 278 551 278 551 263 537 c 132,-1,2
 248 523 248 523 226 523 c 260,3,4
 204 523 204 523 190 537.5 c 132,-1,5
 176 552 176 552 176 573 c 260,6,7
 176 595 176 595 190.5 610 c 132,-1,8
 205 625 205 625 226 625 c 260,9,10
 248 625 248 625 263 610 c 132,-1,11
 278 595 278 595 278 573 c 260,0,1
110 40 m 1,12,-1
 160 402 l 1,13,-1
 234 402 l 1,14,-1
 394 40 l 1,15,-1
 670 40 l 1,16,-1
 670 0 l 1,17,-1
 -150 0 l 1,18,-1
 -150 40 l 1,19,-1
 110 40 l 1,12,-1
EndSplineSet
EndChar

StartChar: uni071D.fin
Encoding: 1114136 -1 173
Width: 520
Flags: W
HStem: 0 40<69 110 394 670>
AnchorPoint: "curs" 668 1 entry 0
AnchorPoint: "curs" 71 1 exit 0
LayerCount: 2
Fore
SplineSet
548 572 m 260,0,1
 548 550 548 550 533 536 c 132,-1,2
 518 522 518 522 496 522 c 260,3,4
 474 522 474 522 460 536.5 c 132,-1,5
 446 551 446 551 446 572 c 260,6,7
 446 594 446 594 460.5 609 c 132,-1,8
 475 624 475 624 496 624 c 260,9,10
 518 624 518 624 533 609 c 132,-1,11
 548 594 548 594 548 572 c 260,0,1
110 40 m 1,12,-1
 160 402 l 1,13,-1
 234 402 l 1,14,-1
 394 40 l 1,15,-1
 670 40 l 1,16,-1
 670 0 l 1,17,-1
 69 0 l 1,18,-1
 69 40 l 1,19,-1
 110 40 l 1,12,-1
EndSplineSet
EndChar

StartChar: uni071F.init
Encoding: 1114137 -1 174
Width: 520
Flags: W
HStem: 1 40<-150 333> 359 105<254.556 325.609>
VStem: 333 104<41 345.077>
AnchorPoint: "curs" -149 1 exit 0
AnchorPoint: "curs" 436 1 entry 0
LayerCount: 2
Fore
SplineSet
437 1 m 1,0,-1
 -150 1 l 1,1,-1
 -150 41 l 1,2,-1
 333 41 l 1,3,-1
 334 312 l 2,4,5
 334 332 334 332 324 345.5 c 128,-1,6
 314 359 314 359 297 359 c 128,-1,7
 280 359 280 359 258.5 341 c 128,-1,8
 237 323 237 323 202 271 c 1,9,-1
 86 271 l 1,10,-1
 82 276 l 1,11,12
 117.404255319 325.021276596 117.404255319 325.021276596 161.20212766 372.510638298 c 128,-1,13
 205 420 205 420 237 442 c 128,-1,14
 269 464 269 464 298 464 c 0,15,16
 360 464 360 464 398.5 423.5 c 128,-1,17
 437 383 437 383 437 319 c 2,18,-1
 437 1 l 1,0,-1
EndSplineSet
EndChar

StartChar: uni071F.fin
Encoding: 1114138 -1 175
Width: 868
Flags: W
HStem: -14.5 83.5<216.492 357.155> 0 41<698 1018>
VStem: 80 84<134.175 374>
AnchorPoint: "curs" 89 0 exit 0
AnchorPoint: "curs" 1018 1 entry 0
LayerCount: 2
Fore
SplineSet
80 192 m 2,0,1
 80 192 80 192 80 374 c 1,2,-1
 164 374 l 1,3,-1
 164 264 l 2,4,5
 164 69 164 69 280 69 c 0,6,7
 362 69 362 69 392 134 c 0,8,9
 412 178 412 178 412 276 c 2,10,11
 412 276 412 276 412 374 c 1,12,-1
 504 374 l 1,13,-1
 677 41 l 1,14,15
 677 41 677 41 1018 40 c 1,16,-1
 1018 0 l 1,17,-1
 698 0 l 1,18,-1
 844 -280 l 1,19,-1
 844 -290 l 1,20,-1
 796 -291 l 1,21,-1
 486 192 l 1,22,23
 472 82 472 82 420.5 34 c 128,-1,24
 369 -14 369 -14 279 -14.5 c 128,-1,25
 189 -15 189 -15 134.5 50.5 c 128,-1,26
 80 116 80 116 80 192 c 2,0,1
EndSplineSet
EndChar

StartChar: uni0710.fin
Encoding: 1114139 -1 176
Width: 800
Flags: W
HStem: 1 39<631.5 950> 391 72<189 329>
VStem: 80 110<1 391>
AnchorPoint: "curs" 84 0 exit 0
AnchorPoint: "curs" 950 0 entry 0
LayerCount: 2
Fore
SplineSet
698 414 m 256,0,1
 698 392 698 392 683 378 c 128,-1,2
 668 364 668 364 646 364 c 256,3,4
 624 364 624 364 610 378.5 c 128,-1,5
 596 393 596 393 596 414 c 256,6,7
 596 436 596 436 610.5 451 c 128,-1,8
 625 466 625 466 646 466 c 256,9,10
 668 466 668 466 683 451 c 128,-1,11
 698 436 698 436 698 414 c 256,0,1
950 0 m 1,12,-1
 528 1 l 1,13,-1
 336 391 l 1,14,-1
 189 391 l 1,15,-1
 190 1 l 1,16,-1
 80 1 l 1,17,-1
 80 463 l 1,18,-1
 329 463 l 1,19,-1
 661 672 l 1,20,-1
 721 606 l 1,21,-1
 451 418 l 1,22,-1
 631.5 40 l 1,23,24
 631.5 40 631.5 40 950 40 c 1,25,-1
 950 0 l 1,12,-1
EndSplineSet
EndChar

StartChar: uni200D
Encoding: 8205 8205 177
Width: 817
VWidth: 2048
Flags: W
HStem: 114 42<324.921 394.769> 431 42<198 305> 435 14G<35.7586 53 784.286 802> 452 27G<5 22.7358 755 772.447> 574 13G<35.4242 53 784.5 802> 590 28G<5 22.551 755 772.143> 628 44<134 239> 753 20G<5 95 147 237 288 378 429 519 571 661 712 802>
VStem: 404 52<161.729 360 431 497.375> 632 58<593.751 672>
LayerCount: 2
Fore
SplineSet
802 767 m 1,0,-1
 755 712 l 1,1,-1
 755 724 l 1,2,-1
 797 773 l 1,3,-1
 802 773 l 1,4,-1
 802 767 l 1,0,-1
787 773 m 1,5,-1
 748 728 l 1,6,-1
 738 728 l 1,7,-1
 777 773 l 1,8,-1
 787 773 l 1,5,-1
802 743 m 1,9,-1
 755 689 l 1,10,-1
 755 701 l 1,11,-1
 802 755 l 1,12,-1
 802 743 l 1,9,-1
767 773 m 1,13,-1
 728 728 l 1,14,-1
 718 728 l 1,15,-1
 757 773 l 1,16,-1
 767 773 l 1,13,-1
802 721 m 1,17,-1
 773 687 l 1,18,-1
 763 687 l 1,19,-1
 802 732 l 1,20,-1
 802 721 l 1,17,-1
802 697 m 1,21,-1
 794 687 l 1,22,-1
 783 687 l 1,23,-1
 802 709 l 1,24,-1
 802 697 l 1,21,-1
727 773 m 1,25,-1
 712 755 l 1,26,-1
 712 768 l 1,27,-1
 716 773 l 1,28,-1
 727 773 l 1,25,-1
747 773 m 1,29,-1
 712 732 l 1,30,-1
 712 744 l 1,31,-1
 737 773 l 1,32,-1
 747 773 l 1,29,-1
661 743 m 1,33,-1
 648 728 l 1,34,-1
 637 728 l 1,35,-1
 661 755 l 1,36,-1
 661 743 l 1,33,-1
661 766 m 1,37,-1
 628 728 l 1,38,-1
 617 728 l 1,39,-1
 656 773 l 1,40,-1
 661 773 l 1,41,-1
 661 766 l 1,37,-1
661 728 m 1,42,-1
 657 728 l 1,43,-1
 661 732 l 1,44,-1
 661 728 l 1,42,-1
771 639 m 1,45,-1
 755 620 l 1,46,-1
 755 632 l 1,47,-1
 761 639 l 1,48,-1
 771 639 l 1,45,-1
791 639 m 1,49,-1
 755 597 l 1,50,-1
 755 608 l 1,51,-1
 781 639 l 1,52,-1
 791 639 l 1,49,-1
802 628 m 1,53,-1
 755 574 l 1,54,-1
 755 586 l 1,55,-1
 801 639 l 1,56,-1
 802 639 l 1,57,-1
 802 628 l 1,53,-1
647 773 m 1,58,-1
 608 728 l 1,59,-1
 597 728 l 1,60,-1
 636 773 l 1,61,-1
 647 773 l 1,58,-1
802 605 m 1,62,-1
 757 554 l 1,63,-1
 755 554 l 1,64,-1
 755 562 l 1,65,-1
 802 617 l 1,66,-1
 802 605 l 1,62,-1
627 773 m 1,67,-1
 588 728 l 1,68,-1
 577 728 l 1,69,-1
 616 773 l 1,70,-1
 627 773 l 1,67,-1
802 582 m 1,71,-1
 777 554 l 1,72,-1
 767 554 l 1,73,-1
 802 594 l 1,74,-1
 802 582 l 1,71,-1
802 559 m 1,75,-1
 798 554 l 1,76,-1
 787 554 l 1,77,-1
 802 571 l 1,78,-1
 802 559 l 1,75,-1
586 773 m 1,79,-1
 571 755 l 1,80,-1
 571 767 l 1,81,-1
 576 773 l 1,82,-1
 586 773 l 1,79,-1
606 773 m 1,83,-1
 571 732 l 1,84,-1
 571 743 l 1,85,-1
 596 773 l 1,86,-1
 606 773 l 1,83,-1
519 743 m 1,87,-1
 506 728 l 1,88,-1
 496 728 l 1,89,-1
 519 755 l 1,90,-1
 519 743 l 1,87,-1
519 766 m 1,91,-1
 486 728 l 1,92,-1
 476 728 l 1,93,-1
 515 773 l 1,94,-1
 519 773 l 1,95,-1
 519 766 l 1,91,-1
519 728 m 1,96,-1
 516 728 l 1,97,-1
 519 732 l 1,98,-1
 519 728 l 1,96,-1
755 505 m 1,99,-1
 755 504 l 1,100,-1
 755 505 l 1,99,-1
775 505 m 1,101,-1
 755 481 l 1,102,-1
 755 493 l 1,103,-1
 765 505 l 1,104,-1
 775 505 l 1,101,-1
796 505 m 1,105,-1
 755 458 l 1,106,-1
 755 470 l 1,107,-1
 785 505 l 1,108,-1
 796 505 l 1,105,-1
505 773 m 1,109,-1
 466 728 l 1,110,-1
 456 728 l 1,111,-1
 495 773 l 1,112,-1
 505 773 l 1,109,-1
802 490 m 1,113,-1
 755 435 l 1,114,-1
 755 447 l 1,115,-1
 802 501 l 1,116,-1
 802 490 l 1,113,-1
485 773 m 1,117,-1
 446 728 l 1,118,-1
 436 728 l 1,119,-1
 475 773 l 1,120,-1
 485 773 l 1,117,-1
802 466 m 1,121,-1
 762 420 l 1,122,-1
 755 420 l 1,123,-1
 755 424 l 1,124,-1
 802 479 l 1,125,-1
 802 466 l 1,121,-1
802 443 m 1,126,-1
 782 420 l 1,127,-1
 771 420 l 1,128,-1
 802 455 l 1,129,-1
 802 443 l 1,126,-1
802 420 m 1,130,-1
 792 420 l 1,131,-1
 802 432 l 1,132,-1
 802 420 l 1,130,-1
445 773 m 1,133,-1
 429 755 l 1,134,-1
 429 767 l 1,135,-1
 435 773 l 1,136,-1
 445 773 l 1,133,-1
465 773 m 1,137,-1
 429 732 l 1,138,-1
 429 743 l 1,139,-1
 455 773 l 1,140,-1
 465 773 l 1,137,-1
378 765 m 1,141,-1
 346 728 l 1,142,-1
 335 728 l 1,143,-1
 374 773 l 1,144,-1
 378 773 l 1,145,-1
 378 765 l 1,141,-1
378 742 m 1,146,-1
 366 728 l 1,147,-1
 356 728 l 1,148,-1
 378 754 l 1,149,-1
 378 742 l 1,146,-1
378 728 m 1,150,-1
 376 728 l 1,151,-1
 378 730 l 1,152,-1
 378 728 l 1,150,-1
759 371 m 1,153,-1
 755 366 l 1,154,-1
 755 371 l 1,155,-1
 759 371 l 1,153,-1
779 371 m 1,156,-1
 755 343 l 1,157,-1
 755 355 l 1,158,-1
 769 371 l 1,159,-1
 779 371 l 1,156,-1
800 371 m 1,160,-1
 755 319 l 1,161,-1
 755 332 l 1,162,-1
 789 371 l 1,163,-1
 800 371 l 1,160,-1
365 773 m 1,164,-1
 326 728 l 1,165,-1
 315 728 l 1,166,-1
 354 773 l 1,167,-1
 365 773 l 1,164,-1
802 351 m 1,168,-1
 755 297 l 1,169,-1
 755 308 l 1,170,-1
 802 363 l 1,171,-1
 802 351 l 1,168,-1
345 773 m 1,172,-1
 306 728 l 1,173,-1
 295 728 l 1,174,-1
 334 773 l 1,175,-1
 345 773 l 1,172,-1
802 328 m 1,176,-1
 766 286 l 1,177,-1
 755 286 l 1,178,-1
 802 340 l 1,179,-1
 802 328 l 1,176,-1
802 305 m 1,180,-1
 786 286 l 1,181,-1
 775 286 l 1,182,-1
 802 317 l 1,183,-1
 802 305 l 1,180,-1
802 286 m 1,184,-1
 796 286 l 1,185,-1
 802 294 l 1,186,-1
 802 286 l 1,184,-1
305 773 m 1,187,-1
 288 754 l 1,188,-1
 288 766 l 1,189,-1
 294 773 l 1,190,-1
 305 773 l 1,187,-1
325 773 m 1,191,-1
 288 730 l 1,192,-1
 288 743 l 1,193,-1
 314 773 l 1,194,-1
 325 773 l 1,191,-1
438 493 m 1,195,196
 443 523 443 523 461 580 c 128,-1,197
 479 637 479 637 484 672 c 1,198,-1
 544 672 l 1,199,200
 544 658 544 658 553 623 c 0,201,202
 572 562 572 562 590 491 c 1,203,204
 591 510 591 510 613 581 c 0,205,206
 630 631 630 631 632 672 c 1,207,-1
 690 672 l 1,208,209
 690 649 690 649 665 583 c 0,210,211
 623 472 623 472 614 431 c 1,212,-1
 558 431 l 1,213,214
 558 451 558 451 545 487 c 0,215,216
 512 580 512 580 508 604 c 1,217,218
 503 571 503 571 491 538 c 2,219,-1
 470 473 l 2,220,221
 465 457 465 457 462 431 c 1,222,-1
 406 431 l 1,223,224
 404 454 404 454 381 520 c 0,225,226
 376 533 376 533 367 556.5 c 128,-1,227
 358 580 358 580 353 593.5 c 128,-1,228
 348 607 348 607 341.5 628.5 c 128,-1,229
 335 650 335 650 330 672 c 1,230,-1
 395 672 l 1,231,232
 397 648 397 648 404 625 c 0,233,234
 421 570 421 570 438 493 c 1,195,196
237 764 m 1,235,-1
 205 728 l 1,236,-1
 195 728 l 1,237,-1
 234 773 l 1,238,-1
 237 773 l 1,239,-1
 237 764 l 1,235,-1
237 741 m 1,240,-1
 225 728 l 1,241,-1
 215 728 l 1,242,-1
 237 753 l 1,243,-1
 237 741 l 1,240,-1
237 728 m 1,244,-1
 235 728 l 1,245,-1
 237 730 l 1,246,-1
 237 728 l 1,244,-1
764 238 m 1,247,-1
 755 227 l 1,248,-1
 755 238 l 1,249,-1
 764 238 l 1,247,-1
784 238 m 1,250,-1
 755 204 l 1,251,-1
 755 216 l 1,252,-1
 773 238 l 1,253,-1
 784 238 l 1,250,-1
802 235 m 1,254,-1
 755 181 l 1,255,-1
 755 193 l 1,256,-1
 794 238 l 1,257,-1
 802 238 l 1,258,-1
 802 235 l 1,254,-1
224 773 m 1,259,-1
 185 728 l 1,260,-1
 175 728 l 1,261,-1
 214 773 l 1,262,-1
 224 773 l 1,259,-1
802 212 m 1,263,-1
 755 158 l 1,264,-1
 755 170 l 1,265,-1
 802 224 l 1,266,-1
 802 212 l 1,263,-1
204 773 m 1,267,-1
 165 728 l 1,268,-1
 155 728 l 1,269,-1
 194 773 l 1,270,-1
 204 773 l 1,267,-1
802 189 m 1,271,-1
 770 153 l 1,272,-1
 760 153 l 1,273,-1
 802 201 l 1,274,-1
 802 189 l 1,271,-1
802 166 m 1,275,-1
 790 153 l 1,276,-1
 780 153 l 1,277,-1
 802 178 l 1,278,-1
 802 166 l 1,275,-1
802 153 m 1,279,-1
 800 153 l 1,280,-1
 802 155 l 1,281,-1
 802 153 l 1,279,-1
164 773 m 1,282,-1
 147 753 l 1,283,-1
 147 765 l 1,284,-1
 154 773 l 1,285,-1
 164 773 l 1,282,-1
184 773 m 1,286,-1
 147 730 l 1,287,-1
 147 741 l 1,288,-1
 174 773 l 1,289,-1
 184 773 l 1,286,-1
95 763 m 1,290,-1
 65 728 l 1,291,-1
 54 728 l 1,292,-1
 93 773 l 1,293,-1
 95 773 l 1,294,-1
 95 763 l 1,290,-1
95 740 m 1,295,-1
 85 728 l 1,296,-1
 75 728 l 1,297,-1
 95 752 l 1,298,-1
 95 740 l 1,295,-1
95 728 m 1,299,-1
 95 729 l 1,300,-1
 95 728 l 1,299,-1
768 104 m 1,301,-1
 755 89 l 1,302,-1
 755 101 l 1,303,-1
 757 104 l 1,304,-1
 768 104 l 1,301,-1
788 104 m 1,305,-1
 755 66 l 1,306,-1
 755 77 l 1,307,-1
 777 104 l 1,308,-1
 788 104 l 1,305,-1
802 74 m 1,309,-1
 754 19 l 1,310,-1
 744 19 l 1,311,-1
 802 86 l 1,312,-1
 802 74 l 1,309,-1
802 97 m 1,313,-1
 734 19 l 1,314,-1
 724 19 l 1,315,-1
 798 104 l 1,316,-1
 802 104 l 1,317,-1
 802 97 l 1,313,-1
802 51 m 1,318,-1
 774 19 l 1,319,-1
 764 19 l 1,320,-1
 802 63 l 1,321,-1
 802 51 l 1,318,-1
802 28 m 1,322,-1
 794 19 l 1,323,-1
 784 19 l 1,324,-1
 802 40 l 1,325,-1
 802 28 l 1,322,-1
24 773 m 1,326,-1
 5 752 l 1,327,-1
 5 764 l 1,328,-1
 13 773 l 1,329,-1
 24 773 l 1,326,-1
44 773 m 1,330,-1
 5 729 l 1,331,-1
 5 741 l 1,332,-1
 33 773 l 1,333,-1
 44 773 l 1,330,-1
84 773 m 1,334,-1
 10 687 l 1,335,-1
 5 687 l 1,336,-1
 5 694 l 1,337,-1
 73 773 l 1,338,-1
 84 773 l 1,334,-1
64 773 m 1,339,-1
 5 706 l 1,340,-1
 5 717 l 1,341,-1
 53 773 l 1,342,-1
 64 773 l 1,339,-1
307 477 m 1,343,-1
 305 431 l 1,344,-1
 130 431 l 1,345,-1
 133 472 l 1,346,347
 158 504 158 504 196 559 c 128,-1,348
 234 614 234 614 239 632 c 1,349,350
 186 632 186 632 133 628 c 1,351,-1
 134 672 l 1,352,-1
 303 672 l 1,353,-1
 300 632 l 1,354,355
 208.5 510.5 208.5 510.5 198 473 c 1,356,357
 247 473 247 473 307 477 c 1,343,-1
53 714 m 1,358,-1
 30 687 l 1,359,-1
 20 687 l 1,360,-1
 53 726 l 1,361,-1
 53 714 l 1,358,-1
53 691 m 1,362,-1
 50 687 l 1,363,-1
 40 687 l 1,364,-1
 53 703 l 1,365,-1
 53 691 l 1,362,-1
713 64 m 1,366,-1
 712 63 l 1,367,-1
 712 64 l 1,368,-1
 713 64 l 1,366,-1
733 64 m 1,369,-1
 712 40 l 1,370,-1
 712 52 l 1,371,-1
 722 64 l 1,372,-1
 733 64 l 1,369,-1
753 64 m 1,373,-1
 714 19 l 1,374,-1
 712 19 l 1,375,-1
 712 28 l 1,376,-1
 743 64 l 1,377,-1
 753 64 l 1,373,-1
661 50 m 1,378,-1
 634 19 l 1,379,-1
 623 19 l 1,380,-1
 661 62 l 1,381,-1
 661 50 l 1,378,-1
661 27 m 1,382,-1
 654 19 l 1,383,-1
 643 19 l 1,384,-1
 661 39 l 1,385,-1
 661 27 l 1,382,-1
7 639 m 1,386,-1
 5 636 l 1,387,-1
 5 639 l 1,388,-1
 7 639 l 1,386,-1
28 639 m 1,389,-1
 5 613 l 1,390,-1
 5 625 l 1,391,-1
 18 639 l 1,392,-1
 28 639 l 1,389,-1
48 639 m 1,393,-1
 5 590 l 1,394,-1
 5 602 l 1,395,-1
 38 639 l 1,396,-1
 48 639 l 1,393,-1
653 64 m 1,397,-1
 614 19 l 1,398,-1
 603 19 l 1,399,-1
 642 64 l 1,400,-1
 653 64 l 1,397,-1
53 622 m 1,401,-1
 5 567 l 1,402,-1
 5 579 l 1,403,-1
 53 634 l 1,404,-1
 53 622 l 1,401,-1
633 64 m 1,405,-1
 594 19 l 1,406,-1
 583 19 l 1,407,-1
 622 64 l 1,408,-1
 633 64 l 1,405,-1
53 599 m 1,409,-1
 14 554 l 1,410,-1
 5 554 l 1,411,-1
 5 556 l 1,412,-1
 53 610 l 1,413,-1
 53 599 l 1,409,-1
53 575 m 1,414,-1
 34 554 l 1,415,-1
 24 554 l 1,416,-1
 53 587 l 1,417,-1
 53 575 l 1,414,-1
353 156 m 0,418,419
 382 156 382 156 393 171.5 c 128,-1,420
 404 187 404 187 404 221 c 0,421,422
 404 306 404 306 401 360 c 1,423,-1
 458 360 l 1,424,425
 456 322 456 322 456 224 c 0,426,427
 456 114 456 114 358 114 c 0,428,429
 346 114 346 114 322 118 c 1,430,-1
 325 162 l 1,431,432
 340 156 340 156 353 156 c 0,418,419
53 554 m 1,433,-1
 44 554 l 1,434,-1
 53 564 l 1,435,-1
 53 554 l 1,433,-1
572 64 m 1,436,-1
 571 62 l 1,437,-1
 571 64 l 1,438,-1
 572 64 l 1,436,-1
592 64 m 1,439,-1
 571 39 l 1,440,-1
 571 51 l 1,441,-1
 582 64 l 1,442,-1
 592 64 l 1,439,-1
612 64 m 1,443,-1
 574 19 l 1,444,-1
 571 19 l 1,445,-1
 571 28 l 1,446,-1
 602 64 l 1,447,-1
 612 64 l 1,443,-1
519 50 m 1,448,-1
 492 19 l 1,449,-1
 482 19 l 1,450,-1
 519 62 l 1,451,-1
 519 50 l 1,448,-1
519 27 m 1,452,-1
 513 19 l 1,453,-1
 502 19 l 1,454,-1
 519 39 l 1,455,-1
 519 27 l 1,452,-1
12 505 m 1,456,-1
 5 498 l 1,457,-1
 5 505 l 1,458,-1
 12 505 l 1,456,-1
32 505 m 1,459,-1
 5 475 l 1,460,-1
 5 487 l 1,461,-1
 22 505 l 1,462,-1
 32 505 l 1,459,-1
52 505 m 1,463,-1
 5 452 l 1,464,-1
 5 464 l 1,465,-1
 42 505 l 1,466,-1
 52 505 l 1,463,-1
511 64 m 1,467,-1
 472 19 l 1,468,-1
 462 19 l 1,469,-1
 501 64 l 1,470,-1
 511 64 l 1,467,-1
53 483 m 1,471,-1
 5 428 l 1,472,-1
 5 441 l 1,473,-1
 53 495 l 1,474,-1
 53 483 l 1,471,-1
491 64 m 1,475,-1
 452 19 l 1,476,-1
 442 19 l 1,477,-1
 481 64 l 1,478,-1
 491 64 l 1,475,-1
53 460 m 1,479,-1
 18 420 l 1,480,-1
 8 420 l 1,481,-1
 53 472 l 1,482,-1
 53 460 l 1,479,-1
53 437 m 1,483,-1
 38 420 l 1,484,-1
 28 420 l 1,485,-1
 53 449 l 1,486,-1
 53 437 l 1,483,-1
53 420 m 1,487,-1
 48 420 l 1,488,-1
 53 426 l 1,489,-1
 53 420 l 1,487,-1
431 64 m 1,490,-1
 429 62 l 1,491,-1
 429 64 l 1,492,-1
 431 64 l 1,490,-1
451 64 m 1,493,-1
 429 39 l 1,494,-1
 429 51 l 1,495,-1
 441 64 l 1,496,-1
 451 64 l 1,493,-1
471 64 m 1,497,-1
 432 19 l 1,498,-1
 429 19 l 1,499,-1
 429 28 l 1,500,-1
 461 64 l 1,501,-1
 471 64 l 1,497,-1
378 49 m 1,502,-1
 352 19 l 1,503,-1
 341 19 l 1,504,-1
 378 61 l 1,505,-1
 378 49 l 1,502,-1
378 26 m 1,506,-1
 372 19 l 1,507,-1
 362 19 l 1,508,-1
 378 38 l 1,509,-1
 378 26 l 1,506,-1
16 371 m 1,510,-1
 5 359 l 1,511,-1
 5 371 l 1,512,-1
 16 371 l 1,510,-1
36 371 m 1,513,-1
 5 336 l 1,514,-1
 5 348 l 1,515,-1
 26 371 l 1,516,-1
 36 371 l 1,513,-1
53 368 m 1,517,-1
 5 313 l 1,518,-1
 5 325 l 1,519,-1
 46 371 l 1,520,-1
 53 371 l 1,521,-1
 53 368 l 1,517,-1
371 64 m 1,522,-1
 332 19 l 1,523,-1
 321 19 l 1,524,-1
 360 64 l 1,525,-1
 371 64 l 1,522,-1
53 344 m 1,526,-1
 5 290 l 1,527,-1
 5 302 l 1,528,-1
 53 357 l 1,529,-1
 53 344 l 1,526,-1
351 64 m 1,530,-1
 312 19 l 1,531,-1
 301 19 l 1,532,-1
 340 64 l 1,533,-1
 351 64 l 1,530,-1
53 321 m 1,534,-1
 22 286 l 1,535,-1
 12 286 l 1,536,-1
 53 333 l 1,537,-1
 53 321 l 1,534,-1
53 298 m 1,538,-1
 42 286 l 1,539,-1
 32 286 l 1,540,-1
 53 310 l 1,541,-1
 53 298 l 1,538,-1
53 286 m 1,542,-1
 52 286 l 1,543,-1
 53 287 l 1,544,-1
 53 286 l 1,542,-1
291 64 m 1,545,-1
 288 61 l 1,546,-1
 288 64 l 1,547,-1
 291 64 l 1,545,-1
311 64 m 1,548,-1
 288 38 l 1,549,-1
 288 50 l 1,550,-1
 300 64 l 1,551,-1
 311 64 l 1,548,-1
331 64 m 1,552,-1
 292 19 l 1,553,-1
 288 19 l 1,554,-1
 288 27 l 1,555,-1
 320 64 l 1,556,-1
 331 64 l 1,552,-1
237 48 m 1,557,-1
 211 19 l 1,558,-1
 201 19 l 1,559,-1
 237 60 l 1,560,-1
 237 48 l 1,557,-1
237 25 m 1,561,-1
 231 19 l 1,562,-1
 221 19 l 1,563,-1
 237 37 l 1,564,-1
 237 25 l 1,561,-1
20 238 m 1,565,-1
 5 221 l 1,566,-1
 5 233 l 1,567,-1
 10 238 l 1,568,-1
 20 238 l 1,565,-1
40 238 m 1,569,-1
 5 198 l 1,570,-1
 5 210 l 1,571,-1
 30 238 l 1,572,-1
 40 238 l 1,569,-1
230 64 m 1,573,-1
 191 19 l 1,574,-1
 181 19 l 1,575,-1
 220 64 l 1,576,-1
 230 64 l 1,573,-1
53 229 m 1,577,-1
 5 175 l 1,578,-1
 5 186 l 1,579,-1
 50 238 l 1,580,-1
 53 238 l 1,581,-1
 53 229 l 1,577,-1
210 64 m 1,582,-1
 171 19 l 1,583,-1
 161 19 l 1,584,-1
 200 64 l 1,585,-1
 210 64 l 1,582,-1
53 206 m 1,586,-1
 6 153 l 1,587,-1
 5 153 l 1,588,-1
 5 163 l 1,589,-1
 53 218 l 1,590,-1
 53 206 l 1,586,-1
53 183 m 1,591,-1
 26 153 l 1,592,-1
 16 153 l 1,593,-1
 53 195 l 1,594,-1
 53 183 l 1,591,-1
53 160 m 1,595,-1
 46 153 l 1,596,-1
 36 153 l 1,597,-1
 53 172 l 1,598,-1
 53 160 l 1,595,-1
150 64 m 1,599,-1
 147 60 l 1,600,-1
 147 64 l 1,601,-1
 150 64 l 1,599,-1
190 64 m 1,602,-1
 151 19 l 1,603,-1
 147 19 l 1,604,-1
 147 26 l 1,605,-1
 180 64 l 1,606,-1
 190 64 l 1,602,-1
170 64 m 1,607,-1
 147 37 l 1,608,-1
 147 49 l 1,609,-1
 160 64 l 1,610,-1
 170 64 l 1,607,-1
95 47 m 1,611,-1
 71 19 l 1,612,-1
 60 19 l 1,613,-1
 95 59 l 1,614,-1
 95 47 l 1,611,-1
95 24 m 1,615,-1
 91 19 l 1,616,-1
 81 19 l 1,617,-1
 95 36 l 1,618,-1
 95 24 l 1,615,-1
24 104 m 1,619,-1
 5 82 l 1,620,-1
 5 94 l 1,621,-1
 14 104 l 1,622,-1
 24 104 l 1,619,-1
44 104 m 1,623,-1
 5 59 l 1,624,-1
 5 71 l 1,625,-1
 34 104 l 1,626,-1
 44 104 l 1,623,-1
90 64 m 1,627,-1
 51 19 l 1,628,-1
 40 19 l 1,629,-1
 79 64 l 1,630,-1
 90 64 l 1,627,-1
53 90 m 1,631,-1
 5 36 l 1,632,-1
 5 48 l 1,633,-1
 53 102 l 1,634,-1
 53 90 l 1,631,-1
70 64 m 1,635,-1
 31 19 l 1,636,-1
 20 19 l 1,637,-1
 59 64 l 1,638,-1
 70 64 l 1,635,-1
53 67 m 1,639,-1
 11 19 l 1,640,-1
 5 19 l 1,641,-1
 5 25 l 1,642,-1
 53 79 l 1,643,-1
 53 67 l 1,639,-1
EndSplineSet
EndChar

StartChar: uni200C
Encoding: 8204 8204 178
Width: 797
VWidth: 2048
Flags: W
HStem: 103 43<471.47 539.182> 431 45<196 303> 438 13G<36.3333 53 774.243 791> 454 28G<6 22.4286 744 760.786> 558 37G<36.4286 53 776 791> 598 4G<6 22.7347 744 760.491> 638 46<132 236> 768 20G<6 94 145 234 284 373 423 512 563 651 702 791> 770 21G<423 439 563 578 702 717>
VStem: 178 61<316.849 359> 178 50<108 292> 334 52<262 359> 341 42<108 135.732 183 357.591> 548 52<152.096 359 431 497.844> 623 58<596.544 684>
LayerCount: 2
Fore
SplineSet
791 782 m 1,0,-1
 744 725 l 1,1,-1
 744 737 l 1,2,-1
 785 788 l 1,3,-1
 791 788 l 1,4,-1
 791 782 l 1,0,-1
776 788 m 1,5,-1
 738 741 l 1,6,-1
 727 741 l 1,7,-1
 766 788 l 1,8,-1
 776 788 l 1,5,-1
791 758 m 1,9,-1
 744 701 l 1,10,-1
 744 714 l 1,11,-1
 791 770 l 1,12,-1
 791 758 l 1,9,-1
756 788 m 1,13,-1
 718 741 l 1,14,-1
 707 741 l 1,15,-1
 746 788 l 1,16,-1
 756 788 l 1,13,-1
791 734 m 1,17,-1
 762 700 l 1,18,-1
 752 700 l 1,19,-1
 791 746 l 1,20,-1
 791 734 l 1,17,-1
791 710 m 1,21,-1
 782 700 l 1,22,-1
 772 700 l 1,23,-1
 791 722 l 1,24,-1
 791 710 l 1,21,-1
717 788 m 1,25,-1
 702 770 l 1,26,-1
 702 783 l 1,27,-1
 706 788 l 1,28,-1
 717 788 l 1,25,-1
736 788 m 1,29,-1
 702 746 l 1,30,-1
 702 759 l 1,31,-1
 726 788 l 1,32,-1
 736 788 l 1,29,-1
651 757 m 1,33,-1
 639 741 l 1,34,-1
 628 741 l 1,35,-1
 651 770 l 1,36,-1
 651 757 l 1,33,-1
651 781 m 1,37,-1
 619 741 l 1,38,-1
 609 741 l 1,39,-1
 647 788 l 1,40,-1
 651 788 l 1,41,-1
 651 781 l 1,37,-1
651 741 m 1,42,-1
 648 741 l 1,43,-1
 651 745 l 1,44,-1
 651 741 l 1,42,-1
760 649 m 1,45,-1
 744 629 l 1,46,-1
 744 641 l 1,47,-1
 750 649 l 1,48,-1
 760 649 l 1,45,-1
780 647 m 1,49,-1
 744 605 l 1,50,-1
 744 617 l 1,51,-1
 770 647 l 1,52,-1
 780 647 l 1,49,-1
791 638 m 1,53,-1
 744 581 l 1,54,-1
 744 594 l 1,55,-1
 790 647 l 1,56,-1
 791 647 l 1,57,-1
 791 638 l 1,53,-1
637 788 m 1,58,-1
 599 741 l 1,59,-1
 589 741 l 1,60,-1
 627 788 l 1,61,-1
 637 788 l 1,58,-1
791 614 m 1,62,-1
 747 560 l 1,63,-1
 744 560 l 1,64,-1
 744 569 l 1,65,-1
 791 626 l 1,66,-1
 791 614 l 1,62,-1
618 788 m 1,67,-1
 579 741 l 1,68,-1
 569 741 l 1,69,-1
 607 788 l 1,70,-1
 618 788 l 1,67,-1
791 590 m 1,71,-1
 766 560 l 1,72,-1
 756 560 l 1,73,-1
 791 602 l 1,74,-1
 791 590 l 1,71,-1
791 565 m 1,75,-1
 786 560 l 1,76,-1
 776 560 l 1,77,-1
 791 578 l 1,78,-1
 791 565 l 1,75,-1
578 788 m 1,79,-1
 563 770 l 1,80,-1
 563 782 l 1,81,-1
 568 788 l 1,82,-1
 578 788 l 1,79,-1
598 788 m 1,83,-1
 563 745 l 1,84,-1
 563 758 l 1,85,-1
 588 788 l 1,86,-1
 598 788 l 1,83,-1
512 757 m 1,87,-1
 499 741 l 1,88,-1
 489 741 l 1,89,-1
 512 770 l 1,90,-1
 512 757 l 1,87,-1
512 781 m 1,91,-1
 480 741 l 1,92,-1
 469 741 l 1,93,-1
 508 788 l 1,94,-1
 512 788 l 1,95,-1
 512 781 l 1,91,-1
512 741 m 1,96,-1
 509 741 l 1,97,-1
 512 745 l 1,98,-1
 512 741 l 1,96,-1
745 510 m 1,99,-1
 744 509 l 1,100,-1
 744 510 l 1,101,-1
 745 510 l 1,99,-1
764 510 m 1,102,-1
 744 485 l 1,103,-1
 744 497 l 1,104,-1
 754 510 l 1,105,-1
 764 510 l 1,102,-1
784 510 m 1,106,-1
 744 461 l 1,107,-1
 744 473 l 1,108,-1
 774 510 l 1,109,-1
 784 510 l 1,106,-1
498 788 m 1,110,-1
 460 741 l 1,111,-1
 450 741 l 1,112,-1
 488 788 l 1,113,-1
 498 788 l 1,110,-1
791 493 m 1,114,-1
 744 437 l 1,115,-1
 744 449 l 1,116,-1
 791 506 l 1,117,-1
 791 493 l 1,114,-1
478 788 m 1,118,-1
 440 741 l 1,119,-1
 430 741 l 1,120,-1
 468 788 l 1,121,-1
 478 788 l 1,118,-1
791 469 m 1,122,-1
 751 421 l 1,123,-1
 744 421 l 1,124,-1
 744 425 l 1,125,-1
 791 482 l 1,126,-1
 791 469 l 1,122,-1
791 445 m 1,127,-1
 771 421 l 1,128,-1
 760 421 l 1,129,-1
 791 458 l 1,130,-1
 791 445 l 1,127,-1
791 421 m 1,131,-1
 780 421 l 1,132,-1
 791 434 l 1,133,-1
 791 421 l 1,131,-1
439 788 m 1,134,-1
 423 770 l 1,135,-1
 423 782 l 1,136,-1
 429 788 l 1,137,-1
 439 788 l 1,134,-1
459 788 m 1,138,-1
 423 745 l 1,139,-1
 423 758 l 1,140,-1
 448 788 l 1,141,-1
 459 788 l 1,138,-1
373 780 m 1,142,-1
 341 741 l 1,143,-1
 331 741 l 1,144,-1
 369 788 l 1,145,-1
 373 788 l 1,146,-1
 373 780 l 1,142,-1
373 756 m 1,147,-1
 361 741 l 1,148,-1
 351 741 l 1,149,-1
 373 768 l 1,150,-1
 373 756 l 1,147,-1
373 741 m 1,151,-1
 371 741 l 1,152,-1
 373 744 l 1,153,-1
 373 741 l 1,151,-1
749 370 m 1,154,-1
 744 365 l 1,155,-1
 744 370 l 1,156,-1
 749 370 l 1,154,-1
768 370 m 1,157,-1
 744 340 l 1,158,-1
 744 353 l 1,159,-1
 758 370 l 1,160,-1
 768 370 l 1,157,-1
788 370 m 1,161,-1
 744 316 l 1,162,-1
 744 329 l 1,163,-1
 778 370 l 1,164,-1
 788 370 l 1,161,-1
360 788 m 1,165,-1
 321 741 l 1,166,-1
 311 741 l 1,167,-1
 350 788 l 1,168,-1
 360 788 l 1,165,-1
791 349 m 1,169,-1
 744 293 l 1,170,-1
 744 305 l 1,171,-1
 791 362 l 1,172,-1
 791 349 l 1,169,-1
340 788 m 1,173,-1
 302 741 l 1,174,-1
 291 741 l 1,175,-1
 330 788 l 1,176,-1
 340 788 l 1,173,-1
791 325 m 1,177,-1
 755 282 l 1,178,-1
 745 282 l 1,179,-1
 791 338 l 1,180,-1
 791 325 l 1,177,-1
791 301 m 1,181,-1
 775 282 l 1,182,-1
 764 282 l 1,183,-1
 791 314 l 1,184,-1
 791 301 l 1,181,-1
791 282 m 1,185,-1
 784 282 l 1,186,-1
 791 289 l 1,187,-1
 791 282 l 1,185,-1
300 788 m 1,188,-1
 284 768 l 1,189,-1
 284 781 l 1,190,-1
 290 788 l 1,191,-1
 300 788 l 1,188,-1
320 788 m 1,192,-1
 284 744 l 1,193,-1
 284 757 l 1,194,-1
 310 788 l 1,195,-1
 320 788 l 1,192,-1
681 684 m 1,196,197
 681 670 681 670 673.5 642.5 c 128,-1,198
 666 615 666 615 658 593 c 128,-1,199
 650 571 650 571 636.5 536 c 128,-1,200
 623 501 623 501 621 495 c 0,201,202
 616 482 616 482 605 431 c 1,203,-1
 550 431 l 1,204,205
 550 452 550 452 538 491 c 0,206,207
 506 586 506 586 501 613 c 1,208,209
 496 579 496 579 484 544 c 2,210,-1
 464 476 l 2,211,212
 460 465 460 465 455 431 c 1,213,-1
 400 431 l 1,214,215
 400 454 400 454 376 525 c 0,216,217
 334 645 334 645 325 684 c 1,218,-1
 390 684 l 1,219,220
 390 662 390 662 399 635 c 0,221,222
 420 555 420 555 432 497 c 1,223,224
 437 529 437 529 448 566 c 2,225,-1
 468 634 l 2,226,227
 475 658 475 658 478 684 c 1,228,-1
 536 684 l 1,229,230
 536 666 536 666 546 633 c 0,231,232
 576 516 576 516 581 495 c 1,233,234
 584 524 584 524 605 589 c 0,235,236
 623 649 623 649 623 684 c 1,237,-1
 681 684 l 1,196,197
234 779 m 1,238,-1
 203 741 l 1,239,-1
 193 741 l 1,240,-1
 231 788 l 1,241,-1
 234 788 l 1,242,-1
 234 779 l 1,238,-1
234 755 m 1,243,-1
 223 741 l 1,244,-1
 212 741 l 1,245,-1
 234 768 l 1,246,-1
 234 755 l 1,243,-1
234 741 m 1,247,-1
 232 741 l 1,248,-1
 234 743 l 1,249,-1
 234 741 l 1,247,-1
753 231 m 1,250,-1
 744 220 l 1,251,-1
 744 231 l 1,252,-1
 753 231 l 1,250,-1
773 231 m 1,253,-1
 744 196 l 1,254,-1
 744 209 l 1,255,-1
 762 231 l 1,256,-1
 773 231 l 1,253,-1
791 229 m 1,257,-1
 744 172 l 1,258,-1
 744 185 l 1,259,-1
 782 231 l 1,260,-1
 791 231 l 1,261,-1
 791 229 l 1,257,-1
221 788 m 1,262,-1
 183 741 l 1,263,-1
 173 741 l 1,264,-1
 211 788 l 1,265,-1
 221 788 l 1,262,-1
791 205 m 1,266,-1
 744 148 l 1,267,-1
 744 160 l 1,268,-1
 791 217 l 1,269,-1
 791 205 l 1,266,-1
202 788 m 1,270,-1
 163 741 l 1,271,-1
 153 741 l 1,272,-1
 191 788 l 1,273,-1
 202 788 l 1,270,-1
791 181 m 1,274,-1
 759 143 l 1,275,-1
 749 143 l 1,276,-1
 791 193 l 1,277,-1
 791 181 l 1,274,-1
791 157 m 1,278,-1
 779 143 l 1,279,-1
 769 143 l 1,280,-1
 791 169 l 1,281,-1
 791 157 l 1,278,-1
791 143 m 1,282,-1
 789 143 l 1,283,-1
 791 145 l 1,284,-1
 791 143 l 1,282,-1
162 788 m 1,285,-1
 145 768 l 1,286,-1
 145 780 l 1,287,-1
 152 788 l 1,288,-1
 162 788 l 1,285,-1
182 788 m 1,289,-1
 145 743 l 1,290,-1
 145 756 l 1,291,-1
 172 788 l 1,292,-1
 182 788 l 1,289,-1
94 778 m 1,293,-1
 64 741 l 1,294,-1
 54 741 l 1,295,-1
 92 788 l 1,296,-1
 94 788 l 1,297,-1
 94 778 l 1,293,-1
94 754 m 1,298,-1
 84 741 l 1,299,-1
 74 741 l 1,300,-1
 94 766 l 1,301,-1
 94 754 l 1,298,-1
94 741 m 1,302,-1
 94 742 l 1,303,-1
 94 741 l 1,302,-1
757 92 m 1,304,-1
 744 76 l 1,305,-1
 744 88 l 1,306,-1
 747 92 l 1,307,-1
 757 92 l 1,304,-1
777 92 m 1,308,-1
 744 52 l 1,309,-1
 744 64 l 1,310,-1
 766 92 l 1,311,-1
 777 92 l 1,308,-1
791 61 m 1,312,-1
 743 3 l 1,313,-1
 733 3 l 1,314,-1
 791 73 l 1,315,-1
 791 61 l 1,312,-1
791 85 m 1,316,-1
 724 3 l 1,317,-1
 713 3 l 1,318,-1
 786 92 l 1,319,-1
 791 92 l 1,320,-1
 791 85 l 1,316,-1
791 37 m 1,321,-1
 763 3 l 1,322,-1
 753 3 l 1,323,-1
 791 49 l 1,324,-1
 791 37 l 1,321,-1
791 13 m 1,325,-1
 783 3 l 1,326,-1
 773 3 l 1,327,-1
 791 25 l 1,328,-1
 791 13 l 1,325,-1
24 788 m 1,329,-1
 6 766 l 1,330,-1
 6 779 l 1,331,-1
 13 788 l 1,332,-1
 24 788 l 1,329,-1
43 788 m 1,333,-1
 6 743 l 1,334,-1
 6 755 l 1,335,-1
 33 788 l 1,336,-1
 43 788 l 1,333,-1
83 788 m 1,337,-1
 10 698 l 1,338,-1
 6 698 l 1,339,-1
 6 707 l 1,340,-1
 73 788 l 1,341,-1
 83 788 l 1,337,-1
63 788 m 1,342,-1
 6 719 l 1,343,-1
 6 731 l 1,344,-1
 53 788 l 1,345,-1
 63 788 l 1,342,-1
303 480 m 1,346,-1
 303 431 l 1,347,-1
 131 431 l 1,348,-1
 131 475 l 1,349,350
 154 506 154 506 192.5 564.5 c 128,-1,351
 231 623 231 623 236 642 c 1,352,353
 222 642 222 642 187.5 640 c 128,-1,354
 153 638 153 638 132 638 c 1,355,-1
 132 684 l 1,356,-1
 299 684 l 1,357,-1
 299 641 l 1,358,359
 204 509 204 509 196 476 c 1,360,361
 207 476 207 476 242.5 478 c 128,-1,362
 278 480 278 480 303 480 c 1,346,-1
499 146 m 0,363,364
 527 146 527 146 537.5 162 c 128,-1,365
 548 178 548 178 548 213 c 0,366,367
 548 246 548 246 547 294.5 c 128,-1,368
 546 343 546 343 546 359 c 1,369,-1
 602 359 l 1,370,371
 602 341 602 341 601 293.5 c 128,-1,372
 600 246 600 246 600 217 c 0,373,374
 600 103 600 103 503 103 c 0,375,376
 487 103 487 103 471 107 c 1,377,-1
 471 153 l 1,378,379
 485 146 485 146 499 146 c 0,363,364
53 727 m 1,380,-1
 30 698 l 1,381,-1
 20 698 l 1,382,-1
 53 739 l 1,383,-1
 53 727 l 1,380,-1
53 703 m 1,384,-1
 50 698 l 1,385,-1
 39 698 l 1,386,-1
 53 715 l 1,387,-1
 53 703 l 1,384,-1
703 50 m 1,388,-1
 702 49 l 1,389,-1
 702 50 l 1,390,-1
 703 50 l 1,388,-1
723 50 m 1,391,-1
 702 25 l 1,392,-1
 702 37 l 1,393,-1
 712 50 l 1,394,-1
 723 50 l 1,391,-1
742 50 m 1,395,-1
 704 3 l 1,396,-1
 702 3 l 1,397,-1
 702 13 l 1,398,-1
 732 50 l 1,399,-1
 742 50 l 1,395,-1
651 36 m 1,400,-1
 625 3 l 1,401,-1
 615 3 l 1,402,-1
 651 48 l 1,403,-1
 651 36 l 1,400,-1
651 12 m 1,404,-1
 645 3 l 1,405,-1
 634 3 l 1,406,-1
 651 24 l 1,407,-1
 651 12 l 1,404,-1
8 647 m 1,408,-1
 6 647 l 1,409,-1
 8 647 l 1,408,-1
28 647 m 1,410,-1
 6 622 l 1,411,-1
 6 635 l 1,412,-1
 18 647 l 1,413,-1
 28 647 l 1,410,-1
47 647 m 1,414,-1
 6 598 l 1,415,-1
 6 611 l 1,416,-1
 37 647 l 1,417,-1
 47 647 l 1,414,-1
643 50 m 1,418,-1
 605 3 l 1,419,-1
 595 3 l 1,420,-1
 633 50 l 1,421,-1
 643 50 l 1,418,-1
53 631 m 1,422,-1
 6 574 l 1,423,-1
 6 587 l 1,424,-1
 53 643 l 1,425,-1
 53 631 l 1,422,-1
624 50 m 1,426,-1
 585 3 l 1,427,-1
 575 3 l 1,428,-1
 613 50 l 1,429,-1
 624 50 l 1,426,-1
53 607 m 1,430,-1
 14 560 l 1,431,-1
 6 560 l 1,432,-1
 6 563 l 1,433,-1
 53 619 l 1,434,-1
 53 607 l 1,430,-1
53 583 m 1,435,-1
 34 560 l 1,436,-1
 24 560 l 1,437,-1
 53 595 l 1,438,-1
 53 583 l 1,435,-1
53 560 m 1,439,-1
 43 560 l 1,440,-1
 53 571 l 1,441,-1
 53 560 l 1,439,-1
564 50 m 1,442,-1
 563 48 l 1,443,-1
 563 50 l 1,444,-1
 564 50 l 1,442,-1
584 50 m 1,445,-1
 563 24 l 1,446,-1
 563 37 l 1,447,-1
 574 50 l 1,448,-1
 584 50 l 1,445,-1
604 50 m 1,449,-1
 565 3 l 1,450,-1
 563 3 l 1,451,-1
 563 13 l 1,452,-1
 594 50 l 1,453,-1
 604 50 l 1,449,-1
512 36 m 1,454,-1
 486 3 l 1,455,-1
 475 3 l 1,456,-1
 512 48 l 1,457,-1
 512 36 l 1,454,-1
512 12 m 1,458,-1
 505 3 l 1,459,-1
 495 3 l 1,460,-1
 512 24 l 1,461,-1
 512 12 l 1,458,-1
386 108 m 1,462,-1
 335 108 l 1,463,464
 332 121 332 121 283 192 c 0,465,466
 261 222 261 222 250 240 c 0,467,468
 232 269 232 269 223 292 c 1,469,470
 223 282 223 282 225.5 251 c 128,-1,471
 228 220 228 220 228 200 c 0,472,473
 228 176 228 176 228 154.5 c 128,-1,474
 228 133 228 133 228.5 121 c 128,-1,475
 229 109 229 109 229 108 c 1,476,-1
 178 108 l 1,477,478
 178 130 178 130 179.5 173.5 c 128,-1,479
 181 217 181 217 181 239 c 0,480,481
 181 262 181 262 179.5 301.5 c 128,-1,482
 178 341 178 341 178 359 c 1,483,-1
 239 359 l 1,484,485
 241 345 241 345 285 277 c 0,486,487
 335 199 335 199 341 183 c 1,488,489
 341 198 341 198 337.5 256 c 128,-1,490
 334 314 334 314 334 359 c 1,491,-1
 386 359 l 1,492,493
 386 342 386 342 384.5 310 c 128,-1,494
 383 278 383 278 383 262 c 2,495,-1
 383 215 l 2,496,497
 383 201 383 201 384.5 165 c 128,-1,498
 386 129 386 129 386 108 c 1,462,-1
12 510 m 1,499,-1
 6 502 l 1,500,-1
 6 510 l 1,501,-1
 12 510 l 1,499,-1
32 510 m 1,502,-1
 6 478 l 1,503,-1
 6 490 l 1,504,-1
 22 510 l 1,505,-1
 32 510 l 1,502,-1
52 510 m 1,506,-1
 6 454 l 1,507,-1
 6 467 l 1,508,-1
 41 510 l 1,509,-1
 52 510 l 1,506,-1
504 50 m 1,510,-1
 466 3 l 1,511,-1
 456 3 l 1,512,-1
 494 50 l 1,513,-1
 504 50 l 1,510,-1
53 487 m 1,514,-1
 6 431 l 1,515,-1
 6 442 l 1,516,-1
 53 499 l 1,517,-1
 53 487 l 1,514,-1
484 50 m 1,518,-1
 446 3 l 1,519,-1
 436 3 l 1,520,-1
 474 50 l 1,521,-1
 484 50 l 1,518,-1
53 463 m 1,522,-1
 18 421 l 1,523,-1
 8 421 l 1,524,-1
 53 475 l 1,525,-1
 53 463 l 1,522,-1
53 438 m 1,526,-1
 38 421 l 1,527,-1
 28 421 l 1,528,-1
 53 451 l 1,529,-1
 53 438 l 1,526,-1
53 421 m 1,530,-1
 48 421 l 1,531,-1
 53 427 l 1,532,-1
 53 421 l 1,530,-1
425 50 m 1,533,-1
 423 48 l 1,534,-1
 423 50 l 1,535,-1
 425 50 l 1,533,-1
445 50 m 1,536,-1
 423 24 l 1,537,-1
 423 37 l 1,538,-1
 435 50 l 1,539,-1
 445 50 l 1,536,-1
465 50 m 1,540,-1
 426 3 l 1,541,-1
 423 3 l 1,542,-1
 423 13 l 1,543,-1
 454 50 l 1,544,-1
 465 50 l 1,540,-1
373 35 m 1,545,-1
 347 3 l 1,546,-1
 337 3 l 1,547,-1
 373 47 l 1,548,-1
 373 35 l 1,545,-1
373 11 m 1,549,-1
 367 3 l 1,550,-1
 357 3 l 1,551,-1
 373 23 l 1,552,-1
 373 11 l 1,549,-1
16 370 m 1,553,-1
 6 358 l 1,554,-1
 6 370 l 1,555,-1
 16 370 l 1,553,-1
36 370 m 1,556,-1
 6 334 l 1,557,-1
 6 346 l 1,558,-1
 26 370 l 1,559,-1
 36 370 l 1,556,-1
53 367 m 1,560,-1
 6 310 l 1,561,-1
 6 322 l 1,562,-1
 45 370 l 1,563,-1
 53 370 l 1,564,-1
 53 367 l 1,560,-1
366 50 m 1,565,-1
 327 3 l 1,566,-1
 317 3 l 1,567,-1
 355 50 l 1,568,-1
 366 50 l 1,565,-1
53 342 m 1,569,-1
 6 286 l 1,570,-1
 6 298 l 1,571,-1
 53 355 l 1,572,-1
 53 342 l 1,569,-1
346 50 m 1,573,-1
 308 3 l 1,574,-1
 297 3 l 1,575,-1
 336 50 l 1,576,-1
 346 50 l 1,573,-1
53 318 m 1,577,-1
 22 282 l 1,578,-1
 12 282 l 1,579,-1
 53 331 l 1,580,-1
 53 318 l 1,577,-1
53 295 m 1,581,-1
 42 282 l 1,582,-1
 32 282 l 1,583,-1
 53 307 l 1,584,-1
 53 295 l 1,581,-1
53 282 m 1,585,-1
 52 282 l 1,586,-1
 53 283 l 1,587,-1
 53 282 l 1,585,-1
287 50 m 1,588,-1
 284 47 l 1,589,-1
 284 50 l 1,590,-1
 287 50 l 1,588,-1
306 50 m 1,591,-1
 284 23 l 1,592,-1
 284 35 l 1,593,-1
 296 50 l 1,594,-1
 306 50 l 1,591,-1
326 50 m 1,595,-1
 288 3 l 1,596,-1
 284 3 l 1,597,-1
 284 12 l 1,598,-1
 316 50 l 1,599,-1
 326 50 l 1,595,-1
234 34 m 1,600,-1
 209 3 l 1,601,-1
 198 3 l 1,602,-1
 234 46 l 1,603,-1
 234 34 l 1,600,-1
234 10 m 1,604,-1
 229 3 l 1,605,-1
 218 3 l 1,606,-1
 234 22 l 1,607,-1
 234 10 l 1,604,-1
20 231 m 1,608,-1
 6 213 l 1,609,-1
 6 226 l 1,610,-1
 10 231 l 1,611,-1
 20 231 l 1,608,-1
40 231 m 1,612,-1
 6 190 l 1,613,-1
 6 202 l 1,614,-1
 30 231 l 1,615,-1
 40 231 l 1,612,-1
227 50 m 1,616,-1
 189 3 l 1,617,-1
 179 3 l 1,618,-1
 217 50 l 1,619,-1
 227 50 l 1,616,-1
53 222 m 1,620,-1
 6 166 l 1,621,-1
 6 178 l 1,622,-1
 50 231 l 1,623,-1
 53 231 l 1,624,-1
 53 222 l 1,620,-1
208 50 m 1,625,-1
 169 3 l 1,626,-1
 159 3 l 1,627,-1
 197 50 l 1,628,-1
 208 50 l 1,625,-1
53 198 m 1,629,-1
 7 143 l 1,630,-1
 6 143 l 1,631,-1
 6 154 l 1,632,-1
 53 211 l 1,633,-1
 53 198 l 1,629,-1
53 174 m 1,634,-1
 26 143 l 1,635,-1
 17 143 l 1,636,-1
 53 187 l 1,637,-1
 53 174 l 1,634,-1
53 150 m 1,638,-1
 46 143 l 1,639,-1
 36 143 l 1,640,-1
 53 162 l 1,641,-1
 53 150 l 1,638,-1
148 50 m 1,642,-1
 145 46 l 1,643,-1
 145 50 l 1,644,-1
 148 50 l 1,642,-1
188 50 m 1,645,-1
 149 3 l 1,646,-1
 145 3 l 1,647,-1
 145 11 l 1,648,-1
 177 50 l 1,649,-1
 188 50 l 1,645,-1
168 50 m 1,650,-1
 145 22 l 1,651,-1
 145 35 l 1,652,-1
 158 50 l 1,653,-1
 168 50 l 1,650,-1
94 33 m 1,654,-1
 70 3 l 1,655,-1
 60 3 l 1,656,-1
 94 45 l 1,657,-1
 94 33 l 1,654,-1
94 9 m 1,658,-1
 90 3 l 1,659,-1
 80 3 l 1,660,-1
 94 21 l 1,661,-1
 94 9 l 1,658,-1
24 92 m 1,662,-1
 6 69 l 1,663,-1
 6 82 l 1,664,-1
 14 92 l 1,665,-1
 24 92 l 1,662,-1
44 92 m 1,666,-1
 6 45 l 1,667,-1
 6 58 l 1,668,-1
 34 92 l 1,669,-1
 44 92 l 1,666,-1
89 50 m 1,670,-1
 51 3 l 1,671,-1
 40 3 l 1,672,-1
 79 50 l 1,673,-1
 89 50 l 1,670,-1
53 78 m 1,674,-1
 6 21 l 1,675,-1
 6 34 l 1,676,-1
 53 90 l 1,677,-1
 53 78 l 1,674,-1
69 50 m 1,678,-1
 31 3 l 1,679,-1
 20 3 l 1,680,-1
 59 50 l 1,681,-1
 69 50 l 1,678,-1
53 54 m 1,682,-1
 11 3 l 1,683,-1
 6 3 l 1,684,-1
 6 10 l 1,685,-1
 53 66 l 1,686,-1
 53 54 l 1,682,-1
EndSplineSet
EndChar

StartChar: uni0710.init
Encoding: 1114140 -1 179
Width: 800
Flags: W
HStem: 1 40<-149 80> 391 72<189 329>
VStem: 80 110<41 391>
AnchorPoint: "curs" -145 1 exit 0
AnchorPoint: "curs" 648 0 entry 0
LayerCount: 2
Fore
SplineSet
182 604 m 256,0,1
 182 582 182 582 167 568 c 128,-1,2
 152 554 152 554 130 554 c 256,3,4
 108 554 108 554 94 568.5 c 128,-1,5
 80 583 80 583 80 604 c 256,6,7
 80 626 80 626 94.5 641 c 128,-1,8
 109 656 109 656 130 656 c 256,9,10
 152 656 152 656 167 641 c 128,-1,11
 182 626 182 626 182 604 c 256,0,1
80 41 m 5,12,-1
 80 463 l 1,13,-1
 329 463 l 1,14,-1
 661 672 l 1,15,-1
 721 606 l 1,16,-1
 451 418 l 1,17,-1
 652 1 l 1,18,-1
 528 1 l 1,19,-1
 336 391 l 1,20,-1
 189 391 l 1,21,-1
 190 1 l 1,22,-1
 -150 1 l 1,23,-1
 -149 41 l 1,24,-1
 80 41 l 5,12,-1
EndSplineSet
EndChar

StartChar: uni0715.med
Encoding: 1114141 -1 180
Width: 648
Flags: W
HStem: 0 40<571 798> 308 153<80 239.5> 425 37<239.5 463.5>
VStem: 80 159.5<308 425> 463 108<40 425>
AnchorPoint: "curs" 84 0 exit 0
AnchorPoint: "curs" 798 0 entry 0
LayerCount: 2
Fore
SplineSet
81.5 461 m 1,0,-1
 81.5 462 l 1,1,-1
 570.5 462 l 1,2,-1
 570.5 461 l 1,3,-1
 571 461 l 1,4,-1
 571 40 l 1,5,-1
 798 40 l 1,6,-1
 798 0 l 1,7,8
 798 0 798 0 463 0 c 1,9,-1
 463.5 425 l 1,10,-1
 239.5 425 l 1,11,-1
 239.5 309 l 1,12,-1
 237 309 l 1,13,-1
 237 308 l 1,14,-1
 80 308 l 1,15,-1
 80 461 l 1,16,-1
 81.5 461 l 1,0,-1
EndSplineSet
EndChar

StartChar: uni0715.fin
Encoding: 1114142 -1 181
Width: 648
Flags: W
HStem: 0 40<571 798> 308 153<80 239.5> 425 37<239.5 463.5>
VStem: 80 159.5<308 425> 463 108<40 425>
AnchorPoint: "curs" 84 0 exit 0
AnchorPoint: "curs" 798 0 entry 0
LayerCount: 2
Fore
SplineSet
81.5 461 m 1,0,-1
 81.5 462 l 1,1,-1
 570.5 462 l 1,2,-1
 570.5 461 l 1,3,-1
 571 461 l 1,4,-1
 571 40 l 1,5,-1
 798 40 l 5,6,-1
 798 0 l 5,7,8
 798 0 798 0 463 0 c 1,9,-1
 463.5 425 l 1,10,-1
 239.5 425 l 1,11,-1
 239.5 309 l 1,12,-1
 237 309 l 1,13,-1
 237 308 l 1,14,-1
 80 308 l 1,15,-1
 80 461 l 1,16,-1
 81.5 461 l 1,0,-1
EndSplineSet
EndChar

StartChar: uni0719.med
Encoding: 1114143 -1 182
Width: 400
Flags: W
HStem: 0 40<260 447>
VStem: 140 120<40 461>
AnchorPoint: "curs" 140 0 exit 0
AnchorPoint: "curs" 448 0 entry 0
LayerCount: 2
Fore
SplineSet
447 0 m 1,0,-1
 140 0 l 1,1,-1
 140 461 l 1,2,-1
 260 461 l 1,3,-1
 260 40 l 1,4,-1
 447 41 l 1,5,-1
 447 0 l 1,0,-1
EndSplineSet
EndChar

StartChar: uni0719.fin
Encoding: 1114144 -1 183
Width: 400
Flags: W
HStem: 0 40<260 447>
VStem: 140 120<40 461>
AnchorPoint: "curs" 140 0 exit 0
AnchorPoint: "curs" 448 0 entry 0
LayerCount: 2
Fore
SplineSet
447 0 m 1,0,-1
 140 0 l 1,1,-1
 140 461 l 1,2,-1
 260 461 l 1,3,-1
 260 40 l 1,4,-1
 447 41 l 1,5,-1
 447 0 l 1,0,-1
EndSplineSet
EndChar

StartChar: uni0720.init
Encoding: 1114145 -1 184
Width: 598
Flags: W
HStem: 1 40<-150 391>
AnchorPoint: "curs" -151 0 exit 0
AnchorPoint: "curs" 512 0 entry 0
LayerCount: 2
Fore
SplineSet
512 1 m 1,0,-1
 -150 1 l 1,1,-1
 -150 41 l 1,2,-1
 391 41 l 1,3,-1
 393 45 l 1,4,-1
 158 518 l 1,5,6
 138 553 138 553 80 589 c 1,7,-1
 274 589 l 1,8,-1
 512 9 l 1,9,-1
 512 1 l 1,0,-1
EndSplineSet
EndChar

StartChar: uni0720.med
Encoding: 1114146 -1 185
Width: 598
Flags: W
HStem: 1 40<-150 391 491.816 748>
AnchorPoint: "curs" -151 0 exit 0
AnchorPoint: "curs" 747 0 entry 0
LayerCount: 2
Fore
SplineSet
748 0 m 1,0,1
 71 0 71 0 -150 1 c 1,2,3
 -150 1 -150 1 -150 41 c 1,4,-1
 391 41 l 1,5,-1
 393 45 l 1,6,-1
 158 518 l 1,7,8
 138 553 138 553 80 589 c 1,9,10
 80 589 80 589 274 589 c 1,11,12
 386 315 386 315 498.869140625 41 c 1,13,14
 498.869140625 41 498.869140625 41 748 40 c 1,15,-1
 748 0 l 1,0,1
EndSplineSet
EndChar

StartChar: uni0720.fin
Encoding: 1114147 -1 186
Width: 598
Flags: W
HStem: 1 40<80 392 492.816 748>
AnchorPoint: "curs" 747 0 entry 0
AnchorPoint: "curs" 79 0 exit 0
LayerCount: 2
Fore
SplineSet
748 0 m 1,0,1
 301 0 301 0 80 1 c 1,2,3
 80 1 80 1 80 41 c 1,4,-1
 392 41 l 1,5,-1
 394 45 l 1,6,-1
 159 518 l 1,7,8
 139 553 139 553 81 589 c 1,9,10
 81 589 81 589 275 589 c 1,11,12
 387 315 387 315 499.869140625 41 c 1,13,14
 499.869140625 41 499.869140625 41 748 40 c 1,15,-1
 748 0 l 1,0,1
EndSplineSet
EndChar

StartChar: uni0721.init
Encoding: 1114148 -1 187
Width: 805
Flags: W
HStem: 1 40<-150 337 451 622> 312 150<80 233> 419 43<233 337 451 622>
VStem: 80 153<312 419> 337 114<41 417> 622 113<41 417>
AnchorPoint: "curs" -148 1 exit 0
AnchorPoint: "curs" 734 -1 entry 0
LayerCount: 2
Fore
SplineSet
735 1 m 1,0,-1
 -150 1 l 1,1,-1
 -150 41 l 1,2,-1
 337 41 l 1,3,-1
 337 419 l 1,4,-1
 233 419 l 1,5,-1
 233 312 l 1,6,-1
 80 312 l 1,7,-1
 80 462 l 1,8,-1
 735 462 l 1,9,-1
 735 1 l 1,0,-1
622 41 m 1,10,-1
 622 417 l 1,11,-1
 451 417 l 1,12,-1
 451 41 l 1,13,-1
 622 41 l 1,10,-1
EndSplineSet
EndChar

StartChar: uni0721.med
Encoding: 1114149 -1 188
Width: 805
Flags: W
HStem: 1 40<-150 337 451 622 735 945> 312 150<80 233> 419 43<233 337 451 622>
VStem: 80 153<312 419> 337 114<41 417> 622 113<41 417>
AnchorPoint: "curs" -148 1 exit 0
AnchorPoint: "curs" 945 0 entry 0
LayerCount: 2
Fore
SplineSet
-150 1 m 1,0,-1
 -150 41 l 1,1,-1
 337 41 l 1,2,-1
 337 419 l 1,3,-1
 233 419 l 1,4,-1
 233 312 l 1,5,-1
 80 312 l 1,6,-1
 80 462 l 1,7,-1
 735 462 l 1,8,-1
 735 41 l 1,9,-1
 945 40 l 1,10,-1
 945 0 l 2,11,12
 945 0 945 0 -150 1 c 1,0,-1
622 41 m 1,13,-1
 622 417 l 1,14,-1
 451 417 l 1,15,-1
 451 41 l 1,16,-1
 622 41 l 1,13,-1
EndSplineSet
EndChar

StartChar: uni0721.fin
Encoding: 1114150 -1 189
Width: 805
Flags: W
HStem: 1 40<79 337 451 622 735 945> 312 150<80 233> 419 43<233 337 451 622>
VStem: 80 153<312 419> 337 114<41 417> 622 113<41 417>
AnchorPoint: "curs" 945 0 entry 0
AnchorPoint: "curs" 81 1 exit 0
LayerCount: 2
Fore
SplineSet
79 1 m 1,0,-1
 79 41 l 1,1,-1
 337 41 l 1,2,-1
 337 419 l 1,3,-1
 233 419 l 1,4,-1
 233 312 l 1,5,-1
 80 312 l 1,6,-1
 80 462 l 1,7,-1
 735 462 l 1,8,-1
 735 41 l 1,9,-1
 945 40 l 1,10,-1
 945 0 l 2,11,12
 945 0 945 0 79 1 c 1,0,-1
622 41 m 1,13,-1
 622 417 l 1,14,-1
 451 417 l 1,15,-1
 451 41 l 1,16,-1
 622 41 l 1,13,-1
EndSplineSet
EndChar

StartChar: uni0722.med
Encoding: 1114151 -1 190
Width: 466
Flags: W
HStem: 0 40<-150 186 295 606> 422 39<115 186 295 363>
VStem: 186 109<40 421>
AnchorPoint: "curs" -148 1 exit 0
AnchorPoint: "curs" 604 -2 entry 0
LayerCount: 2
Fore
SplineSet
-150 0 m 1,0,-1
 -150 40 l 1,1,-1
 186 40 l 1,2,-1
 186 422 l 1,3,-1
 115 422 l 1,4,-1
 115 461 l 1,5,-1
 363 461 l 1,6,-1
 363 421 l 1,7,-1
 295 421 l 1,8,-1
 295 40 l 1,9,-1
 606 40 l 1,10,-1
 606 0 l 1,11,12
 606 0 606 0 -150 0 c 1,0,-1
EndSplineSet
EndChar

StartChar: uni0722.fin
Encoding: 1114152 -1 191
Width: 807
Flags: W
HStem: 0 41<431 957>
AnchorPoint: "curs" 142 1 exit 0
AnchorPoint: "curs" 958 -6 entry 0
LayerCount: 2
Fore
SplineSet
431 0 m 1,0,1
 476 -36 476 -36 521 -71 c 0,2,3
 669 -189 669 -189 855 -295 c 0,4,5
 907 -325 907 -325 989 -370 c 1,6,7
 988 -370 988 -370 984 -386 c 1,8,9
 643 -260 643 -260 496.647727273 -194.738636364 c 0,10,11
 144 -37 144 -37 144 65 c 0,12,13
 144 89 144 89 159 106.4 c 0,14,15
 186 138 186 138 227.5 138 c 128,-1,16
 269 138 269 138 314 100.5 c 128,-1,17
 359 63 359 63 385.256835938 41 c 1,18,19
 385.256835938 41 385.256835938 41 957 40 c 1,20,-1
 957 0 l 1,21,22
 957 0 957 0 431 0 c 1,0,1
EndSplineSet
EndChar

StartChar: uni0723.med
Encoding: 1114153 -1 192
Width: 880
Flags: W
HStem: 0 54<251.312 390.176 500.02 634.023> 0 40<-150 152 717.886 1030> 387 78<215.954 321.796 564.916 669.951>
VStem: 81 90<142.363 332.434> 403 80<69.99 253.148> 715 88<142.625 332.416>
AnchorPoint: "curs" -148 -1 exit 0
AnchorPoint: "curs" 1030 0 entry 0
LayerCount: 2
Fore
SplineSet
1030 0 m 1,0,1
 1030 0 1030 0 -150 0 c 1,2,-1
 -150 40 l 1,3,-1
 152 40 l 1,4,5
 142 50 142 50 130.5 68.5 c 0,6,7
 81 148 81 148 81 224.5 c 128,-1,8
 81 301 81 301 114.5 362 c 128,-1,9
 148 423 148 423 196 449 c 0,10,11
 209 456 209 456 234.5 460.5 c 128,-1,12
 260 465 260 465 277 465 c 0,13,14
 319 465 319 465 357.5 426 c 128,-1,15
 396 387 396 387 414 352.5 c 128,-1,16
 432 318 432 318 443 295 c 1,17,18
 520 465 520 465 614.5 465 c 0,19,20
 663 465 663 465 690 449 c 0,21,22
 745 416 745 416 773.5 360 c 128,-1,23
 802 304 802 304 803 215 c 0,24,25
 803 159 803 159 749.5 81 c 0,26,27
 733 57 733 57 717.885742188 40 c 1,28,29
 717.885742188 40 717.885742188 40 1030 40 c 1,30,-1
 1030 0 l 1,0,1
715 242 m 0,31,32
 715 296 715 296 688.5 341.5 c 128,-1,33
 662 387 662 387 615 387 c 0,34,35
 550.10546875 387 550.10546875 387 508 267 c 0,36,37
 503 255 503 255 493 208.5 c 128,-1,38
 483 162 483 162 483 123.5 c 128,-1,39
 483 85 483 85 499.5 69.5 c 128,-1,40
 516 54 516 54 550 54 c 0,41,42
 628 54 628 54 671.5 108 c 128,-1,43
 715 162 715 162 715 242 c 0,31,32
336 54 m 0,44,45
 403 54 403 54 403 122 c 0,46,47
 403 156 403 156 394 201 c 0,48,49
 373.799804688 302 373.799804688 302 333 353 c 0,50,51
 306 387 306 387 271 387 c 0,52,53
 224 387 224 387 197.5 341 c 128,-1,54
 171 295 171 295 171 242 c 0,55,56
 171 162 171 162 214 108 c 128,-1,57
 257 54 257 54 336 54 c 0,44,45
EndSplineSet
EndChar

StartChar: uni0723.init
Encoding: 1114154 -1 193
Width: 880
Flags: W
HStem: 0 40<-150 151> 1 53<250.312 389.176 499.02 633.023> 387 78<214.954 320.796 563.916 668.951>
VStem: 80 90<142.363 332.434> 402 80<69.99 253.148> 714 88<142.031 332.416>
AnchorPoint: "curs" -148 -1 exit 0
AnchorPoint: "curs" 652 -1 entry 0
LayerCount: 2
Fore
SplineSet
714 242 m 0,0,1
 714 296 714 296 687.5 341.5 c 128,-1,2
 661 387 661 387 614 387 c 0,3,4
 549.10546875 387 549.10546875 387 507 267 c 0,5,6
 502 255 502 255 492 208.5 c 128,-1,7
 482 162 482 162 482 123.5 c 128,-1,8
 482 85 482 85 498.5 69.5 c 128,-1,9
 515 54 515 54 549 54 c 0,10,11
 627 54 627 54 670.5 108 c 128,-1,12
 714 162 714 162 714 242 c 0,0,1
335 54 m 0,13,14
 402 54 402 54 402 122 c 0,15,16
 402 156 402 156 393 201 c 0,17,18
 372.799804688 302 372.799804688 302 332 353 c 0,19,20
 305 387 305 387 270 387 c 0,21,22
 223 387 223 387 196.5 341 c 128,-1,23
 170 295 170 295 170 242 c 0,24,25
 170 162 170 162 213 108 c 128,-1,26
 256 54 256 54 335 54 c 0,13,14
649 1 m 2,27,28
 649 1 649 1 -150 0 c 1,29,-1
 -150 40 l 1,30,-1
 151 40 l 1,31,32
 141 50 141 50 129.5 68.5 c 0,33,34
 80 148 80 148 80 224.5 c 128,-1,35
 80 301 80 301 113.5 362 c 128,-1,36
 147 423 147 423 195 449 c 0,37,38
 208 456 208 456 233.5 460.5 c 128,-1,39
 259 465 259 465 276 465 c 0,40,41
 318 465 318 465 356.5 426 c 128,-1,42
 395 387 395 387 413 352.5 c 128,-1,43
 431 318 431 318 442 295 c 1,44,45
 519 465 519 465 613.5 465 c 0,46,47
 662 465 662 465 689 449 c 0,48,49
 744 416 744 416 772.5 360 c 128,-1,50
 801 304 801 304 802 215 c 0,51,52
 802 161 802 161 748.5 81 c 128,-1,53
 695 1 695 1 649 1 c 2,27,28
EndSplineSet
EndChar

StartChar: uni0723.fin
Encoding: 1114155 -1 194
Width: 880
Flags: W
HStem: 0 54<249.312 388.176 498.02 632.023> 0 40<715.886 1030> 387 78<213.954 319.796 562.916 667.951>
VStem: 79 90<142.73 331.639> 401 80<69.99 253.148> 713 88<142.625 332.416>
AnchorPoint: "curs" 1030 0 entry 0
AnchorPoint: "curs" 182 0 exit 0
LayerCount: 2
Fore
SplineSet
1030 0 m 1,0,1
 1030 0 1030 0 211 0 c 1,2,3
 192 2 192 2 169.631835938 19.1630859375 c 0,4,5
 145 38 145 38 128.5 68.5 c 0,6,7
 79 162 79 162 79 231.424804688 c 128,-1,8
 79 301 79 301 112.5 362 c 128,-1,9
 146 423 146 423 194 449 c 0,10,11
 207 456 207 456 232.5 460.5 c 128,-1,12
 258 465 258 465 275 465 c 0,13,14
 317 465 317 465 355.5 426 c 128,-1,15
 394 387 394 387 412 352.5 c 128,-1,16
 430 318 430 318 441 295 c 1,17,18
 518 465 518 465 612.5 465 c 0,19,20
 661 465 661 465 688 449 c 0,21,22
 743 416 743 416 771.5 360 c 128,-1,23
 800 304 800 304 801 215 c 0,24,25
 801 159 801 159 747.5 81 c 0,26,27
 731 57 731 57 715.885742188 40 c 1,28,29
 715.885742188 40 715.885742188 40 1030 40 c 1,30,-1
 1030 0 l 1,0,1
713 242 m 0,31,32
 713 296 713 296 686.5 341.5 c 128,-1,33
 660 387 660 387 613 387 c 0,34,35
 548.10546875 387 548.10546875 387 506 267 c 0,36,37
 501 255 501 255 491 208.5 c 128,-1,38
 481 162 481 162 481 123.5 c 128,-1,39
 481 85 481 85 497.5 69.5 c 128,-1,40
 514 54 514 54 548 54 c 0,41,42
 626 54 626 54 669.5 108 c 128,-1,43
 713 162 713 162 713 242 c 0,31,32
334 54 m 0,44,45
 401 54 401 54 401 122 c 0,46,47
 401 156 401 156 392 201 c 0,48,49
 371.799804688 302 371.799804688 302 331 353 c 0,50,51
 304 387 304 387 269 387 c 0,52,53
 222 387 222 387 195.5 341 c 128,-1,54
 169 295 169 295 169 242 c 0,55,56
 169 162 169 162 212 108 c 128,-1,57
 255 54 255 54 334 54 c 0,44,45
EndSplineSet
EndChar

StartChar: uni0725.init
Encoding: 1114156 -1 195
Width: 676
Flags: W
HStem: 0 40<-150 433> 372 89<221.001 313>
VStem: 80 141<361 436>
AnchorPoint: "curs" -149 0 exit 0
AnchorPoint: "curs" 596 -2 entry 0
LayerCount: 2
Fore
SplineSet
80 411 m 0,0,1
 80 461 80 461 163 461 c 2,2,-1
 313 461 l 1,3,-1
 313 372 l 1,4,-1
 232 372 l 2,5,6
 228 372 228 372 224.5 368.5 c 128,-1,7
 221 365 221 365 221 362 c 0,8,9
 221 360 221 360 466 121 c 0,10,11
 509 79 509 79 552 39 c 1,12,-1
 596 0 l 1,13,-1
 -150 0 l 1,14,-1
 -150 40 l 1,15,-1
 433 40 l 1,16,-1
 160 312 l 2,17,18
 153 319 153 319 106 368.5 c 0,19,20
 80 397 80 397 80 411 c 0,0,1
EndSplineSet
EndChar

StartChar: uni0725.med
Encoding: 1114157 -1 196
Width: 676
Flags: W
HStem: 0 40<-150 433 531.844 826> 372 89<221.001 313>
VStem: 80 141<358.75 436>
AnchorPoint: "curs" -149 0 exit 0
AnchorPoint: "curs" 826 0 entry 0
LayerCount: 2
Fore
SplineSet
552 40 m 1,0,1
 552 40 552 40 826 40 c 1,2,-1
 826 0 l 1,3,4
 826 0 826 0 -150 0 c 1,5,6
 -150 0 -150 0 -150 40 c 1,7,-1
 433 40 l 1,8,9
 160 312 160 312 156.725585938 315.262695312 c 0,10,11
 153 319 153 319 106 368.5 c 0,12,13
 80 397 80 397 80 411 c 0,14,15
 80 461 80 461 163 461 c 2,16,17
 163 461 163 461 313 461 c 1,18,-1
 313 372 l 1,19,-1
 230 372 l 2,20,21
 228 372 228 372 224.5 368.5 c 128,-1,22
 221 365 221 365 221 362.5 c 0,23,24
 221 355 221 355 466 121 c 0,25,26
 509 80 509 80 552 40 c 1,0,1
EndSplineSet
EndChar

StartChar: uni0725.fin
Encoding: 1114158 -1 197
Width: 676
Flags: W
HStem: 0 40<80 433 531.844 826> 372 89<221.001 313>
AnchorPoint: "curs" 81 0 exit 0
AnchorPoint: "curs" 826 0 entry 0
LayerCount: 2
Fore
SplineSet
552 40 m 1,0,1
 552 40 552 40 826 40 c 1,2,-1
 826 0 l 1,3,4
 826 0 826 0 80 0 c 1,5,6
 80 0 80 0 80 40 c 1,7,-1
 433 40 l 1,8,9
 160 312 160 312 156.725585938 315.262695312 c 0,10,11
 153 319 153 319 106 368.5 c 0,12,13
 80 397 80 397 80 411 c 0,14,15
 80 461 80 461 163 461 c 2,16,17
 163 461 163 461 313 461 c 1,18,-1
 313 372 l 1,19,-1
 230 372 l 2,20,21
 228 372 228 372 224.5 368.5 c 128,-1,22
 221 365 221 365 221 362.5 c 0,23,24
 221 355 221 355 466 121 c 0,25,26
 509 80 509 80 552 40 c 1,0,1
EndSplineSet
EndChar

StartChar: uni0727.init
Encoding: 1114159 -1 198
Width: 680
Flags: W
HStem: 1 40<-150 171> 389 73<203.631 496.975>
VStem: 111 84<200.396 386.322> 509 92<258.275 383.26>
AnchorPoint: "curs" -148 -1 exit 0
AnchorPoint: "curs" 507 1 entry 0
LayerCount: 2
Fore
SplineSet
443 186 m 1,0,1
 509 285 509 285 509 313 c 128,-1,2
 509 341 509 341 498 365 c 128,-1,3
 487 389 487 389 479 389 c 2,4,-1
 224 389 l 2,5,6
 206 389 206 389 198 345 c 0,7,8
 195 328 195 328 195 308 c 128,-1,9
 195 288 195 288 223 172 c 128,-1,10
 251 56 251 56 263 35 c 1,11,-1
 275 1 l 1,12,-1
 -150 1 l 1,13,-1
 -150 41 l 1,14,-1
 171 41 l 1,15,16
 111 270 111 270 111 314 c 0,17,18
 111 399 111 399 130 431 c 128,-1,19
 149 463 149 463 184 462 c 1,20,-1
 531 462 l 2,21,22
 555 462 555 462 578 405 c 128,-1,23
 601 348 601 348 601 314 c 0,24,25
 601 246 601 246 540 183 c 0,26,27
 513 155 513 155 487 128 c 1,28,-1
 479 128 l 1,29,-1
 443 186 l 1,0,1
EndSplineSet
EndChar

StartChar: uni0727.med
Encoding: 1114160 -1 199
Width: 680
Flags: W
HStem: 0 40<-150 171 253.379 830> 389 73<203.631 496.975>
VStem: 111 84<196.977 386.322> 509 92<258.275 383.26>
AnchorPoint: "curs" 82 -1 exit 0
AnchorPoint: "curs" 832 1 entry 0
LayerCount: 2
Fore
SplineSet
-150 41 m 1,0,-1
 171 41 l 1,1,2
 111 270 111 270 111 314 c 0,3,4
 111 399 111 399 130 431 c 128,-1,5
 149 463 149 463 184 462 c 1,6,7
 184 462 184 462 531 462 c 0,8,9
 555 462 555 462 578 405 c 128,-1,10
 601 348 601 348 601 314 c 0,11,12
 601 246 601 246 540 183 c 0,13,14
 513 155 513 155 487 128 c 1,15,16
 487 128 487 128 479 128 c 1,17,-1
 443 186 l 1,18,19
 509 285 509 285 509 313 c 128,-1,20
 509 341 509 341 498 365 c 128,-1,21
 487 389 487 389 479 389 c 2,22,23
 479 389 479 389 224 389 c 0,24,25
 206 389 206 389 198 345 c 0,26,27
 195 328 195 328 195 308 c 128,-1,28
 195 288 195 288 221.5 177.5 c 128,-1,29
 248 67 248 67 260.506835938 40 c 1,30,31
 260.506835938 40 260.506835938 40 830 40 c 1,32,-1
 830 0 l 1,33,-1
 -150 0 l 1,34,-1
 -150 41 l 1,0,-1
EndSplineSet
EndChar

StartChar: uni0727.fin
Encoding: 1114161 -1 200
Width: 680
Flags: W
HStem: 0 40<81 171 253.379 830> 389 73<203.631 496.975>
VStem: 111 84<196.977 386.322> 509 92<258.275 383.26>
AnchorPoint: "curs" 832 1 entry 0
AnchorPoint: "curs" 82 -1 exit 0
LayerCount: 2
Fore
SplineSet
81 41 m 1,0,-1
 171 41 l 1,1,2
 111 270 111 270 111 314 c 0,3,4
 111 399 111 399 130 431 c 128,-1,5
 149 463 149 463 184 462 c 1,6,7
 184 462 184 462 531 462 c 0,8,9
 555 462 555 462 578 405 c 128,-1,10
 601 348 601 348 601 314 c 0,11,12
 601 246 601 246 540 183 c 0,13,14
 513 155 513 155 487 128 c 1,15,16
 487 128 487 128 479 128 c 1,17,-1
 443 186 l 1,18,19
 509 285 509 285 509 313 c 128,-1,20
 509 341 509 341 498 365 c 128,-1,21
 487 389 487 389 479 389 c 2,22,23
 479 389 479 389 224 389 c 0,24,25
 206 389 206 389 198 345 c 0,26,27
 195 328 195 328 195 308 c 128,-1,28
 195 288 195 288 221.5 177.5 c 128,-1,29
 248 67 248 67 260.506835938 40 c 1,30,31
 260.506835938 40 260.506835938 40 830 40 c 1,32,-1
 830 0 l 1,33,-1
 81 0 l 1,34,-1
 81 41 l 1,0,-1
EndSplineSet
EndChar

StartChar: uni0726.init
Encoding: 1114162 -1 201
Width: 631
Flags: W
HStem: 0 41<-150 427.016> 389 73<184.92 478.361>
VStem: 80 92<261.23 382.451> 487 84<202.068 386.887>
AnchorPoint: "curs" -149 0 exit 0
AnchorPoint: "curs" 499 1 entry 0
LayerCount: 2
Fore
SplineSet
571 314 m 0,0,1
 571 282 571 282 540 158.962890625 c 128,-1,2
 509 36 509 36 500 0 c 1,3,-1
 -150 0 l 1,4,-1
 -150 41 l 1,5,-1
 419 41 l 1,6,7
 431 63 431 63 459 175.5 c 128,-1,8
 487 288 487 288 487 311.5 c 128,-1,9
 487 335 487 335 480 362 c 128,-1,10
 473 389 473 389 457 389 c 2,11,-1
 202 389 l 2,12,13
 195 389 195 389 183.5 364 c 128,-1,14
 172 339 172 339 172 318.5 c 0,15,16
 172 299 172 299 193.5 261 c 0,17,18
 224 208 224 208 238 186 c 0,19,20
 240 183 240 183 223.5 159 c 0,21,22
 209 138 209 138 203 128 c 1,23,-1
 195 128 l 1,24,25
 160 166 160 166 124 205 c 1,26,27
 81 260 81 260 80 314 c 0,28,29
 80 347 80 347 103 404.5 c 128,-1,30
 126 462 126 462 150 462 c 2,31,-1
 497 462 l 2,32,33
 542 462 542 462 559 413 c 0,34,35
 571 378 571 378 571 314 c 0,0,1
EndSplineSet
EndChar

StartChar: uni0726.med
Encoding: 1114163 -1 202
Width: 631
Flags: W
HStem: 0 41<-150 427.016 510.037 781> 389 73<184.92 478.361>
VStem: 80 92<258.671 382.133> 487 84<201.377 386.895>
AnchorPoint: "curs" -149 0 exit 0
AnchorPoint: "curs" 774 1 entry 0
LayerCount: 2
Fore
SplineSet
422 41 m 1025,0,1
510.037109375 40 m 1,2,3
 510.037109375 40 510.037109375 40 781 40 c 1,4,-1
 781 0 l 1,5,-1
 -150 0 l 1,6,7
 -150 0 -150 0 -150 41 c 1,8,-1
 419 41 l 1,9,10
 431 63 431 63 459 175.5 c 128,-1,11
 487 288 487 288 487 311.5 c 128,-1,12
 487 335 487 335 480 362 c 128,-1,13
 473 389 473 389 457 389 c 0,14,15
 202 389 202 389 202 389 c 2,16,17
 195 389 195 389 183.5 364 c 128,-1,18
 172 339 172 339 172 314.357421875 c 0,19,20
 172 285 172 285 238 186 c 0,21,22
 240 183 240 183 224.5 160.5 c 128,-1,23
 209 138 209 138 203 128 c 1,24,25
 195 128 195 128 195 128 c 1,26,27
 160 166 160 166 124 205 c 1,28,29
 81 260 81 260 80 314 c 0,30,31
 80 347 80 347 102.5 403.5 c 128,-1,32
 125 460 125 460 150 462 c 1,33,34
 488 462 488 462 488 462 c 2,35,36
 526 462 526 462 543 443 c 0,37,38
 571 412 571 412 571 314 c 0,39,40
 571 279 571 279 510.037109375 40 c 1,2,3
EndSplineSet
EndChar

StartChar: uni0726.fin
Encoding: 1114164 -1 203
Width: 631
Flags: W
HStem: 0 41<93 427.016 510.037 781> 389 73<184.92 478.361>
VStem: 80 92<258.671 382.133> 487 84<201.377 386.895>
AnchorPoint: "curs" 774 1 entry 0
AnchorPoint: "curs" 94 0 exit 0
LayerCount: 2
Fore
SplineSet
422 41 m 1025,0,1
510.037109375 40 m 1,2,3
 510.037109375 40 510.037109375 40 781 40 c 1,4,-1
 781 0 l 1,5,-1
 93 0 l 1,6,7
 93 0 93 0 93 41 c 1,8,-1
 419 41 l 1,9,10
 431 63 431 63 459 175.5 c 128,-1,11
 487 288 487 288 487 311.5 c 128,-1,12
 487 335 487 335 480 362 c 128,-1,13
 473 389 473 389 457 389 c 0,14,15
 202 389 202 389 202 389 c 2,16,17
 195 389 195 389 183.5 364 c 128,-1,18
 172 339 172 339 172 314.357421875 c 0,19,20
 172 285 172 285 238 186 c 0,21,22
 240 183 240 183 224.5 160.5 c 128,-1,23
 209 138 209 138 203 128 c 1,24,25
 195 128 195 128 195 128 c 1,26,27
 160 166 160 166 124 205 c 1,28,29
 81 260 81 260 80 314 c 0,30,31
 80 347 80 347 102.5 403.5 c 128,-1,32
 125 460 125 460 150 462 c 1,33,34
 488 462 488 462 488 462 c 2,35,36
 526 462 526 462 543 443 c 0,37,38
 571 412 571 412 571 314 c 0,39,40
 571 279 571 279 510.037109375 40 c 1,2,3
EndSplineSet
EndChar

StartChar: uni0728.init
Encoding: 1114165 -1 204
Width: 710
Flags: W
HStem: -310 50<40 323.405> 0 41<-150 251.713>
VStem: 404 124<-203.038 -93.5618>
AnchorPoint: "curs" -149 -1 exit 0
AnchorPoint: "curs" 653 -1 entry 0
LayerCount: 2
Fore
SplineSet
79 0 m 2,0,1
 79 0 79 0 -150 0 c 1,2,-1
 -150 40 l 1,3,-1
 79 41 l 1,4,-1
 270 41 l 1,5,-1
 336 462 l 1,6,-1
 435 462 l 1,7,-1
 651 1 l 1,8,-1
 304 1 l 1,9,10
 444 -41 444 -41 444 -41 c 1,11,12
 528 -82 528 -82 528 -170 c 0,13,14
 528 -221 528 -221 446.5 -265.5 c 128,-1,15
 365 -310 365 -310 238 -310 c 1,16,17
 238 -310 238 -310 39 -308 c 1,18,-1
 40 -260 l 1,19,-1
 219 -260 l 2,20,21
 265 -260 265 -260 324 -238 c 0,22,23
 404 -208 404 -208 404 -154 c 0,24,25
 404 -85 404 -85 313.5 -42.5 c 128,-1,26
 223 0 223 0 79 0 c 2,0,1
EndSplineSet
EndChar

StartChar: uni0728.med
Encoding: 1114166 -1 205
Width: 710
Flags: W
HStem: -310 50<42 325.405> 0 41<-150 253.713 624.731 860>
VStem: 406 124<-203.038 -93.5618>
AnchorPoint: "curs" -149 -1 exit 0
AnchorPoint: "curs" 860 0 entry 0
LayerCount: 2
Fore
SplineSet
634.2578125 41 m 1,0,1
 634.2578125 41 634.2578125 41 860 40 c 1,2,-1
 860 0 l 1,3,4
 306 1 306 1 306 1 c 1,5,6
 446 -41 446 -41 446 -41 c 1,7,8
 530 -82 530 -82 530 -170 c 0,9,10
 530 -221 530 -221 448.5 -265.5 c 128,-1,11
 367 -310 367 -310 240 -310 c 1,12,13
 240 -310 240 -310 41 -308 c 1,14,-1
 42 -260 l 1,15,-1
 221 -260 l 2,16,17
 267 -260 267 -260 326 -238 c 0,18,19
 406 -208 406 -208 406 -154 c 0,20,21
 406 -85 406 -85 315.5 -42.5 c 128,-1,22
 225 0 225 0 81 0 c 2,23,24
 81 0 81 0 -150 0 c 1,25,-1
 -150 40 l 1,26,-1
 81 41 l 1,27,-1
 272 41 l 1,28,-1
 338 462 l 1,29,-1
 437 462 l 1,30,31
 634 41 634 41 634.2578125 41 c 1,0,1
EndSplineSet
EndChar

StartChar: uni0728.fin
Encoding: 1114167 -1 206
Width: 710
Flags: W
HStem: -310 50<43 326.405> 0 41<82 254.492 619.182 860>
VStem: 407 124<-203.038 -93.121>
AnchorPoint: "curs" 860 0 entry 0
AnchorPoint: "curs" 79 0 exit 0
LayerCount: 2
Fore
SplineSet
438 462 m 1,0,1
 625 41 625 41 630.12890625 41 c 0,2,3
 757 40 757 40 860 40 c 1,4,-1
 860 0 l 1,5,6
 860 0 860 0 307 1 c 1,7,8
 307 1 307 1 447 -41 c 1,9,10
 531 -82 531 -82 531 -170 c 0,11,12
 531 -221 531 -221 449.5 -265.5 c 128,-1,13
 368 -310 368 -310 241 -310 c 1,14,15
 241 -310 241 -310 42 -308 c 1,16,-1
 43 -260 l 1,17,-1
 222 -260 l 2,18,19
 268 -260 268 -260 327 -238 c 0,20,21
 407 -208 407 -208 407 -154 c 0,22,23
 407 -83 407 -83 317.5 -43 c 128,-1,24
 228 -3 228 -3 126 0 c 1,25,26
 126 0 126 0 82 0 c 1,27,-1
 82 41 l 1,28,-1
 273 41 l 1,29,-1
 339 462 l 1,30,-1
 438 462 l 1,0,1
EndSplineSet
EndChar

StartChar: uni0729.init
Encoding: 1114168 -1 207
Width: 610
Flags: W
HStem: 0 40<-150 80 200 413> 420 41<200 413>
VStem: 80 120<40 420> 413 122<40 420>
AnchorPoint: "curs" -150 0 exit 0
AnchorPoint: "curs" 535 -1 entry 0
LayerCount: 2
Fore
SplineSet
-150 0 m 1,0,1
 -150 0 -150 0 -150 40 c 1,2,-1
 80 40 l 1,3,-1
 79 461 l 1,4,-1
 535 461 l 1,5,-1
 535 0 l 1,6,-1
 -150 0 l 1,0,1
413 40 m 1,7,-1
 413 420 l 1,8,-1
 200 420 l 1,9,-1
 200 40 l 1,10,-1
 413 40 l 1,7,-1
EndSplineSet
EndChar

StartChar: uni0729.med
Encoding: 1114169 -1 208
Width: 610
Flags: W
HStem: 0 40<-150 80 200 413 535 760> 420 41<200 413>
VStem: 80 120<40 420> 413 122<40 420>
AnchorPoint: "curs" -150 0 exit 0
AnchorPoint: "curs" 759 -1 entry 0
LayerCount: 2
Fore
SplineSet
760 0 m 0,0,-1
 -150 0 l 1,1,2
 -150 0 -150 0 -150 40 c 1,3,-1
 80 40 l 1,4,-1
 79 461 l 5,5,-1
 535 461 l 5,6,-1
 535 40 l 1,7,-1
 760 40 l 1,8,-1
 760 0 l 0,0,-1
413 40 m 1,9,-1
 413 420 l 1,10,-1
 200 420 l 1,11,-1
 200 40 l 1,12,-1
 413 40 l 1,9,-1
EndSplineSet
EndChar

StartChar: uni0729.fin
Encoding: 1114170 -1 209
Width: 610
Flags: W
HStem: 0 40<202 415 537 760> 420 41<202 415>
VStem: 82 120<40 420> 415 122<40 420>
AnchorPoint: "curs" 82 0 exit 0
AnchorPoint: "curs" 759 -1 entry 0
LayerCount: 2
Fore
SplineSet
760 0 m 1,0,-1
 82 0 l 1,1,2
 82 0 82 0 79 461 c 1,3,-1
 537 461 l 1,4,-1
 537 40 l 1,5,-1
 760 40 l 1,6,-1
 760 0 l 1,0,-1
415 40 m 1,7,-1
 415 420 l 1,8,-1
 202 420 l 1,9,-1
 202 40 l 1,10,-1
 415 40 l 1,7,-1
EndSplineSet
EndChar

StartChar: uni072A.med
Encoding: 1114171 -1 210
Width: 640
Flags: W
HStem: 0 40<572 790> 308 153<81 240.5> 425 37<240.5 464.5> 550 99<299.47 369.045>
VStem: 81 159.5<308 425> 284 100<564.439 633.53> 464 108<40 425>
AnchorPoint: "curs" 790 0 entry 0
AnchorPoint: "curs" 85 0 exit 0
LayerCount: 2
Fore
SplineSet
334 649 m 256,0,1
 355 649 355 649 369.5 634.5 c 128,-1,2
 384 620 384 620 384 599 c 128,-1,3
 384 578 384 578 369.5 564 c 128,-1,4
 355 550 355 550 334.5 550 c 128,-1,5
 314 550 314 550 299 564 c 128,-1,6
 284 578 284 578 284 598.5 c 128,-1,7
 284 619 284 619 298.5 634 c 128,-1,8
 313 649 313 649 334 649 c 256,0,1
82.5 461 m 1,9,-1
 82.5 462 l 1,10,-1
 571.5 462 l 1,11,-1
 571.5 461 l 1,12,-1
 572 461 l 1,13,-1
 572 40 l 1,14,-1
 790 40 l 1,15,-1
 790 0 l 1,16,17
 790 0 790 0 464 0 c 1,18,-1
 464.5 425 l 1,19,-1
 240.5 425 l 1,20,-1
 240.5 309 l 1,21,-1
 238 309 l 1,22,-1
 238 308 l 1,23,-1
 81 308 l 1,24,-1
 81 461 l 1,25,-1
 82.5 461 l 1,9,-1
EndSplineSet
EndChar

StartChar: uni072A.fin
Encoding: 1114172 -1 211
Width: 640
Flags: W
HStem: 0 40<572 790> 308 153<81 240.5> 425 37<240.5 464.5> 550 99<299.47 369.045>
VStem: 81 159.5<308 425> 284 100<564.439 633.53> 464 108<40 425>
AnchorPoint: "curs" 790 0 entry 0
AnchorPoint: "curs" 85 0 exit 0
LayerCount: 2
Fore
SplineSet
334 649 m 256,0,1
 355 649 355 649 369.5 634.5 c 128,-1,2
 384 620 384 620 384 599 c 128,-1,3
 384 578 384 578 369.5 564 c 128,-1,4
 355 550 355 550 334.5 550 c 128,-1,5
 314 550 314 550 299 564 c 128,-1,6
 284 578 284 578 284 598.5 c 128,-1,7
 284 619 284 619 298.5 634 c 128,-1,8
 313 649 313 649 334 649 c 256,0,1
82.5 461 m 1,9,-1
 82.5 462 l 5,10,-1
 571.5 462 l 5,11,-1
 571.5 461 l 1,12,-1
 572 461 l 1,13,-1
 572 40 l 1,14,-1
 790 40 l 1,15,-1
 790 0 l 1,16,17
 790 0 790 0 464 0 c 1,18,-1
 464.5 425 l 1,19,-1
 240.5 425 l 1,20,-1
 240.5 309 l 1,21,-1
 238 309 l 1,22,-1
 238 308 l 1,23,-1
 81 308 l 1,24,-1
 81 461 l 1,25,-1
 82.5 461 l 1,9,-1
EndSplineSet
EndChar

StartChar: uni072B.init
Encoding: 1114173 -1 212
Width: 708
Flags: W
HStem: 1 40<-149 251>
VStem: 220.5 249.5<57.2056 235.088>
AnchorPoint: "curs" -151 0 exit 0
AnchorPoint: "curs" 400 0 entry 0
LayerCount: 2
Fore
SplineSet
313.076171875 0 m 1,0,1
 313.076171875 0 313.076171875 0 -150 1 c 1,2,-1
 -149 41 l 1,3,-1
 251 42 l 1,4,5
 220 85 220 85 220.5 154 c 128,-1,6
 221 223 221 223 266 270 c 1,7,8
 266 270 266 270 74 470 c 1,9,-1
 192 470 l 1,10,-1
 346 315 l 1,11,-1
 505 469 l 1,12,-1
 628 468 l 1,13,-1
 420 274 l 1,14,15
 444 251 444 251 457 216.5 c 128,-1,16
 470 182 470 182 470 152 c 0,17,18
 470 84 470 84 439 42 c 0,19,20
 407 -1 407 -1 346.25 -3.25 c 0,21,22
 327 -4 327 -4 313.076171875 0 c 1,0,1
EndSplineSet
EndChar

StartChar: uni072B.med
Encoding: 1114174 -1 213
Width: 708
Flags: W
HStem: 0 42<-149 251 438.248 858>
VStem: 220.5 249.5<57.3945 235.088>
AnchorPoint: "curs" -151 0 exit 0
AnchorPoint: "curs" 859 0 entry 0
LayerCount: 2
Fore
SplineSet
438.248046875 41 m 1,0,1
 438.248046875 41 438.248046875 41 858 40 c 1,2,-1
 858 0 l 1,3,4
 412 0 412 0 390.5 -1 c 128,-1,5
 369 -2 369 -2 348 -3 c 128,-1,6
 327 -4 327 -4 313.076171875 0 c 1,7,8
 313.076171875 0 313.076171875 0 -150 1 c 1,9,-1
 -149 41 l 1,10,-1
 251 42 l 1,11,12
 220 85 220 85 220.5 154 c 128,-1,13
 221 223 221 223 266 270 c 1,14,15
 266 270 266 270 74 470 c 1,16,-1
 192 470 l 1,17,-1
 346 315 l 1,18,-1
 505 469 l 1,19,-1
 628 468 l 1,20,-1
 420 274 l 1,21,22
 444 251 444 251 457 215.5 c 128,-1,23
 470 180 470 180 470 152 c 0,24,25
 469 82 469 82 438.248046875 41 c 1,0,1
EndSplineSet
EndChar

StartChar: uni072B.fin
Encoding: 1114175 -1 214
Width: 708
Flags: W
HStem: -1 42<438.248 858>
VStem: 220.5 249.5<57.9912 235.476>
AnchorPoint: "curs" 859 0 entry 0
AnchorPoint: "curs" 305 0 exit 0
LayerCount: 2
Fore
SplineSet
278.252929688 15.5 m 24,0,1
 261 27 261 27 251 42 c 0,2,3
 219 92 219 92 220.5 157 c 0,4,5
 222 224 222 224 266 270 c 1,6,7
 266 270 266 270 74 470 c 1,8,-1
 192 470 l 1,9,-1
 346 315 l 1,10,-1
 505 469 l 1,11,-1
 628 468 l 1,12,-1
 420 274 l 1,13,14
 444 251 444 251 457 215.5 c 128,-1,15
 470 180 470 180 470 152 c 0,16,17
 469 82 469 82 438.248046875 41 c 1,18,19
 438.248046875 41 438.248046875 41 858 40 c 1,20,-1
 858 0 l 1,21,22
 376 0 376 0 372.5 -1 c 0,23,24
 320 -12 320 -12 278.252929688 15.5 c 24,0,1
EndSplineSet
EndChar

StartChar: uni072C.init
Encoding: 1114176 -1 215
Width: 886
Flags: W
HStem: 1 63<145 484 533.162 636.395> 1 40<-150 80> 364.5 78.5<404.227 634.222>
VStem: 706 100<140.924 300.692>
AnchorPoint: "curs" -150 -1 exit 0
AnchorPoint: "curs" 596 0 entry 0
LayerCount: 2
Fore
SplineSet
80 40 m 1,0,1
 80 40 80 40 80 61 c 1,2,3
 132 263 132 263 304 378 c 0,4,5
 304 379 304 379 168 589 c 1,6,-1
 275 589 l 1,7,-1
 370 404 l 1,8,9
 397 419 397 419 404 421 c 0,10,11
 458 443 458 443 544 443 c 0,12,13
 660 443 660 443 733 385 c 128,-1,14
 806 327 806 327 806 223 c 128,-1,15
 806 119 806 119 754 65 c 0,16,17
 692 1 692 1 537 1 c 2,18,19
 537 1 537 1 -150 1 c 1,20,-1
 -150 41 l 1,21,-1
 80 40 l 1,0,1
706 224 m 0,22,23
 706 296 706 296 653 332 c 0,24,25
 607 364 607 364 535 364.5 c 128,-1,26
 463 365 463 365 446.5 360.5 c 128,-1,27
 430 356 430 356 396 341 c 1,28,-1
 533 64 l 1,29,30
 538 66 538 66 568 65 c 0,31,32
 638 65 638 65 677 127 c 0,33,34
 706 174 706 174 706 224 c 0,22,23
484 64 m 1,35,36
 484 64 484 64 410.991210938 188.02734375 c 128,-1,37
 337.981445312 312.055664062 337.981445312 312.055664062 335 321 c 1,38,39
 320 321 320 321 272.5 273 c 128,-1,40
 225 225 225 225 185.5 164 c 128,-1,41
 146 103 146 103 145 64 c 1,42,-1
 484 64 l 1,35,36
EndSplineSet
EndChar

